{"glyphs":{"0":{"ha":869,"x_min":0,"x_max":0,"o":"m 81 683 b 435 1006 81 883 211 1006 b 789 683 658 1006 789 883 l 789 303 b 435 -19 789 103 658 -19 b 81 303 211 -19 81 103 m 688 683 b 435 913 688 828 596 913 b 181 683 274 913 181 828 l 181 303 b 435 74 181 158 274 74 b 688 303 596 74 688 158 "},"1":{"ha":617,"x_min":0,"x_max":0,"o":"m 479 986 b 507 958 500 986 507 979 l 507 28 b 479 0 507 7 500 0 l 435 0 b 406 28 413 0 406 7 l 406 864 l 113 701 b 72 711 94 692 82 694 l 51 749 b 64 785 43 764 47 775 l 403 975 b 442 986 415 982 428 986 "},"2":{"ha":819,"x_min":0,"x_max":0,"o":"m 81 781 b 438 1006 144 931 264 1006 b 668 919 532 1006 608 976 b 756 708 726 863 756 792 b 657 478 756 607 728 533 b 547 407 621 449 585 425 b 393 340 510 389 458 367 b 314 310 358 328 332 317 b 251 274 296 301 275 289 b 181 149 201 242 181 203 l 181 94 l 719 94 b 747 67 740 94 747 88 l 747 28 b 719 0 747 7 740 0 l 104 0 b 75 28 85 0 75 10 l 75 129 b 201 356 82 243 119 304 b 276 399 231 374 256 389 b 364 433 297 408 326 419 b 554 522 460 471 522 500 b 650 704 617 568 649 628 b 590 853 650 763 631 813 b 435 913 550 893 499 913 b 175 746 303 913 226 858 b 140 729 165 725 161 722 l 97 746 b 81 781 79 753 74 764 "},"3":{"ha":832,"x_min":0,"x_max":0,"o":"m 743 731 b 618 513 743 621 701 549 b 774 272 722 475 774 396 b 436 -19 774 89 663 -19 b 75 222 231 -19 125 61 b 92 258 69 240 75 251 l 135 274 b 171 256 153 281 164 274 b 436 74 210 129 276 74 b 669 274 593 74 669 146 b 483 458 669 389 604 458 l 282 458 b 254 485 264 458 254 467 l 254 522 b 282 550 254 543 261 550 l 471 550 b 643 721 582 550 643 621 b 433 913 643 844 572 913 b 179 735 282 913 218 861 b 143 718 174 719 161 714 l 100 733 b 83 768 83 740 78 751 b 436 1006 133 929 235 1006 b 743 731 636 1006 743 904 "},"4":{"ha":847,"x_min":0,"x_max":0,"o":"m 781 358 b 808 331 801 358 808 351 l 808 296 b 781 268 808 275 801 268 l 653 268 l 653 28 b 625 0 653 7 646 0 l 585 0 b 557 28 564 0 557 7 l 557 268 l 63 268 b 35 296 42 268 35 275 l 35 325 b 44 358 35 339 38 350 l 542 978 b 581 997 551 990 565 997 l 624 997 b 653 969 646 997 653 990 l 653 358 m 557 858 l 154 358 l 557 358 "},"5":{"ha":813,"x_min":0,"x_max":0,"o":"m 700 986 b 728 958 721 986 728 979 l 728 919 b 700 892 728 899 721 892 l 243 892 l 214 596 l 443 596 b 765 294 653 596 765 471 b 675 71 765 206 735 131 b 429 -21 614 10 532 -21 b 68 199 242 -21 122 53 b 83 233 61 215 67 226 l 129 250 b 164 232 144 257 157 250 b 429 74 203 126 292 74 b 658 294 568 74 658 165 b 438 503 658 418 578 503 l 138 503 b 107 536 114 503 104 514 l 149 943 b 196 986 150 976 163 986 "},"6":{"ha":863,"x_min":0,"x_max":0,"o":"m 179 540 b 451 583 269 569 360 583 b 796 282 685 583 796 483 b 438 -19 796 93 661 -19 b 79 331 206 -19 79 110 l 79 656 b 438 1006 79 882 204 1006 b 782 793 613 1006 728 935 b 764 758 788 776 782 765 l 722 743 b 688 761 701 736 697 740 b 438 913 646 863 563 913 b 179 656 269 913 179 824 m 179 331 b 438 74 179 165 269 74 b 696 282 603 74 696 149 b 444 489 696 422 618 489 b 179 442 340 489 251 474 "},"7":{"ha":721,"x_min":0,"x_max":0,"o":"m 676 986 b 703 958 694 986 703 976 l 703 931 b 696 892 703 918 700 906 l 311 25 b 260 0 301 3 294 0 l 215 0 b 201 28 199 0 194 10 l 588 892 l 64 892 b 38 919 43 892 38 899 l 38 958 b 64 986 38 979 43 986 "},"8":{"ha":856,"x_min":0,"x_max":0,"o":"m 96 747 b 426 1006 96 913 221 1006 b 760 754 644 1006 760 919 b 565 507 760 639 694 556 b 789 250 706 457 789 393 b 426 -19 789 82 676 -19 b 67 235 186 -19 67 65 b 292 501 67 358 142 447 b 96 747 169 551 96 619 m 661 746 b 428 918 661 858 579 918 b 197 746 282 918 197 857 b 271 610 197 683 219 639 b 433 549 321 581 356 569 l 465 539 b 576 588 508 551 522 556 b 661 746 631 619 661 674 m 683 249 b 610 390 690 315 646 364 b 553 417 599 399 579 407 b 494 436 526 426 507 432 b 424 456 482 440 458 446 b 388 465 410 460 401 461 b 168 244 242 426 168 353 b 428 68 168 126 254 68 b 683 249 599 68 683 128 "},"9":{"ha":863,"x_min":0,"x_max":0,"o":"m 682 446 b 411 403 596 417 506 403 b 67 704 178 403 67 503 b 425 1006 67 893 201 1006 b 783 656 657 1006 783 876 l 783 331 b 425 -19 783 104 658 -19 b 81 193 250 -19 135 51 b 99 228 75 210 81 221 l 140 243 b 175 225 161 250 165 246 b 425 74 217 124 300 74 b 682 331 593 74 682 163 m 682 656 b 425 913 682 821 593 913 b 167 704 260 913 167 838 b 418 497 167 564 244 497 b 682 544 526 497 614 513 "}," ":{"ha":328,"x_min":0,"x_max":0,"o":""},"!":{"ha":288,"x_min":0,"x_max":0,"o":"m 168 1028 b 193 1003 185 1028 193 1019 l 181 258 b 156 233 181 242 172 233 l 131 233 b 106 258 115 233 107 242 l 94 1003 b 119 1028 94 1019 103 1028 m 147 111 b 203 56 190 111 203 99 l 203 47 b 147 -8 203 7 188 -8 l 139 -8 b 85 47 96 -8 85 4 l 85 56 b 139 111 85 99 96 111 "},"\"":{"ha":410,"x_min":0,"x_max":0,"o":"m 163 681 b 138 658 161 663 158 658 l 113 658 b 89 681 92 658 89 663 l 89 964 b 113 986 89 982 94 986 l 151 986 b 175 964 172 986 176 982 m 315 681 b 292 658 314 663 310 658 l 265 658 b 243 681 247 658 243 663 l 243 964 b 265 986 243 982 247 986 l 306 986 b 329 964 324 986 331 981 "},"#":{"ha":944,"x_min":0,"x_max":0,"o":"m 883 667 b 903 642 904 667 908 660 l 892 603 b 858 581 888 588 876 581 l 713 581 l 644 351 l 790 351 b 810 326 811 351 815 344 l 797 288 b 765 265 793 272 782 265 l 619 265 l 547 25 b 515 0 540 8 531 0 l 474 0 b 456 25 456 0 450 8 l 526 265 l 308 265 l 236 25 b 206 0 232 8 222 0 l 164 0 b 146 25 146 0 140 8 l 217 265 l 74 265 b 56 290 57 265 51 274 l 67 328 b 101 351 71 343 83 351 l 243 351 l 311 581 l 168 581 b 149 606 147 581 143 588 l 161 643 b 194 667 165 658 176 667 l 336 667 l 401 883 b 433 908 407 900 418 908 l 475 908 b 493 883 493 908 499 900 l 428 667 l 646 667 l 711 883 b 743 908 717 900 728 908 l 785 908 b 803 883 803 908 808 900 l 739 667 m 403 581 l 335 351 l 553 351 l 621 581 "},"$":{"ha":819,"x_min":0,"x_max":0,"o":"m 439 1088 b 464 1063 456 1088 464 1079 l 464 975 b 753 763 610 963 688 896 b 738 724 763 744 758 732 l 699 706 b 661 719 682 699 669 704 b 408 882 604 832 542 882 b 186 704 260 882 186 822 b 293 568 192 624 224 589 b 435 544 343 553 369 550 b 618 510 514 538 551 532 b 697 468 651 499 678 485 b 768 286 736 433 768 369 b 464 14 768 124 664 26 l 464 -76 b 439 -101 464 -93 456 -101 l 396 -101 b 371 -76 379 -101 371 -93 l 371 13 b 69 244 225 25 125 101 b 88 283 63 263 68 276 l 126 297 b 164 281 144 304 157 299 b 418 104 214 160 283 104 b 667 283 583 104 667 164 b 560 425 658 367 632 404 b 494 440 533 432 511 438 b 417 449 476 442 451 444 b 233 485 339 456 299 461 b 154 526 200 496 174 510 b 83 703 115 560 83 621 b 371 975 83 865 181 963 l 371 1063 b 396 1088 371 1079 379 1088 "},"%":{"ha":1128,"x_min":0,"x_max":0,"o":"m 50 803 b 269 1007 50 931 129 1007 b 490 803 413 1007 490 931 l 490 701 b 269 499 490 574 413 499 b 50 701 129 499 50 574 m 946 986 b 958 960 967 986 971 978 l 271 25 b 217 0 256 3 250 0 l 185 0 b 169 28 164 0 158 13 l 858 963 b 908 986 874 983 879 986 m 411 800 b 269 931 411 883 360 931 b 129 800 181 931 129 883 l 129 706 b 269 575 129 622 181 575 b 411 706 360 575 411 622 m 638 283 b 857 488 638 411 717 488 b 1078 283 1000 488 1078 411 l 1078 181 b 857 -21 1078 54 1000 -21 b 638 181 717 -21 638 54 m 997 279 b 857 411 997 363 947 411 b 717 279 767 411 717 363 l 717 186 b 857 54 717 103 767 54 b 997 186 947 54 997 103 "},"&":{"ha":918,"x_min":0,"x_max":0,"o":"m 147 768 b 217 936 147 833 171 889 b 399 1006 263 982 322 1006 b 575 938 469 1006 528 983 b 644 774 621 892 644 838 b 424 513 644 647 579 581 l 411 507 l 660 264 l 756 357 b 789 357 767 368 778 368 l 821 324 b 819 294 831 314 829 304 l 721 199 l 896 25 b 885 0 913 8 908 0 l 826 0 b 788 15 810 0 797 6 l 660 140 b 486 13 590 76 532 33 b 332 -19 439 -8 388 -19 b 138 58 254 -19 189 7 b 58 251 85 110 58 174 b 269 532 58 390 138 469 b 147 768 188 614 147 692 m 557 774 b 511 879 557 814 542 849 b 399 924 481 908 443 924 b 236 767 300 924 236 851 b 292 633 236 717 264 665 b 350 571 304 618 324 597 l 385 589 b 557 774 506 640 557 678 m 331 468 b 154 250 213 414 154 356 b 336 69 154 146 235 69 b 457 99 379 69 419 79 b 599 206 494 117 542 153 "},"'":{"ha":256,"x_min":0,"x_max":0,"o":"m 163 681 b 138 658 161 663 158 658 l 113 658 b 89 681 92 658 89 663 l 89 964 b 113 986 89 982 94 986 l 151 986 b 175 964 172 986 176 982 "},"(":{"ha":356,"x_min":0,"x_max":0,"o":"m 83 849 b 278 1168 83 1015 146 1108 b 311 1154 292 1175 303 1169 l 329 1118 b 315 1085 335 1106 331 1094 b 175 854 219 1039 175 976 l 175 132 b 315 -99 175 10 219 -53 b 329 -132 331 -108 336 -119 l 311 -168 b 278 -182 303 -183 292 -189 b 83 138 146 -122 83 -29 "},")":{"ha":356,"x_min":0,"x_max":0,"o":"m 53 1154 b 86 1168 61 1169 72 1175 b 281 849 218 1108 281 1015 l 281 138 b 86 -182 281 -29 218 -122 b 53 -168 72 -189 61 -183 l 35 -132 b 49 -99 29 -119 33 -108 b 189 132 144 -53 189 10 l 189 854 b 49 1085 189 976 144 1039 b 35 1118 33 1094 29 1106 "},"*":{"ha":526,"x_min":0,"x_max":0,"o":"m 285 935 b 300 918 297 935 303 929 l 289 772 l 425 826 b 449 818 435 832 443 829 l 457 790 b 444 769 460 779 456 772 l 301 736 l 396 622 b 394 600 406 615 404 607 l 369 583 b 347 588 360 575 353 576 l 271 711 l 193 589 b 169 582 189 578 181 575 l 146 600 b 143 624 136 607 135 615 l 239 736 l 99 771 b 86 790 86 772 82 778 l 94 819 b 117 828 100 829 107 832 l 251 772 l 242 918 b 256 935 239 929 243 935 "},"+":{"ha":788,"x_min":0,"x_max":0,"o":"m 694 499 b 721 471 713 499 721 489 l 721 438 b 694 411 721 417 715 411 l 438 411 l 438 154 b 410 126 438 133 431 126 l 376 126 b 349 154 356 126 349 133 l 349 411 l 93 411 b 65 438 72 411 65 417 l 65 471 b 93 499 65 492 72 499 l 349 499 l 349 754 b 376 782 349 775 356 782 l 410 782 b 438 754 431 782 438 775 l 438 499 "},",":{"ha":251,"x_min":0,"x_max":0,"o":"m 103 -143 b 72 -168 99 -160 88 -168 l 54 -168 b 38 -149 40 -168 35 -161 l 85 82 b 119 113 86 106 96 113 l 156 113 b 182 82 182 113 190 103 "},"-":{"ha":586,"x_min":0,"x_max":0,"o":"m 472 414 b 500 386 493 414 500 407 l 500 351 b 472 324 500 331 493 324 l 113 324 b 86 351 94 324 86 333 l 86 386 b 113 414 86 404 94 414 "},".":{"ha":258,"x_min":0,"x_max":0,"o":"m 133 111 b 188 56 176 111 188 99 l 188 47 b 133 -8 188 4 174 -8 l 125 -8 b 69 47 82 -8 69 4 l 69 56 b 125 111 69 99 82 111 "},"/":{"ha":567,"x_min":0,"x_max":0,"o":"m 150 -60 b 117 -83 143 -75 132 -83 l 71 -83 b 54 -60 54 -83 49 -75 l 433 964 b 468 986 439 979 450 986 l 514 986 b 531 964 531 986 536 979 "},":":{"ha":290,"x_min":0,"x_max":0,"o":"m 149 675 b 204 621 192 675 204 661 l 204 611 b 149 557 204 571 192 557 l 140 557 b 86 611 97 557 86 571 l 86 621 b 140 675 86 664 97 675 m 149 111 b 204 56 192 111 204 99 l 204 47 b 149 -8 204 7 192 -8 l 140 -8 b 86 47 97 -8 86 4 l 86 56 b 140 111 86 99 97 111 "},";":{"ha":329,"x_min":0,"x_max":0,"o":"m 183 675 b 239 621 226 675 239 661 l 239 611 b 183 557 239 571 226 557 l 175 557 b 121 611 132 557 121 571 l 121 621 b 175 675 121 664 132 675 m 142 -143 b 110 -168 136 -160 125 -168 l 93 -168 b 75 -149 76 -168 74 -164 l 122 82 b 158 113 126 106 135 113 l 194 113 b 221 82 218 113 228 103 "},"<":{"ha":690,"x_min":0,"x_max":0,"o":"m 575 774 b 606 753 596 783 606 776 l 606 717 b 578 671 606 689 601 682 l 169 457 l 169 453 l 578 238 b 606 192 601 226 606 221 l 606 153 b 575 132 606 129 596 122 l 72 404 b 50 440 57 413 50 425 l 50 465 b 72 501 50 481 57 493 "},"=":{"ha":831,"x_min":0,"x_max":0,"o":"m 715 636 b 743 610 733 636 743 628 l 743 574 b 715 546 743 553 736 546 l 114 546 b 88 574 96 546 88 556 l 88 610 b 114 636 88 628 96 636 m 715 363 b 743 335 736 363 743 356 l 743 299 b 715 271 743 278 736 271 l 114 271 b 88 299 96 271 88 281 l 88 335 b 114 363 88 353 96 363 "},">":{"ha":690,"x_min":0,"x_max":0,"o":"m 85 753 b 115 774 85 778 94 785 l 617 501 b 640 467 632 493 640 482 l 640 440 b 617 404 640 425 632 413 l 115 133 b 85 153 94 122 85 129 l 85 189 b 111 235 85 218 89 224 l 521 450 l 521 454 l 113 668 b 85 714 89 679 85 685 "},"?":{"ha":775,"x_min":0,"x_max":0,"o":"m 54 799 b 407 1028 114 951 232 1028 b 649 946 508 1028 589 1000 b 738 742 708 892 738 824 b 672 538 738 654 717 588 b 544 435 622 483 610 476 b 529 425 538 431 532 426 b 406 242 447 371 406 326 b 379 215 406 221 400 215 l 347 215 b 321 242 326 215 321 221 b 472 490 321 368 374 425 b 536 535 501 510 524 525 b 585 579 549 544 564 558 b 639 738 624 619 639 671 b 404 938 639 854 550 938 b 146 767 278 938 192 881 b 111 750 136 746 132 743 l 71 763 b 54 799 53 769 47 781 m 368 111 b 422 56 411 111 422 99 l 422 47 b 368 -8 422 4 408 -8 l 360 -8 b 304 47 317 -8 304 4 l 304 56 b 360 111 304 99 317 111 "},"@":{"ha":1251,"x_min":0,"x_max":0,"o":"m 67 456 b 214 858 67 625 115 760 b 622 1006 311 957 447 1006 b 1035 857 801 1006 939 956 b 1179 456 1131 758 1179 624 l 1179 356 b 1110 139 1179 263 1156 190 b 939 63 1064 88 1007 63 b 840 119 885 63 861 79 b 586 69 761 86 676 69 b 346 299 425 69 346 153 l 346 511 b 586 740 346 657 425 740 b 833 699 685 740 768 726 b 881 633 871 683 881 671 l 881 189 b 939 133 881 151 900 133 b 1104 354 1032 133 1104 206 l 1104 456 b 979 810 1104 604 1063 722 b 622 939 896 896 776 939 b 269 811 471 939 354 896 b 142 456 185 725 142 607 l 142 354 b 622 -115 142 53 317 -115 b 921 -78 703 -115 803 -103 b 936 -87 931 -75 936 -78 l 936 -125 b 921 -146 936 -136 931 -143 b 622 -183 833 -171 735 -183 b 67 356 268 -183 67 13 m 776 640 b 596 667 725 658 665 667 b 426 508 483 667 426 614 l 426 300 b 596 144 426 196 483 144 b 800 188 675 144 743 158 l 800 607 b 776 640 800 622 792 633 "},"A":{"ha":890,"x_min":0,"x_max":0,"o":"m 885 26 b 865 0 892 8 886 0 l 825 0 b 775 25 796 0 779 8 l 671 289 l 236 289 l 132 25 b 83 0 126 4 117 0 l 46 0 b 28 26 26 0 21 8 l 400 967 b 435 990 406 982 417 990 l 476 990 b 513 968 494 990 507 983 m 476 799 b 457 894 464 836 457 868 l 450 894 b 433 799 450 865 444 833 l 265 372 l 643 372 "},"B":{"ha":893,"x_min":0,"x_max":0,"o":"m 528 986 b 796 733 699 986 796 896 b 665 511 796 624 753 549 l 665 508 b 831 265 775 479 831 399 b 543 0 831 97 719 0 l 136 0 b 108 28 115 0 108 7 l 108 958 b 136 986 108 979 115 986 m 693 721 b 515 892 693 835 633 892 l 208 892 l 208 547 l 515 547 b 693 721 631 547 693 606 m 678 140 b 725 275 710 171 725 215 b 678 411 725 335 710 379 b 539 457 646 442 599 457 l 208 457 l 208 94 l 539 94 b 678 140 599 94 646 110 "},"C":{"ha":883,"x_min":0,"x_max":0,"o":"m 79 657 b 460 1006 79 875 214 1006 b 829 768 667 1006 779 928 b 813 732 836 747 833 739 l 769 717 b 733 733 751 713 740 718 b 460 913 694 857 617 913 b 181 658 278 913 181 819 l 181 328 b 460 74 181 168 281 74 b 736 257 619 74 697 131 b 772 275 743 274 756 279 l 815 258 b 832 224 832 251 838 240 b 460 -19 782 63 669 -19 b 79 329 217 -19 79 111 "},"D":{"ha":907,"x_min":0,"x_max":0,"o":"m 429 986 b 832 619 685 986 832 847 l 832 367 b 429 0 832 139 685 0 l 136 0 b 108 28 115 0 108 7 l 108 958 b 136 986 108 979 115 986 m 731 619 b 429 892 731 793 624 892 l 208 892 l 208 94 l 429 94 b 731 367 624 94 731 193 "},"E":{"ha":796,"x_min":0,"x_max":0,"o":"m 699 986 b 725 958 717 986 725 976 l 725 919 b 699 892 725 901 717 892 l 208 892 l 208 547 l 636 547 b 663 519 654 547 663 538 l 663 481 b 636 453 663 463 654 453 l 208 453 l 208 94 l 717 94 b 743 67 735 94 743 85 l 743 28 b 717 0 743 10 735 0 l 136 0 b 108 28 115 0 108 7 l 108 958 b 136 986 108 979 115 986 "},"F":{"ha":771,"x_min":0,"x_max":0,"o":"m 699 986 b 725 958 717 986 725 976 l 725 919 b 699 892 725 901 717 892 l 208 892 l 208 532 l 631 532 b 657 506 651 532 657 526 l 657 467 b 631 439 657 449 649 439 l 208 439 l 208 28 b 182 0 208 7 203 0 l 136 0 b 108 28 115 0 108 7 l 108 958 b 136 986 108 979 115 986 "},"G":{"ha":910,"x_min":0,"x_max":0,"o":"m 814 511 b 842 483 835 511 842 504 l 842 313 b 461 -19 842 108 704 -19 b 79 331 215 -19 79 113 l 79 657 b 460 1006 79 875 214 1006 b 829 768 667 1006 779 928 b 813 732 836 747 833 739 l 769 717 b 733 733 751 713 740 718 b 460 913 694 857 617 913 b 179 658 276 913 179 819 l 179 331 b 461 74 179 168 279 74 b 743 313 640 74 743 167 l 743 417 l 475 417 b 447 444 454 417 447 424 l 447 483 b 475 511 447 504 454 511 "},"H":{"ha":946,"x_min":0,"x_max":0,"o":"m 811 986 b 838 958 829 986 838 976 l 838 28 b 811 0 838 10 829 0 l 765 0 b 738 28 744 0 738 7 l 738 453 l 208 453 l 208 28 b 182 0 208 7 203 0 l 136 0 b 108 28 115 0 108 7 l 108 958 b 136 986 108 979 115 986 l 182 986 b 208 958 203 986 208 979 l 208 547 l 738 547 l 738 958 b 765 986 738 979 744 986 "},"I":{"ha":317,"x_min":0,"x_max":0,"o":"m 108 958 b 136 986 108 979 115 986 l 182 986 b 208 958 203 986 208 979 l 208 28 b 182 0 208 7 203 0 l 136 0 b 108 28 115 0 108 7 "},"J":{"ha":792,"x_min":0,"x_max":0,"o":"m 674 986 b 701 960 692 986 701 978 l 701 310 b 365 -21 701 103 581 -21 b 38 239 189 -21 79 65 b 54 275 31 257 36 268 l 99 290 b 133 272 115 297 126 290 b 365 74 163 140 232 74 b 600 308 517 74 600 160 l 600 960 b 626 986 600 981 606 986 "},"K":{"ha":846,"x_min":0,"x_max":0,"o":"m 818 28 b 803 0 828 10 824 0 l 758 0 b 703 25 724 0 714 4 l 549 333 b 350 454 504 422 457 454 l 208 454 l 208 28 b 182 0 208 7 203 0 l 136 0 b 108 28 115 0 108 7 l 108 958 b 136 986 108 979 115 986 l 182 986 b 208 958 203 986 208 979 l 208 546 l 342 546 l 372 546 l 683 963 b 739 986 696 978 714 986 l 789 986 b 803 960 810 986 814 972 l 474 526 b 642 371 543 507 599 456 "},"L":{"ha":724,"x_min":0,"x_max":0,"o":"m 182 986 b 208 958 203 986 208 979 l 208 94 l 679 94 b 706 67 697 94 706 85 l 706 28 b 679 0 706 10 697 0 l 136 0 b 108 28 115 0 108 7 l 108 958 b 136 986 108 979 115 986 "},"M":{"ha":1111,"x_min":0,"x_max":0,"o":"m 976 986 b 1004 958 997 986 1004 979 l 1004 28 b 976 0 1004 7 997 0 l 935 0 b 907 28 914 0 907 7 l 908 594 b 925 840 908 679 914 761 l 919 840 b 813 624 890 769 854 697 l 601 251 b 569 231 594 238 585 231 l 542 231 b 508 251 526 231 515 238 l 294 628 b 193 842 260 686 226 757 l 188 842 b 203 593 197 757 203 675 l 203 28 b 175 0 203 7 196 0 l 136 0 b 108 28 115 0 108 7 l 108 958 b 136 986 108 979 115 986 l 172 986 b 211 964 190 986 203 979 l 556 354 l 897 963 b 936 986 908 983 914 986 "},"N":{"ha":960,"x_min":0,"x_max":0,"o":"m 824 986 b 851 958 844 986 851 979 l 851 28 b 824 0 851 7 844 0 l 779 0 b 750 15 765 0 756 6 l 307 651 b 240 768 288 681 265 719 b 196 850 215 817 200 843 l 190 850 b 199 751 190 843 193 810 b 206 604 203 693 206 644 l 206 28 b 179 0 206 10 197 0 l 136 0 b 108 28 115 0 108 7 l 108 958 b 136 986 108 979 115 986 l 181 986 b 210 972 193 986 203 982 l 642 349 b 715 228 663 318 688 278 b 765 139 742 178 758 149 l 769 139 b 761 244 769 149 767 183 b 753 397 756 304 753 356 l 753 960 b 781 986 753 978 763 986 "},"O":{"ha":921,"x_min":0,"x_max":0,"o":"m 79 657 b 461 1006 79 875 215 1006 b 842 657 706 1006 842 875 l 842 329 b 461 -19 842 111 706 -19 b 79 329 215 -19 79 111 m 742 657 b 461 913 742 819 643 913 b 179 657 279 913 179 819 l 179 329 b 461 74 179 167 279 74 b 742 329 643 74 742 167 "},"P":{"ha":864,"x_min":0,"x_max":0,"o":"m 507 986 b 821 678 701 986 821 871 b 507 371 821 485 701 371 l 208 371 l 208 28 b 182 0 208 7 203 0 l 136 0 b 108 28 115 0 108 7 l 108 958 b 136 986 108 979 115 986 m 499 464 b 717 678 633 464 717 544 b 499 892 717 811 633 892 l 208 892 l 208 464 "},"Q":{"ha":938,"x_min":0,"x_max":0,"o":"m 857 -21 b 854 -60 868 -35 867 -47 l 824 -85 b 785 -82 810 -97 797 -97 l 685 36 b 461 -19 628 -1 554 -19 b 79 329 215 -19 79 111 l 79 657 b 461 1006 79 875 215 1006 b 842 657 706 1006 842 875 l 842 329 b 761 92 842 232 815 153 m 179 329 b 461 74 179 167 279 74 b 742 329 643 74 742 167 l 742 657 b 461 913 742 819 643 913 b 179 657 279 913 179 819 "},"R":{"ha":894,"x_min":0,"x_max":0,"o":"m 529 986 b 821 699 713 986 821 881 b 597 426 821 547 738 449 b 688 331 633 410 664 378 l 843 28 b 829 0 856 10 850 0 l 783 0 b 729 25 754 0 736 8 l 594 293 b 396 414 550 382 503 414 l 208 414 l 208 28 b 182 0 208 7 203 0 l 136 0 b 108 28 115 0 108 7 l 108 958 b 136 986 108 979 115 986 m 717 699 b 519 892 717 822 646 892 l 208 892 l 208 508 l 519 508 b 717 699 643 508 717 576 "},"S":{"ha":869,"x_min":0,"x_max":0,"o":"m 81 721 b 439 1006 81 894 213 1006 b 804 792 628 1006 732 940 b 789 756 813 776 807 764 l 746 736 b 710 749 728 729 721 731 b 439 910 654 860 576 910 b 183 726 274 910 183 844 b 308 575 189 640 228 599 b 471 544 364 557 399 551 b 664 504 553 535 596 529 b 746 458 699 492 725 476 b 819 272 786 422 819 357 b 442 -19 819 89 686 -19 b 65 219 243 -19 131 57 b 82 257 60 238 65 250 l 125 272 b 161 256 140 278 153 272 b 442 75 213 135 306 75 b 718 269 626 75 718 140 b 603 419 713 356 676 396 b 447 447 550 436 515 440 b 342 461 404 451 368 457 b 246 488 315 465 283 475 b 158 533 208 500 179 515 b 81 721 115 569 81 633 "},"T":{"ha":754,"x_min":0,"x_max":0,"o":"m 708 986 b 736 958 729 986 736 979 l 736 919 b 708 892 736 899 729 892 l 428 892 l 428 28 b 400 0 428 7 421 0 l 354 0 b 326 28 333 0 326 7 l 326 892 l 46 892 b 18 919 25 892 18 899 l 18 958 b 46 986 18 979 25 986 "},"U":{"ha":947,"x_min":0,"x_max":0,"o":"m 201 335 b 474 74 201 169 294 74 b 746 335 653 74 746 169 l 746 958 b 774 986 746 979 753 986 l 819 986 b 847 958 840 986 847 979 l 847 336 b 474 -21 847 114 717 -21 b 100 336 231 -21 100 114 l 100 958 b 128 986 100 979 107 986 l 174 986 b 201 958 194 986 201 979 "},"V":{"ha":864,"x_min":0,"x_max":0,"o":"m 840 986 b 858 960 858 986 864 978 l 500 24 b 464 0 493 8 482 0 l 422 0 b 386 22 404 0 393 7 l 29 960 b 47 986 22 978 28 986 l 88 986 b 138 961 115 986 132 978 l 410 232 b 429 167 415 215 422 193 b 443 121 436 140 442 125 l 447 121 b 461 167 449 125 454 140 b 479 232 468 193 474 215 l 751 961 b 800 986 756 978 772 986 "},"W":{"ha":1224,"x_min":0,"x_max":0,"o":"m 1178 986 b 1196 960 1196 986 1201 978 l 949 24 b 913 0 944 8 932 0 l 869 0 b 833 22 849 0 838 7 l 649 694 b 621 831 639 733 629 779 l 615 831 b 588 696 611 793 601 747 l 400 24 b 365 0 396 8 383 0 l 321 0 b 286 22 301 0 290 7 l 38 960 b 56 986 33 978 40 986 l 111 986 b 149 961 135 986 143 982 l 318 290 b 333 207 322 274 326 246 b 343 142 339 168 342 146 l 349 142 b 378 290 361 218 371 268 l 563 946 b 600 971 567 963 579 971 l 643 971 b 681 946 664 971 676 963 l 863 289 b 893 142 869 267 879 218 l 899 142 b 924 288 908 208 917 257 l 1093 961 b 1129 986 1097 982 1106 986 "},"X":{"ha":857,"x_min":0,"x_max":0,"o":"m 836 29 b 822 0 847 14 844 0 l 767 0 b 714 25 733 0 725 3 l 428 424 l 146 25 b 93 0 133 3 125 0 l 40 0 b 28 29 19 0 17 14 l 367 501 l 38 960 b 51 986 28 972 33 986 l 107 986 b 160 963 136 986 144 983 l 432 581 l 706 963 b 756 986 718 983 726 986 l 811 986 b 825 960 829 986 835 972 l 494 501 "},"Y":{"ha":871,"x_min":0,"x_max":0,"o":"m 839 986 b 853 958 857 986 864 974 l 490 400 l 490 28 b 463 0 490 7 483 0 l 417 0 b 389 28 396 0 389 7 l 389 401 l 26 958 b 40 986 15 974 22 986 l 97 986 b 150 961 131 986 139 983 l 440 504 l 733 961 b 786 986 744 983 753 986 "},"Z":{"ha":786,"x_min":0,"x_max":0,"o":"m 703 986 b 731 958 724 986 731 979 l 731 921 b 721 890 731 910 728 900 l 171 94 l 717 94 b 744 68 735 94 744 86 l 744 28 b 717 0 744 7 738 0 l 72 0 b 46 28 54 0 46 10 l 46 65 b 56 97 46 79 49 90 l 604 892 l 79 892 b 51 919 58 892 51 899 l 51 958 b 79 986 51 979 58 986 "},"[":{"ha":378,"x_min":0,"x_max":0,"o":"m 332 1189 b 356 1164 353 1189 356 1185 l 356 1129 b 332 1104 356 1108 353 1104 l 183 1104 l 183 -118 l 332 -118 b 356 -142 353 -118 356 -124 l 356 -178 b 332 -203 356 -199 353 -203 l 118 -203 b 93 -178 97 -203 93 -199 l 93 1164 b 118 1189 93 1185 97 1189 "},"\\":{"ha":567,"x_min":0,"x_max":0,"o":"m 53 963 b 69 986 47 978 53 986 l 117 986 b 150 963 132 986 143 978 l 531 -60 b 514 -83 536 -75 531 -83 l 467 -83 b 433 -60 451 -83 440 -75 "},"]":{"ha":378,"x_min":0,"x_max":0,"o":"m 260 1189 b 285 1164 281 1189 285 1185 l 285 -178 b 260 -203 285 -199 281 -203 l 47 -203 b 22 -178 26 -203 22 -199 l 22 -142 b 47 -118 22 -121 26 -118 l 194 -118 l 194 1104 l 47 1104 b 22 1129 26 1104 22 1108 l 22 1164 b 47 1189 22 1185 26 1189 "},"^":{"ha":822,"x_min":0,"x_max":0,"o":"m 446 1125 b 481 1103 467 1125 465 1118 l 769 753 b 756 722 788 732 782 722 l 714 722 b 664 744 685 722 679 724 l 435 1029 l 429 1029 l 201 744 b 151 722 186 724 181 722 l 113 722 b 99 753 88 722 83 732 l 385 1103 b 419 1125 397 1118 408 1125 "},"_":{"ha":703,"x_min":0,"x_max":0,"o":"m 638 0 b 665 -28 658 0 665 -7 l 665 -62 b 638 -90 665 -83 658 -90 l 64 -90 b 38 -62 46 -90 38 -81 l 38 -28 b 64 0 38 -10 46 0 "},"`":{"ha":357,"x_min":0,"x_max":0,"o":"m 57 1006 b 103 1007 67 1018 82 1019 l 328 868 b 331 840 339 861 340 853 l 317 824 b 285 822 310 817 300 815 l 40 951 b 36 981 22 957 24 965 "},"a":{"ha":711,"x_min":0,"x_max":0,"o":"m 75 589 b 354 735 126 686 219 735 b 632 460 560 735 632 628 l 632 96 b 582 17 632 47 621 33 b 351 -19 526 -7 450 -19 b 115 33 236 -19 158 -3 b 51 196 72 68 51 122 b 357 411 51 353 136 411 b 539 397 394 411 456 407 l 539 461 b 351 651 539 582 492 651 b 157 550 260 651 194 618 b 122 539 147 536 135 532 l 89 553 b 75 589 71 560 67 571 m 539 321 b 347 333 456 329 392 333 b 147 197 201 333 147 293 b 344 58 147 103 190 58 b 513 81 415 58 471 65 b 539 121 535 90 539 94 "},"b":{"ha":746,"x_min":0,"x_max":0,"o":"m 158 1028 b 183 1003 175 1028 183 1019 l 183 692 b 403 735 269 721 343 735 b 676 463 585 735 676 644 l 676 265 b 378 -19 676 75 576 -19 b 143 22 282 -19 204 -6 b 89 99 99 43 89 54 l 89 1003 b 114 1028 89 1019 97 1028 m 583 460 b 390 649 583 586 519 649 b 183 604 324 649 254 633 l 183 129 b 208 93 183 107 186 103 b 371 65 254 75 308 65 b 583 267 513 65 583 132 "},"c":{"ha":715,"x_min":0,"x_max":0,"o":"m 68 461 b 371 735 68 633 171 735 b 661 547 526 735 624 672 b 644 511 667 529 661 518 l 608 499 b 574 515 592 493 581 499 b 368 651 544 610 485 651 b 161 464 233 651 161 582 l 161 251 b 368 63 161 133 235 63 b 575 206 476 63 546 110 b 611 222 582 221 593 226 l 647 211 b 664 175 665 204 671 193 b 365 -19 621 46 522 -19 b 68 254 171 -19 68 82 "},"d":{"ha":746,"x_min":0,"x_max":0,"o":"m 69 457 b 343 735 69 635 160 735 b 563 694 411 735 485 721 l 563 1003 b 588 1028 563 1019 571 1028 l 631 1028 b 656 1003 649 1028 656 1021 l 656 97 b 601 22 656 53 646 40 b 361 -19 536 -6 456 -19 b 69 258 167 -19 69 74 m 563 607 b 360 649 492 635 424 649 b 163 454 228 649 163 583 l 163 260 b 369 65 163 131 232 65 b 536 92 432 65 488 74 b 563 128 558 101 563 106 "},"e":{"ha":736,"x_min":0,"x_max":0,"o":"m 65 442 b 372 735 65 626 172 735 b 681 447 574 735 681 621 l 681 371 b 639 332 681 344 667 332 l 158 332 l 158 251 b 367 61 158 131 232 61 b 585 176 469 61 542 100 b 625 186 596 192 610 194 l 654 171 b 664 131 672 161 675 149 b 367 -19 608 31 510 -19 b 65 261 165 -19 65 88 m 588 453 b 372 654 588 579 513 654 b 158 453 233 654 158 579 l 158 404 l 588 404 "},"f":{"ha":490,"x_min":0,"x_max":0,"o":"m 451 1028 b 476 1003 472 1028 476 1021 l 476 967 b 451 940 476 949 468 940 b 296 900 375 940 324 926 b 253 749 267 874 253 822 l 253 714 l 454 714 b 479 689 475 714 479 707 l 479 653 b 454 628 479 636 471 628 l 253 628 l 253 25 b 228 0 253 7 246 0 l 185 0 b 160 25 168 0 160 8 l 160 628 l 36 628 b 11 653 19 628 11 636 l 11 689 b 36 714 11 707 18 714 l 160 714 l 160 749 b 440 1028 160 947 240 1024 "},"g":{"ha":744,"x_min":0,"x_max":0,"o":"m 68 450 b 368 735 68 640 168 735 b 603 693 458 735 536 721 b 656 617 647 672 656 663 l 656 -43 b 363 -343 656 -243 558 -343 b 88 -194 233 -343 142 -293 b 97 -153 75 -176 79 -162 l 128 -137 b 168 -147 144 -128 158 -132 b 360 -258 208 -221 272 -258 b 563 -47 494 -258 563 -187 l 563 39 b 343 -3 488 11 414 -3 b 68 268 160 -3 68 88 m 536 622 b 374 649 489 640 435 649 b 163 449 233 649 163 582 l 163 271 b 354 83 163 146 226 83 b 563 124 422 83 492 97 l 563 586 b 536 622 563 608 560 613 "},"h":{"ha":765,"x_min":0,"x_max":0,"o":"m 161 1028 b 186 1003 179 1028 186 1021 l 186 696 b 404 735 243 722 317 735 b 681 463 589 735 681 644 l 681 25 b 656 0 681 8 672 0 l 611 0 b 586 25 594 0 586 8 l 586 460 b 392 649 586 586 521 649 b 186 608 308 649 240 635 l 186 25 b 161 0 186 7 179 0 l 118 0 b 93 25 97 0 93 7 l 93 1003 b 118 1028 93 1021 97 1028 "},"i":{"ha":278,"x_min":0,"x_max":0,"o":"m 143 969 b 194 918 182 969 194 957 l 194 908 b 143 857 194 869 182 857 l 135 857 b 83 908 96 857 83 869 l 83 918 b 135 969 83 957 96 969 m 161 714 b 186 689 178 714 186 706 l 186 25 b 161 0 186 8 178 0 l 117 0 b 92 25 100 0 92 8 l 92 689 b 117 714 92 706 100 714 "},"j":{"ha":279,"x_min":0,"x_max":0,"o":"m 143 969 b 196 918 183 969 196 957 l 196 908 b 143 857 196 869 183 857 l 136 857 b 83 908 96 857 83 869 l 83 918 b 136 969 83 957 96 969 m 161 714 b 186 689 179 714 186 707 l 186 -12 b -103 -319 186 -214 101 -319 b -128 -294 -121 -319 -128 -312 l -128 -258 b -103 -232 -128 -240 -119 -232 b 93 -11 42 -232 93 -160 l 93 689 b 118 714 93 707 97 714 "},"k":{"ha":704,"x_min":0,"x_max":0,"o":"m 671 29 b 656 0 682 8 678 0 l 614 0 b 571 22 586 0 581 4 l 465 239 b 331 324 438 299 399 324 l 186 324 l 186 26 b 160 0 186 6 181 0 l 119 0 b 93 26 99 0 93 6 l 93 1003 b 119 1028 93 1024 99 1028 l 160 1028 b 186 1003 181 1028 186 1024 l 186 410 l 319 410 l 332 410 l 556 694 b 604 714 568 713 575 714 l 643 714 b 660 685 668 714 674 704 l 425 392 b 546 279 475 379 515 342 "},"l":{"ha":288,"x_min":0,"x_max":0,"o":"m 190 25 b 165 0 190 7 186 0 l 122 0 b 97 25 104 0 97 7 l 97 1003 b 122 1028 97 1021 104 1028 l 165 1028 b 190 1003 186 1028 190 1021 "},"m":{"ha":1135,"x_min":0,"x_max":0,"o":"m 543 675 b 794 735 631 715 715 735 b 1049 471 964 735 1049 647 l 1049 25 b 1024 0 1049 7 1044 0 l 981 0 b 956 25 963 0 956 7 l 956 467 b 783 649 956 588 899 649 b 594 601 718 649 654 633 b 621 471 613 567 621 524 l 621 25 b 596 0 621 7 617 0 l 553 0 b 528 25 535 0 528 7 l 528 467 b 351 649 528 588 469 649 b 206 621 297 649 249 639 b 183 583 190 614 183 601 l 183 25 b 158 0 183 8 175 0 l 114 0 b 89 25 97 0 89 8 l 89 611 b 142 690 89 654 101 672 b 364 735 208 719 282 735 b 543 675 442 735 501 715 "},"n":{"ha":763,"x_min":0,"x_max":0,"o":"m 142 688 b 400 735 218 719 304 735 b 676 463 585 735 676 644 l 676 25 b 651 0 676 8 668 0 l 608 0 b 583 25 590 0 583 7 l 583 460 b 389 649 583 586 518 649 b 204 618 324 649 261 639 b 183 583 190 611 183 600 l 183 25 b 158 0 183 8 175 0 l 114 0 b 89 25 97 0 89 8 l 89 611 b 142 688 89 654 99 669 "},"o":{"ha":749,"x_min":0,"x_max":0,"o":"m 69 479 b 374 735 69 639 185 735 b 681 479 564 735 681 639 l 681 235 b 374 -19 681 75 564 -19 b 69 235 185 -19 69 78 m 586 479 b 374 650 586 585 506 650 b 163 479 244 650 163 585 l 163 235 b 374 65 163 129 246 65 b 586 235 506 65 586 129 "},"p":{"ha":746,"x_min":0,"x_max":0,"o":"m 144 694 b 388 735 213 721 293 735 b 676 457 581 735 676 642 l 676 257 b 392 -19 676 72 582 -19 b 183 28 332 -19 263 -4 l 183 -281 b 158 -306 183 -297 175 -306 l 114 -306 b 89 -281 97 -306 89 -297 l 89 617 b 144 694 89 661 100 676 m 583 454 b 376 649 583 583 514 649 b 210 622 314 649 258 640 b 183 585 186 613 183 607 l 183 114 b 385 65 251 82 318 65 b 583 260 517 65 583 131 "},"q":{"ha":746,"x_min":0,"x_max":0,"o":"m 368 735 b 603 693 460 735 538 721 b 656 617 647 672 656 663 l 656 -281 b 631 -306 656 -299 649 -306 l 588 -306 b 563 -281 571 -306 563 -297 l 563 29 b 343 -19 483 -3 410 -19 b 69 251 161 -19 69 71 l 69 450 b 368 735 69 640 169 735 m 163 253 b 356 65 163 128 226 65 b 563 114 424 65 492 82 l 563 585 b 535 622 563 607 558 613 b 374 649 488 640 433 649 b 163 449 233 649 163 582 "},"r":{"ha":475,"x_min":0,"x_max":0,"o":"m 393 735 l 436 735 b 461 710 453 735 461 726 l 461 674 b 436 649 461 657 453 649 l 390 649 b 207 619 321 649 260 639 b 183 583 192 613 183 601 l 183 25 b 158 0 183 8 175 0 l 114 0 b 89 25 97 0 89 8 l 89 614 b 142 692 89 657 101 674 b 393 735 213 718 296 733 "},"s":{"ha":689,"x_min":0,"x_max":0,"o":"m 75 526 b 349 735 75 656 171 735 b 632 583 493 735 588 685 b 619 547 642 567 638 554 l 585 532 b 550 544 569 525 558 529 b 350 650 518 615 465 650 b 168 529 229 650 168 610 b 253 418 174 463 194 433 b 378 399 294 407 317 404 b 568 351 463 392 514 379 b 649 193 622 322 649 271 b 364 -19 649 60 551 -19 b 64 153 208 -19 108 38 b 79 186 57 169 61 181 l 115 199 b 149 183 131 203 142 199 b 361 63 179 103 250 63 b 557 189 492 63 557 104 b 356 317 557 279 496 301 b 199 346 285 324 254 328 b 132 381 169 356 147 367 b 75 526 100 408 75 458 "},"t":{"ha":499,"x_min":0,"x_max":0,"o":"m 232 881 b 257 856 253 881 257 874 l 257 714 l 458 714 b 483 689 475 714 483 706 l 483 653 b 458 628 483 636 475 628 l 257 628 l 257 267 b 299 108 257 186 271 133 b 456 69 325 82 378 69 b 481 43 472 69 481 61 l 481 6 b 456 -19 481 -12 474 -19 b 229 39 347 -21 272 -3 b 164 264 186 79 164 154 l 164 628 l 32 628 b 7 653 15 628 7 636 l 7 689 b 32 714 7 706 15 714 l 164 714 l 164 856 b 189 881 164 872 172 881 "},"u":{"ha":763,"x_min":0,"x_max":0,"o":"m 649 714 b 674 689 665 714 674 706 l 674 103 b 621 26 674 60 664 44 b 361 -19 547 -4 460 -19 b 86 251 178 -19 86 71 l 86 689 b 111 714 86 707 93 714 l 154 714 b 179 689 175 714 179 707 l 179 256 b 374 65 179 129 244 65 b 554 96 443 65 503 75 b 579 135 571 103 579 117 l 579 689 b 604 714 579 706 588 714 "},"v":{"ha":700,"x_min":0,"x_max":0,"o":"m 661 714 b 681 686 685 714 690 708 l 403 19 b 368 -4 396 4 383 -4 l 342 -4 b 306 19 324 -4 313 4 l 28 685 b 49 714 18 708 22 714 l 81 714 b 124 689 110 714 117 710 l 314 231 b 338 160 321 213 328 189 b 353 110 346 131 351 114 l 357 110 b 372 160 358 114 364 131 b 394 229 381 188 388 211 l 583 689 b 628 714 590 710 599 714 "},"w":{"ha":1015,"x_min":0,"x_max":0,"o":"m 965 714 b 986 685 989 714 993 707 l 781 18 b 747 -4 776 3 765 -4 l 718 -4 b 683 18 700 -4 688 3 l 540 472 b 524 543 535 492 529 515 b 513 590 517 571 514 586 l 508 590 b 497 542 507 586 503 569 b 481 472 492 514 486 490 l 338 18 b 304 -4 333 3 322 -4 l 275 -4 b 242 18 257 -4 246 3 l 38 685 b 58 714 31 707 35 714 l 90 714 b 133 689 119 714 129 710 l 260 258 b 278 178 264 240 271 213 b 290 114 285 142 289 121 l 294 114 b 310 176 296 119 301 140 b 329 260 317 213 324 240 l 463 674 b 503 699 468 694 474 699 l 524 699 b 564 674 551 699 557 694 l 696 264 b 718 178 703 243 710 214 b 732 114 725 142 731 121 l 736 114 b 749 175 738 119 742 140 b 768 261 756 210 761 239 l 893 689 b 938 714 899 711 906 714 "},"x":{"ha":676,"x_min":0,"x_max":0,"o":"m 639 714 b 656 686 663 714 668 704 l 418 367 l 671 28 b 653 0 683 10 678 0 l 611 0 b 567 21 590 0 576 7 l 358 300 l 151 21 b 107 0 143 7 128 0 l 68 0 b 50 28 42 0 36 10 l 303 367 l 61 686 b 81 714 49 704 56 714 l 119 714 b 165 693 140 714 156 707 l 360 435 l 554 693 b 597 714 567 711 571 714 "},"y":{"ha":765,"x_min":0,"x_max":0,"o":"m 650 714 b 675 689 667 714 675 706 l 675 -43 b 379 -343 675 -243 576 -343 b 103 -194 249 -343 157 -293 b 113 -153 92 -176 94 -162 l 143 -137 b 183 -147 160 -128 174 -132 b 378 -258 224 -221 288 -258 b 581 -47 513 -258 581 -187 l 581 35 b 363 -1 499 11 426 -1 b 88 269 179 -1 88 89 l 88 689 b 113 714 88 707 94 714 l 156 714 b 181 689 176 714 181 707 l 181 274 b 375 83 181 147 246 83 b 581 121 435 83 503 96 l 581 689 b 606 714 581 706 589 714 "},"z":{"ha":632,"x_min":0,"x_max":0,"o":"m 565 85 b 590 60 582 85 590 76 l 590 25 b 565 0 590 8 582 0 l 68 0 b 43 25 47 0 43 7 l 43 60 b 51 88 43 71 46 81 l 464 629 l 72 629 b 49 654 57 629 49 638 l 49 689 b 72 714 49 707 54 714 l 558 714 b 583 689 576 714 583 707 l 583 654 b 574 625 583 643 581 633 l 161 85 "},"{":{"ha":444,"x_min":0,"x_max":0,"o":"m 400 1189 b 425 1164 417 1189 425 1181 l 425 1128 b 400 1103 425 1111 417 1103 l 338 1103 b 247 1006 278 1103 247 1071 l 247 660 b 153 492 247 575 215 518 b 247 322 215 468 247 413 l 247 -21 b 338 -118 247 -86 278 -118 l 400 -118 b 425 -143 417 -118 425 -126 l 425 -179 b 400 -204 425 -196 417 -204 l 336 -204 b 157 -26 207 -204 157 -150 l 157 310 b 43 443 157 399 119 443 l 29 443 b 8 468 15 443 8 451 l 8 514 b 29 539 8 531 15 539 l 43 539 b 157 672 119 539 157 583 l 157 1010 b 335 1189 157 1133 207 1189 "},"|":{"ha":276,"x_min":0,"x_max":0,"o":"m 157 1189 b 182 1164 178 1189 182 1182 l 182 -179 b 157 -204 182 -200 178 -204 l 118 -204 b 93 -179 101 -204 93 -196 l 93 1164 b 118 1189 93 1181 101 1189 "},"}":{"ha":444,"x_min":0,"x_max":0,"o":"m 110 1189 b 288 1010 238 1189 288 1133 l 288 672 b 401 539 288 583 325 539 l 415 539 b 436 514 429 539 436 531 l 436 468 b 415 443 436 451 429 443 l 401 443 b 288 310 325 443 288 399 l 288 -26 b 108 -204 288 -150 238 -204 l 44 -204 b 19 -179 28 -204 19 -196 l 19 -143 b 44 -118 19 -126 28 -118 l 107 -118 b 197 -21 167 -118 197 -86 l 197 322 b 292 492 197 413 229 468 b 197 660 229 518 197 575 l 197 1006 b 107 1103 197 1071 167 1103 l 44 1103 b 19 1128 28 1103 19 1111 l 19 1164 b 44 1189 19 1181 28 1189 "},"~":{"ha":778,"x_min":0,"x_max":0,"o":"m 115 451 b 281 519 165 497 221 519 b 413 492 318 519 363 510 b 528 463 461 472 500 463 b 642 510 569 463 607 478 b 678 508 657 525 665 524 l 704 485 b 704 446 718 471 718 458 b 538 378 653 400 597 378 b 407 407 500 378 456 388 b 292 435 358 425 319 435 b 178 388 251 435 214 419 b 142 389 165 376 154 376 l 115 413 b 115 451 103 426 103 439 "},"¡":{"ha":272,"x_min":0,"x_max":0,"o":"m 132 600 b 78 656 92 600 78 613 l 78 664 b 132 719 78 707 89 719 l 140 719 b 196 664 183 719 196 704 l 196 656 b 140 600 196 615 183 600 m 113 -317 b 88 -292 96 -317 88 -308 l 99 453 b 124 478 100 469 108 478 l 149 478 b 174 453 165 478 174 469 l 186 -292 b 161 -317 186 -308 178 -317 "},"¢":{"ha":742,"x_min":0,"x_max":0,"o":"m 656 211 b 672 175 674 204 679 193 b 424 -15 635 58 553 -6 l 424 -92 b 399 -117 424 -108 415 -117 l 354 -117 b 329 -92 338 -117 329 -108 l 329 -17 b 75 254 164 -4 75 94 l 75 461 b 329 731 75 617 163 715 l 329 822 b 354 847 329 839 338 847 l 399 847 b 424 822 415 847 424 839 l 424 731 b 669 547 553 721 635 660 b 653 511 675 529 669 518 l 617 499 b 581 515 600 493 588 499 b 375 651 553 610 492 651 b 169 464 240 651 169 582 l 169 251 b 375 63 169 133 242 63 b 583 206 485 63 554 110 b 618 222 589 221 600 226 "},"£":{"ha":882,"x_min":0,"x_max":0,"o":"m 192 740 b 492 1006 192 894 296 1006 b 810 792 657 1006 756 940 b 792 757 815 775 810 764 l 750 742 b 714 758 728 735 725 738 b 494 913 671 871 607 913 b 297 736 363 913 297 842 l 297 514 l 654 514 b 682 486 675 514 682 507 l 682 453 b 654 426 682 435 672 426 l 297 426 l 297 238 b 228 89 297 171 274 121 l 228 85 b 407 94 294 92 354 94 l 779 94 b 807 67 800 94 807 88 l 807 28 b 779 0 807 7 800 0 l 81 0 b 54 28 60 0 54 7 l 54 68 b 71 90 54 83 60 90 l 94 90 b 192 236 163 97 192 160 l 192 426 l 93 426 b 67 453 72 426 67 432 l 67 486 b 93 514 67 507 72 514 l 192 514 "},"¤":{"ha":835,"x_min":0,"x_max":0,"o":"m 761 208 b 761 172 772 197 772 185 l 731 143 b 694 143 718 131 706 131 l 619 217 b 433 151 565 174 504 151 b 249 215 365 151 303 172 l 175 140 b 139 140 163 128 150 128 l 108 171 b 108 206 97 183 97 194 l 183 282 b 118 467 140 336 118 397 b 182 651 118 538 139 599 l 107 726 b 107 763 96 739 96 751 l 138 793 b 172 793 150 806 161 806 l 247 718 b 433 782 301 761 364 782 b 618 719 504 782 565 761 l 692 794 b 728 794 704 806 717 806 l 758 764 b 758 729 769 753 769 742 l 685 654 b 749 467 728 600 749 538 b 686 282 749 396 728 335 m 433 696 b 272 631 371 696 317 674 b 204 468 228 586 206 532 b 272 306 206 404 228 350 b 433 238 317 260 371 238 b 596 306 497 238 551 260 b 663 468 640 350 663 404 b 597 631 663 532 640 586 b 433 696 553 674 499 696 "},"¥":{"ha":886,"x_min":0,"x_max":0,"o":"m 833 986 b 847 958 853 986 857 976 l 536 486 l 707 486 b 731 461 722 486 731 478 l 731 436 b 707 411 731 419 722 411 l 497 411 l 497 285 l 707 285 b 731 260 722 285 731 276 l 731 235 b 707 210 731 218 722 210 l 497 210 l 497 28 b 471 0 497 10 489 0 l 425 0 b 397 28 404 0 397 7 l 397 210 l 186 210 b 163 235 171 210 163 218 l 163 260 b 186 285 163 276 171 285 l 397 285 l 397 411 l 186 411 b 163 436 171 411 163 419 l 163 461 b 186 486 163 478 171 486 l 361 486 l 49 958 b 63 986 38 974 44 986 l 113 986 b 165 961 146 986 154 983 l 450 519 l 733 961 b 786 986 744 983 753 986 "},"¦":{"ha":289,"x_min":0,"x_max":0,"o":"m 164 1189 b 189 1164 181 1189 189 1181 l 189 624 b 164 599 189 607 181 599 l 125 599 b 100 624 107 599 100 603 l 100 1164 b 125 1189 100 1182 107 1189 m 164 388 b 189 363 181 388 189 379 l 189 -178 b 164 -203 189 -194 181 -203 l 125 -203 b 100 -178 107 -203 100 -196 l 100 363 b 125 388 100 383 107 388 "},"§":{"ha":828,"x_min":0,"x_max":0,"o":"m 93 757 b 419 1013 93 911 203 1013 b 754 790 586 1013 697 939 b 739 751 763 772 757 760 l 700 733 b 661 749 682 726 669 731 b 419 917 619 861 539 917 b 196 757 271 917 196 864 b 300 624 203 679 231 644 b 438 599 350 608 372 606 b 614 561 511 589 551 583 b 689 521 646 550 671 536 b 757 357 726 488 757 431 b 633 154 757 274 715 206 b 767 -53 722 119 767 50 b 426 -308 767 -207 649 -308 b 81 -78 249 -308 133 -232 b 99 -42 74 -60 81 -49 l 139 -28 b 175 -46 157 -21 168 -26 b 426 -214 214 -158 297 -214 b 667 -54 588 -214 667 -154 b 561 79 661 24 631 60 b 421 101 511 93 486 96 b 265 126 346 110 333 111 b 192 151 233 133 210 142 b 83 340 135 181 76 242 b 228 550 83 433 132 503 b 93 757 138 588 93 656 m 417 504 b 319 518 363 511 331 515 b 186 353 231 485 186 429 b 293 219 186 276 229 238 b 435 196 340 206 374 201 b 538 183 500 188 535 183 b 656 349 617 221 656 275 b 581 467 656 406 631 444 b 417 504 529 489 489 494 "},"¨":{"ha":610,"x_min":0,"x_max":0,"o":"m 169 954 b 215 910 204 954 215 943 l 215 899 b 169 853 215 864 204 853 l 161 853 b 117 899 126 853 117 864 l 117 910 b 161 954 117 943 126 954 m 439 954 b 485 910 474 954 485 943 l 485 899 b 439 853 485 864 474 853 l 431 853 b 385 899 396 853 385 864 l 385 910 b 431 954 385 943 396 954 "},"©":{"ha":1121,"x_min":0,"x_max":0,"o":"m 63 488 b 207 842 63 628 111 746 b 563 986 303 938 422 986 b 915 842 701 986 819 938 b 1058 488 1011 746 1058 628 b 915 133 1058 347 1011 229 b 563 -11 819 38 701 -11 b 208 135 422 -11 304 38 b 63 488 111 231 63 349 m 992 488 b 868 796 992 610 950 713 b 563 919 785 878 683 919 b 256 796 440 919 338 878 b 131 488 172 713 131 610 b 256 181 131 367 172 264 b 563 56 338 97 440 56 b 868 181 683 56 785 97 b 992 488 950 264 992 367 m 342 563 b 557 760 342 686 418 760 b 765 624 668 760 738 714 b 754 597 769 610 767 601 l 729 589 b 704 601 717 583 708 588 b 557 697 683 669 644 697 b 408 563 458 697 408 653 l 408 403 b 557 268 408 318 458 268 b 706 369 640 268 685 299 b 733 382 710 382 719 386 l 754 374 b 768 347 768 369 772 360 b 557 206 738 253 667 206 b 342 403 419 206 342 281 "},"ª":{"ha":511,"x_min":0,"x_max":0,"o":"m 89 850 b 257 931 126 904 182 931 b 431 758 383 931 431 869 l 431 585 b 386 514 431 542 421 531 b 251 493 356 500 311 493 b 74 615 122 493 74 533 b 254 743 74 700 122 743 b 357 738 300 743 335 742 l 357 764 b 256 868 357 835 329 868 b 147 813 211 868 175 850 b 121 808 140 806 131 804 l 100 819 b 89 850 83 828 79 838 m 357 682 b 250 689 328 686 292 689 b 146 618 172 689 146 664 b 247 551 146 574 179 551 b 335 564 288 551 317 556 b 357 597 350 569 357 581 "},"«":{"ha":783,"x_min":0,"x_max":0,"o":"m 406 135 b 406 103 415 125 415 114 l 376 74 b 343 74 365 64 354 64 l 68 349 b 68 381 58 358 58 369 l 347 660 b 379 660 360 669 369 669 l 407 632 b 407 600 417 621 417 610 l 174 367 m 724 135 b 724 103 733 125 733 114 l 694 74 b 661 74 683 64 672 64 l 386 349 b 386 381 376 358 376 369 l 665 660 b 697 660 675 669 686 669 l 724 632 b 724 600 733 622 733 611 l 492 367 "},"¬":{"ha":806,"x_min":0,"x_max":0,"o":"m 692 540 b 717 515 708 540 717 532 l 717 219 b 692 194 717 203 708 194 l 647 194 b 622 219 631 194 622 203 l 622 453 l 113 453 b 88 478 96 453 88 461 l 88 515 b 113 540 88 532 96 540 "},"®":{"ha":668,"x_min":0,"x_max":0,"o":"m 146 526 b 65 717 92 579 65 643 b 146 907 65 790 92 854 b 336 986 199 960 263 986 b 525 907 410 986 472 960 b 604 717 578 854 604 790 b 526 526 604 643 578 579 b 336 447 474 474 410 447 b 146 526 263 447 199 474 m 178 876 b 111 717 133 833 111 779 b 178 557 111 654 133 600 b 338 490 221 513 275 490 b 494 557 399 490 451 513 b 560 717 538 601 560 654 b 494 876 560 779 538 832 b 338 942 451 919 399 942 b 178 876 275 942 221 919 m 364 857 b 461 765 425 857 461 822 b 399 681 461 719 440 690 l 451 592 b 442 576 458 582 454 576 l 422 576 b 404 586 414 576 408 579 l 353 676 l 268 676 l 268 586 b 257 576 268 579 264 576 l 238 576 b 226 586 231 576 226 579 l 226 843 b 242 857 226 853 232 857 m 268 714 l 363 714 b 418 765 400 714 418 731 b 363 817 418 800 400 817 l 268 817 "},"¯":{"ha":489,"x_min":0,"x_max":0,"o":"m 407 939 b 431 915 425 939 431 933 l 431 894 b 407 871 431 876 425 871 l 79 871 b 56 894 61 871 56 876 l 56 915 b 79 939 56 933 63 939 "},"°":{"ha":538,"x_min":0,"x_max":0,"o":"m 479 771 b 418 622 479 714 458 664 b 269 560 376 581 326 560 b 121 622 211 560 161 581 b 58 771 79 663 58 713 b 121 919 58 829 79 879 b 269 981 161 960 211 981 b 418 921 328 981 378 961 b 479 771 458 881 479 831 m 175 865 b 175 676 122 814 122 729 b 365 676 228 624 313 624 b 365 865 418 729 418 814 b 175 865 313 917 228 917 "},"±":{"ha":886,"x_min":0,"x_max":0,"o":"m 743 590 b 771 563 764 590 771 583 l 771 536 b 743 508 771 515 764 508 l 486 508 l 486 353 b 458 325 486 332 479 325 l 428 325 b 400 353 407 325 400 332 l 400 508 l 143 508 b 115 536 122 508 115 515 l 115 563 b 143 590 115 583 122 590 l 400 590 l 400 751 b 428 779 400 772 407 779 l 458 779 b 486 751 479 779 486 772 l 486 590 m 743 251 b 771 224 764 251 771 244 l 771 197 b 743 169 771 176 764 169 l 143 169 b 115 197 122 169 115 176 l 115 224 b 143 251 115 244 122 251 "},"²":{"ha":493,"x_min":0,"x_max":0,"o":"m 61 988 b 96 1054 72 1015 72 1018 b 132 1096 107 1072 119 1086 b 260 1136 157 1115 204 1136 b 449 968 381 1136 449 1068 b 286 796 449 872 397 833 l 204 769 b 135 683 158 751 135 724 l 135 649 l 418 649 b 443 624 435 649 443 640 l 443 599 b 418 575 443 583 435 575 l 85 575 b 58 601 67 575 58 583 l 58 656 b 169 825 58 744 90 796 l 250 857 b 286 871 256 858 281 869 b 303 878 289 872 294 874 b 332 893 318 883 319 886 b 367 965 354 907 367 931 b 258 1061 367 1022 329 1061 b 143 978 181 1061 153 1006 l 138 964 b 103 946 128 942 124 940 l 79 953 b 61 988 61 960 54 972 "},"³":{"ha":504,"x_min":0,"x_max":0,"o":"m 58 989 b 269 1136 88 1088 158 1136 b 447 981 381 1136 447 1075 b 381 860 447 924 425 883 b 463 721 435 835 463 789 b 268 564 463 625 396 564 b 56 710 151 564 88 611 b 69 744 50 728 54 739 l 94 753 b 129 735 111 757 122 751 b 268 636 151 664 186 636 b 383 729 344 636 383 672 b 300 818 383 781 351 818 l 217 818 b 193 843 196 818 193 822 l 193 864 b 218 890 193 888 196 890 l 294 890 b 372 972 344 890 372 924 b 269 1065 372 1029 335 1065 b 133 967 197 1065 151 1032 b 92 946 124 943 115 939 l 75 953 b 58 989 58 960 53 972 "},"´":{"ha":357,"x_min":0,"x_max":0,"o":"m 278 1007 b 325 1006 299 1018 315 1018 l 346 981 b 342 951 358 965 360 957 l 97 822 b 64 824 82 815 71 817 l 51 840 b 54 868 42 853 43 861 "},"µ":{"ha":761,"x_min":0,"x_max":0,"o":"m 650 714 b 675 689 667 714 675 706 l 675 103 b 622 25 675 60 663 43 b 383 -21 546 -6 465 -21 b 181 75 285 -21 218 11 l 181 -281 b 156 -306 181 -299 174 -306 l 113 -306 b 88 -281 96 -306 88 -297 l 88 689 b 113 714 88 706 96 714 l 156 714 b 181 689 174 714 181 707 l 181 254 b 375 64 181 128 246 64 b 557 94 440 64 501 74 b 582 133 574 101 582 115 l 582 689 b 607 714 582 707 586 714 "},"¶":{"ha":597,"x_min":0,"x_max":0,"o":"m 471 986 b 496 961 492 986 496 979 l 496 -99 b 471 -124 496 -119 492 -124 l 433 -124 b 408 -99 415 -124 408 -119 l 408 892 l 333 892 l 333 -99 b 308 -124 333 -115 325 -124 l 271 -124 b 246 -99 254 -124 246 -115 l 246 607 b 61 796 136 611 61 686 b 253 986 61 908 138 986 "},"·":{"ha":294,"x_min":0,"x_max":0,"o":"m 151 439 b 206 383 192 439 206 426 l 206 374 b 151 319 206 331 194 319 l 143 319 b 88 374 100 319 88 333 l 88 383 b 143 439 88 424 100 439 "},"¸":{"ha":349,"x_min":0,"x_max":0,"o":"m 176 -103 b 211 -99 186 -100 197 -99 b 329 -210 285 -99 333 -143 b 164 -342 324 -299 258 -342 b 53 -315 119 -342 82 -333 b 36 -287 42 -308 36 -300 l 36 -261 b 50 -251 36 -249 40 -246 b 153 -283 81 -272 115 -283 b 249 -206 214 -283 249 -254 b 165 -147 249 -167 221 -147 b 119 -153 147 -147 132 -149 b 104 -129 103 -154 97 -147 l 154 0 l 213 0 "},"¹":{"ha":390,"x_min":0,"x_max":0,"o":"m 296 1125 b 324 1099 317 1125 324 1119 l 324 603 b 296 575 324 582 317 575 l 271 575 b 243 603 250 575 243 582 l 243 1025 l 90 940 b 51 950 74 932 61 935 l 40 969 b 53 1007 32 986 36 999 l 247 1118 b 281 1125 256 1122 267 1125 "},"º":{"ha":518,"x_min":0,"x_max":0,"o":"m 74 764 b 258 931 74 868 140 931 b 444 764 379 931 444 868 l 444 660 b 258 494 444 556 379 494 b 74 660 140 494 74 556 m 368 768 b 258 863 368 828 329 863 b 150 768 188 863 150 828 l 150 657 b 258 563 150 597 188 563 b 368 657 329 563 368 597 "},"»":{"ha":783,"x_min":0,"x_max":0,"o":"m 406 600 b 406 632 396 610 396 621 l 433 660 b 465 660 443 672 454 672 l 744 381 b 744 349 754 369 754 358 l 469 74 b 436 74 458 64 447 64 l 407 103 b 407 135 396 114 396 125 l 639 367 m 88 600 b 88 632 78 611 78 622 l 115 660 b 147 660 126 669 138 669 l 426 381 b 426 349 436 369 436 358 l 151 74 b 118 74 140 64 129 64 l 89 103 b 89 135 79 114 79 125 l 321 367 "},"¼":{"ha":1092,"x_min":0,"x_max":0,"o":"m 315 992 b 343 964 336 992 343 985 l 343 468 b 315 442 343 450 333 442 l 290 442 b 263 468 272 442 263 450 l 263 892 l 110 807 b 72 815 93 797 81 800 l 61 836 b 72 874 51 851 56 864 l 267 983 b 300 992 278 989 289 992 m 949 986 b 963 960 967 986 974 975 l 276 25 b 221 0 260 3 254 0 l 189 0 b 175 28 168 0 163 13 l 863 963 b 913 986 875 983 883 986 m 956 550 b 979 525 976 550 979 546 l 979 210 l 1035 210 b 1058 188 1056 210 1058 206 l 1058 164 b 1035 142 1058 146 1056 142 l 979 142 l 979 24 b 957 0 979 6 975 0 l 925 0 b 904 24 908 0 904 6 l 904 142 l 639 142 b 615 167 621 142 615 149 l 615 185 b 624 214 615 197 618 207 l 886 535 b 921 550 893 544 906 550 m 707 210 l 904 210 l 904 450 "},"½":{"ha":1168,"x_min":0,"x_max":0,"o":"m 313 996 b 340 969 331 996 340 988 l 340 474 b 313 446 340 453 333 446 l 288 446 b 260 474 267 446 260 453 l 260 896 l 107 811 b 68 821 90 801 78 806 l 57 840 b 68 878 50 856 53 868 l 264 988 b 297 996 271 993 282 996 m 942 986 b 956 960 960 986 967 975 l 269 25 b 214 0 253 3 247 0 l 181 0 b 168 28 160 0 156 13 l 854 963 b 906 986 869 983 876 986 m 733 413 b 932 561 769 511 836 561 b 1121 393 1053 561 1121 492 b 958 221 1121 294 1069 258 l 876 193 b 807 107 831 178 807 149 l 807 74 l 1090 74 b 1115 49 1107 74 1115 65 l 1115 24 b 1090 0 1115 8 1107 0 l 757 0 b 729 26 739 0 729 8 l 729 81 b 840 250 729 169 761 221 l 922 282 b 958 296 928 283 953 294 b 975 303 961 297 967 299 b 1004 318 990 308 992 311 b 1039 390 1026 332 1039 356 b 931 486 1039 447 1001 486 b 811 394 843 486 821 419 l 810 388 b 775 369 801 369 790 364 l 750 378 b 733 413 732 383 726 394 "},"¾":{"ha":1143,"x_min":0,"x_max":0,"o":"m 69 860 b 279 1008 101 961 164 1008 b 458 851 392 1008 458 947 b 392 732 458 794 436 756 b 474 592 446 706 474 660 b 279 436 474 496 407 436 b 67 581 161 436 99 482 b 81 615 60 599 65 610 l 106 624 b 140 606 122 628 133 622 b 279 507 161 538 197 507 b 394 600 356 507 394 543 b 311 690 394 651 363 690 l 228 690 b 203 714 207 690 203 693 l 203 736 b 229 761 203 758 207 761 l 306 761 b 382 844 356 761 382 794 b 281 936 382 900 346 936 b 143 838 204 936 164 906 b 103 818 136 817 122 810 l 85 824 b 69 860 68 831 63 842 m 1000 986 b 1014 960 1018 986 1025 975 l 328 25 b 272 0 311 3 306 0 l 240 0 b 226 28 219 0 214 13 l 914 963 b 964 986 926 983 935 986 m 1004 550 b 1029 525 1026 550 1029 546 l 1029 210 l 1085 210 b 1108 188 1106 210 1108 206 l 1108 164 b 1085 142 1108 146 1106 142 l 1029 142 l 1029 24 b 1007 0 1029 6 1025 0 l 975 0 b 953 24 957 0 953 6 l 953 142 l 689 142 b 665 167 671 142 665 149 l 665 185 b 674 214 665 197 668 207 l 935 535 b 971 550 943 544 956 550 m 953 210 l 953 450 l 757 210 "},"¿":{"ha":768,"x_min":0,"x_max":0,"o":"m 414 600 b 360 656 374 600 360 613 l 360 664 b 414 719 360 707 374 719 l 422 719 b 478 664 465 719 478 707 l 478 656 b 422 600 478 615 463 600 m 728 -86 b 375 -315 668 -239 550 -315 b 133 -233 274 -315 193 -287 b 43 -29 74 -179 43 -111 b 85 140 43 42 64 103 b 132 199 94 158 111 178 b 238 276 176 242 183 243 b 253 286 244 281 249 285 b 376 469 335 340 376 385 b 403 496 376 490 382 496 l 435 496 b 461 469 456 496 461 490 b 310 221 461 343 408 286 b 247 178 281 201 260 188 b 199 133 235 168 218 154 b 143 -25 158 92 143 42 b 378 -226 143 -142 229 -226 b 636 -56 503 -226 589 -169 b 671 -37 643 -37 656 -32 l 710 -51 b 728 -86 728 -58 733 -69 "},"À":{"ha":890,"x_min":0,"x_max":0,"o":"m 329 1238 b 376 1239 340 1250 356 1251 l 604 1104 b 606 1076 617 1097 617 1089 l 593 1061 b 561 1060 588 1053 576 1053 l 313 1183 b 308 1213 299 1189 297 1199 m 885 26 b 865 0 892 8 886 0 l 825 0 b 775 25 796 0 779 8 l 671 289 l 236 289 l 132 25 b 83 0 126 4 117 0 l 46 0 b 28 26 26 0 21 8 l 400 967 b 435 990 406 982 417 990 l 476 990 b 513 968 494 990 507 983 m 476 799 b 457 894 464 836 457 868 l 450 894 b 433 799 450 865 444 833 l 265 372 l 643 372 "},"Á":{"ha":890,"x_min":0,"x_max":0,"o":"m 536 1247 b 583 1244 557 1257 574 1257 l 604 1219 b 600 1190 615 1206 614 1196 l 356 1061 b 322 1064 339 1056 328 1057 l 310 1079 b 311 1107 299 1092 299 1100 m 885 26 b 865 0 892 8 886 0 l 825 0 b 775 25 796 0 779 8 l 671 289 l 236 289 l 132 25 b 83 0 126 4 117 0 l 46 0 b 28 26 26 0 21 8 l 400 967 b 435 990 406 982 417 990 l 476 990 b 513 968 494 990 507 983 m 476 799 b 457 894 464 836 457 868 l 450 894 b 433 799 450 865 444 833 l 265 372 l 643 372 "},"Â":{"ha":890,"x_min":0,"x_max":0,"o":"m 464 1251 b 511 1229 481 1251 496 1244 l 681 1079 b 668 1060 693 1067 689 1060 l 631 1060 b 589 1074 611 1060 597 1064 l 456 1188 l 321 1074 b 281 1060 311 1064 297 1060 l 244 1060 b 232 1079 224 1060 219 1067 l 403 1229 b 453 1251 425 1250 429 1251 m 885 26 b 865 0 892 8 886 0 l 825 0 b 775 25 796 0 779 8 l 671 289 l 236 289 l 132 25 b 83 0 126 4 117 0 l 46 0 b 28 26 26 0 21 8 l 400 967 b 435 990 406 982 417 990 l 476 990 b 513 968 494 990 507 983 m 476 799 b 457 894 464 836 457 868 l 450 894 b 433 799 450 865 444 833 l 265 372 l 643 372 "},"Ã":{"ha":890,"x_min":0,"x_max":0,"o":"m 650 1225 b 667 1208 661 1225 667 1219 b 558 1069 667 1115 631 1069 b 449 1117 525 1069 489 1085 b 354 1163 408 1147 378 1163 b 299 1086 317 1163 299 1138 b 282 1069 299 1075 293 1069 l 254 1069 b 238 1086 243 1069 238 1075 b 346 1225 238 1179 274 1225 b 551 1132 431 1225 492 1132 b 607 1208 589 1132 607 1157 b 622 1225 607 1219 613 1225 m 885 26 b 865 0 892 8 886 0 l 825 0 b 775 25 796 0 779 8 l 671 289 l 236 289 l 132 25 b 83 0 126 4 117 0 l 46 0 b 28 26 26 0 21 8 l 400 967 b 435 990 406 982 417 990 l 476 990 b 513 968 494 990 507 983 m 476 799 b 457 894 464 836 457 868 l 450 894 b 433 799 450 865 444 833 l 265 372 l 643 372 "},"Ä":{"ha":890,"x_min":0,"x_max":0,"o":"m 325 1200 b 371 1156 360 1200 371 1189 l 371 1144 b 325 1100 371 1110 360 1100 l 317 1100 b 271 1144 282 1100 271 1110 l 271 1156 b 317 1200 271 1189 282 1200 m 594 1200 b 640 1156 629 1200 640 1189 l 640 1144 b 594 1100 640 1110 629 1100 l 586 1100 b 540 1144 551 1100 540 1110 l 540 1156 b 586 1200 540 1189 551 1200 m 885 26 b 865 0 892 8 886 0 l 825 0 b 775 25 796 0 779 8 l 671 289 l 236 289 l 132 25 b 83 0 126 4 117 0 l 46 0 b 28 26 26 0 21 8 l 400 967 b 435 990 406 982 417 990 l 476 990 b 513 968 494 990 507 983 m 476 799 b 457 894 464 836 457 868 l 450 894 b 433 799 450 865 444 833 l 265 372 l 643 372 "},"Å":{"ha":890,"x_min":0,"x_max":0,"o":"m 306 1082 b 458 1229 306 1171 365 1229 b 607 1082 547 1229 607 1171 b 518 953 607 1017 574 969 l 885 26 b 865 0 892 8 886 0 l 825 0 b 775 25 796 0 779 8 l 671 289 l 236 289 l 132 25 b 83 0 126 4 117 0 l 46 0 b 28 26 26 0 21 8 l 394 954 b 306 1082 335 974 306 1017 m 524 1017 b 458 1172 576 1068 540 1181 b 364 1082 401 1172 364 1136 b 458 992 364 1028 401 992 b 524 1017 485 992 507 1000 m 476 799 b 457 894 464 836 457 868 l 450 894 b 433 799 450 865 444 833 l 265 372 l 643 372 "},"Æ":{"ha":1154,"x_min":0,"x_max":0,"o":"m 1086 94 b 1113 67 1104 94 1113 85 l 1113 28 b 1086 0 1113 10 1104 0 l 625 0 b 597 28 604 0 597 7 l 597 243 l 251 243 l 119 25 b 69 0 108 4 101 0 l 26 0 b 8 26 7 0 1 8 l 583 963 b 619 986 596 983 601 986 l 1068 986 b 1096 958 1089 986 1096 979 l 1096 919 b 1068 892 1096 899 1089 892 l 696 892 l 696 546 l 1006 546 b 1032 518 1026 546 1032 539 l 1032 479 b 1006 451 1032 458 1026 451 l 696 451 l 696 94 m 597 818 l 301 326 l 597 326 "},"Ç":{"ha":883,"x_min":0,"x_max":0,"o":"m 815 258 b 832 224 832 251 838 240 b 479 -19 782 67 679 -14 l 449 -103 b 483 -99 458 -100 471 -99 b 601 -210 557 -99 606 -143 b 436 -342 596 -299 531 -342 b 325 -315 392 -342 354 -333 b 308 -287 314 -308 308 -300 l 308 -261 b 322 -251 308 -249 313 -246 b 425 -283 353 -272 388 -283 b 521 -206 486 -283 521 -254 b 438 -147 521 -167 493 -147 b 392 -153 419 -147 404 -149 b 376 -129 375 -154 369 -147 l 421 -19 b 79 329 203 -7 79 124 l 79 657 b 460 1006 79 875 214 1006 b 829 768 667 1006 779 928 b 813 732 836 747 833 739 l 769 717 b 733 733 751 713 740 718 b 460 913 694 857 617 913 b 181 658 278 913 181 819 l 181 328 b 460 74 181 168 281 74 b 736 257 619 74 697 131 b 772 275 743 274 756 279 "},"È":{"ha":796,"x_min":0,"x_max":0,"o":"m 290 1238 b 338 1239 301 1250 317 1251 l 565 1104 b 568 1076 578 1099 578 1089 l 556 1061 b 522 1060 549 1054 538 1053 l 274 1183 b 271 1213 261 1189 260 1199 m 699 986 b 725 958 717 986 725 976 l 725 919 b 699 892 725 901 717 892 l 208 892 l 208 547 l 636 547 b 663 519 654 547 663 538 l 663 481 b 636 453 663 463 654 453 l 208 453 l 208 94 l 717 94 b 743 67 735 94 743 85 l 743 28 b 717 0 743 10 735 0 l 136 0 b 108 28 115 0 108 7 l 108 958 b 136 986 108 979 115 986 "},"É":{"ha":796,"x_min":0,"x_max":0,"o":"m 497 1247 b 544 1244 518 1257 535 1257 l 565 1219 b 561 1190 578 1204 579 1196 l 317 1061 b 283 1064 301 1056 290 1057 l 271 1079 b 274 1107 261 1092 261 1101 m 699 986 b 725 958 717 986 725 976 l 725 919 b 699 892 725 901 717 892 l 208 892 l 208 547 l 636 547 b 663 519 654 547 663 538 l 663 481 b 636 453 663 463 654 453 l 208 453 l 208 94 l 717 94 b 743 67 735 94 743 85 l 743 28 b 717 0 743 10 735 0 l 136 0 b 108 28 115 0 108 7 l 108 958 b 136 986 108 979 115 986 "},"Ê":{"ha":796,"x_min":0,"x_max":0,"o":"m 425 1251 b 472 1229 447 1251 451 1250 l 642 1079 b 629 1060 654 1069 650 1060 l 592 1060 b 550 1074 574 1060 560 1064 l 418 1188 l 282 1074 b 243 1060 272 1064 260 1060 l 207 1060 b 194 1079 186 1060 182 1069 l 364 1229 b 414 1251 386 1250 390 1251 m 699 986 b 725 958 717 986 725 976 l 725 919 b 699 892 725 901 717 892 l 208 892 l 208 547 l 636 547 b 663 519 654 547 663 538 l 663 481 b 636 453 663 463 654 453 l 208 453 l 208 94 l 717 94 b 743 67 735 94 743 85 l 743 28 b 717 0 743 10 735 0 l 136 0 b 108 28 115 0 108 7 l 108 958 b 136 986 108 979 115 986 "},"Ë":{"ha":796,"x_min":0,"x_max":0,"o":"m 288 1200 b 332 1156 322 1200 332 1189 l 332 1144 b 288 1100 332 1110 322 1100 l 278 1100 b 233 1144 244 1100 233 1110 l 233 1156 b 278 1200 233 1189 244 1200 m 557 1200 b 601 1156 590 1200 601 1189 l 601 1144 b 557 1100 601 1110 590 1100 l 549 1100 b 501 1144 511 1100 501 1110 l 501 1156 b 549 1200 501 1189 514 1200 m 699 986 b 725 958 717 986 725 976 l 725 919 b 699 892 725 901 717 892 l 208 892 l 208 547 l 636 547 b 663 519 654 547 663 538 l 663 481 b 636 453 663 463 654 453 l 208 453 l 208 94 l 717 94 b 743 67 735 94 743 85 l 743 28 b 717 0 743 10 735 0 l 136 0 b 108 28 115 0 108 7 l 108 958 b 136 986 108 979 115 986 "},"Ì":{"ha":317,"x_min":0,"x_max":0,"o":"m 49 1238 b 96 1239 60 1250 75 1251 l 324 1104 b 326 1076 336 1099 336 1089 l 314 1061 b 281 1060 307 1054 296 1053 l 32 1183 b 29 1213 19 1189 18 1199 m 125 958 b 153 986 125 979 132 986 l 199 986 b 226 958 219 986 226 979 l 226 28 b 199 0 226 7 219 0 l 153 0 b 125 28 132 0 125 7 "},"Í":{"ha":317,"x_min":0,"x_max":0,"o":"m 256 1247 b 303 1244 276 1257 293 1257 l 324 1219 b 319 1190 335 1206 333 1196 l 74 1061 b 42 1064 58 1056 47 1057 l 29 1079 b 31 1107 18 1092 18 1100 m 125 958 b 153 986 125 979 132 986 l 199 986 b 225 958 219 986 225 979 l 225 28 b 199 0 225 7 219 0 l 153 0 b 125 28 132 0 125 7 "},"Î":{"ha":317,"x_min":0,"x_max":0,"o":"m 185 1251 b 233 1229 207 1251 213 1250 l 403 1079 b 390 1060 415 1067 411 1060 l 353 1060 b 311 1074 333 1060 319 1064 l 178 1188 l 43 1074 b 3 1060 33 1064 19 1060 l -33 1060 b -46 1079 -54 1060 -58 1067 l 125 1229 b 175 1251 146 1250 151 1251 m 128 958 b 156 986 128 979 135 986 l 201 986 b 228 958 222 986 228 979 l 228 28 b 201 0 228 7 222 0 l 156 0 b 128 28 135 0 128 7 "},"Ï":{"ha":317,"x_min":0,"x_max":0,"o":"m 28 1200 b 74 1156 63 1200 74 1189 l 74 1144 b 28 1100 74 1110 63 1100 l 19 1100 b -26 1144 -15 1100 -26 1110 l -26 1156 b 19 1200 -26 1189 -15 1200 m 297 1200 b 343 1156 332 1200 343 1189 l 343 1144 b 297 1100 343 1110 332 1100 l 289 1100 b 243 1144 254 1100 243 1110 l 243 1156 b 289 1200 243 1189 254 1200 m 108 958 b 136 986 108 979 115 986 l 182 986 b 208 958 203 986 208 979 l 208 28 b 182 0 208 7 203 0 l 136 0 b 108 28 115 0 108 7 "},"Ð":{"ha":922,"x_min":0,"x_max":0,"o":"m 444 986 b 847 619 700 986 847 847 l 847 367 b 444 0 847 139 700 0 l 151 0 b 124 28 131 0 124 7 l 124 467 l 22 467 b 3 486 10 467 3 474 l 3 515 b 22 535 3 528 10 535 l 124 535 l 124 958 b 151 986 124 979 131 986 m 747 619 b 446 892 747 793 640 892 l 225 892 l 225 535 l 464 535 b 482 515 476 535 482 528 l 482 486 b 464 467 482 474 476 467 l 225 467 l 225 94 l 446 94 b 747 367 639 94 747 193 "},"Ñ":{"ha":960,"x_min":0,"x_max":0,"o":"m 675 1225 b 690 1208 685 1225 690 1219 b 582 1069 690 1115 654 1069 b 474 1117 549 1069 513 1085 b 379 1163 433 1147 403 1163 b 324 1086 342 1163 324 1138 b 307 1069 324 1075 318 1069 l 279 1069 b 263 1086 268 1069 263 1075 b 371 1225 263 1179 299 1225 b 576 1132 456 1225 517 1132 b 632 1208 614 1132 632 1157 b 647 1225 632 1219 638 1225 m 824 986 b 851 958 844 986 851 979 l 851 28 b 824 0 851 7 844 0 l 779 0 b 750 15 765 0 756 6 l 307 651 b 240 768 288 681 265 719 b 196 850 215 817 200 843 l 190 850 b 199 751 190 843 193 810 b 206 604 203 693 206 644 l 206 28 b 179 0 206 10 197 0 l 136 0 b 108 28 115 0 108 7 l 108 958 b 136 986 108 979 115 986 l 181 986 b 210 972 193 986 203 982 l 642 349 b 715 228 663 318 688 278 b 765 139 742 178 758 149 l 769 139 b 761 244 769 149 767 183 b 753 397 756 304 753 356 l 753 960 b 781 986 753 978 763 986 "},"Ò":{"ha":921,"x_min":0,"x_max":0,"o":"m 335 1251 b 382 1253 344 1264 361 1264 l 610 1118 b 611 1090 622 1111 622 1103 l 599 1075 b 565 1074 593 1068 582 1067 l 318 1197 b 314 1226 304 1203 303 1213 m 79 657 b 461 1006 79 875 215 1006 b 842 657 706 1006 842 875 l 842 329 b 461 -19 842 111 706 -19 b 79 329 215 -19 79 111 m 742 657 b 461 913 742 819 643 913 b 179 657 279 913 179 819 l 179 329 b 461 74 179 167 279 74 b 742 329 643 74 742 167 "},"Ó":{"ha":921,"x_min":0,"x_max":0,"o":"m 542 1261 b 589 1258 563 1271 579 1271 l 610 1233 b 606 1204 621 1219 619 1210 l 360 1075 b 328 1078 344 1069 333 1071 l 315 1093 b 317 1121 304 1106 304 1114 m 79 657 b 461 1006 79 875 215 1006 b 842 657 706 1006 842 875 l 842 329 b 461 -19 842 111 706 -19 b 79 329 215 -19 79 111 m 742 657 b 461 913 742 819 643 913 b 179 657 279 913 179 819 l 179 329 b 461 74 179 167 279 74 b 742 329 643 74 742 167 "},"Ô":{"ha":921,"x_min":0,"x_max":0,"o":"m 468 1265 b 517 1243 490 1265 496 1264 l 686 1093 b 674 1074 699 1081 694 1074 l 636 1074 b 594 1088 617 1074 603 1078 l 461 1201 l 326 1088 b 286 1074 317 1078 303 1074 l 250 1074 b 238 1093 229 1074 225 1081 l 408 1243 b 458 1265 429 1264 435 1265 m 79 657 b 461 1006 79 875 215 1006 b 842 657 706 1006 842 875 l 842 329 b 461 -19 842 111 706 -19 b 79 329 215 -19 79 111 m 742 657 b 461 913 742 819 643 913 b 179 657 279 913 179 819 l 179 329 b 461 74 179 167 279 74 b 742 329 643 74 742 167 "},"Õ":{"ha":921,"x_min":0,"x_max":0,"o":"m 656 1239 b 671 1222 665 1239 671 1233 b 563 1083 671 1129 635 1083 b 454 1131 529 1083 493 1099 b 360 1176 414 1161 383 1176 b 304 1100 322 1176 304 1151 b 288 1083 304 1089 299 1083 l 260 1083 b 243 1100 249 1083 243 1089 b 351 1239 243 1193 279 1239 b 557 1146 436 1239 497 1146 b 613 1222 594 1146 613 1171 b 628 1239 613 1233 618 1239 m 79 657 b 461 1006 79 875 215 1006 b 842 657 706 1006 842 875 l 842 329 b 461 -19 842 111 706 -19 b 79 329 215 -19 79 111 m 742 657 b 461 913 742 819 643 913 b 179 657 279 913 179 819 l 179 329 b 461 74 179 167 279 74 b 742 329 643 74 742 167 "},"Ö":{"ha":921,"x_min":0,"x_max":0,"o":"m 331 1214 b 376 1169 365 1214 376 1203 l 376 1158 b 331 1114 376 1124 365 1114 l 322 1114 b 276 1158 288 1114 276 1124 l 276 1169 b 322 1214 276 1203 288 1214 m 600 1214 b 646 1169 635 1214 646 1203 l 646 1158 b 600 1114 646 1124 635 1114 l 592 1114 b 546 1158 557 1114 546 1124 l 546 1169 b 592 1214 546 1203 557 1214 m 79 657 b 461 1006 79 875 215 1006 b 842 657 706 1006 842 875 l 842 329 b 461 -19 842 111 706 -19 b 79 329 215 -19 79 111 m 742 657 b 461 913 742 819 643 913 b 179 657 279 913 179 819 l 179 329 b 461 74 179 167 279 74 b 742 329 643 74 742 167 "},"×":{"ha":704,"x_min":0,"x_max":0,"o":"m 635 250 b 635 211 647 238 647 224 l 613 189 b 574 189 600 176 588 176 l 372 390 l 172 190 b 133 190 160 178 146 178 l 113 213 b 113 250 100 225 100 238 l 313 450 l 113 651 b 113 690 99 665 99 678 l 133 713 b 172 713 146 725 160 725 l 372 511 l 574 713 b 613 713 588 725 600 725 l 635 690 b 635 653 647 678 647 665 l 432 450 "},"Ø":{"ha":921,"x_min":0,"x_max":0,"o":"m 851 1043 b 857 1033 858 1043 861 1040 l 767 893 b 846 657 819 835 846 756 l 846 329 b 465 -19 846 111 710 -18 b 224 42 368 -21 288 0 l 165 -49 b 144 -58 161 -56 154 -58 l 92 -58 b 86 -49 83 -58 82 -56 l 169 85 b 83 329 113 144 83 225 l 83 657 b 465 1006 83 875 219 1006 b 715 936 569 1006 653 982 l 776 1033 b 796 1043 782 1040 789 1043 m 661 853 b 465 913 614 893 549 913 b 183 657 283 913 183 819 l 183 329 b 233 182 183 269 200 219 m 278 126 b 465 74 324 92 386 74 b 746 329 647 74 746 167 l 746 657 b 704 793 746 714 732 760 "},"Ù":{"ha":947,"x_min":0,"x_max":0,"o":"m 347 1238 b 394 1239 357 1250 374 1250 l 622 1104 b 624 1076 635 1097 635 1089 l 611 1061 b 578 1060 606 1054 594 1053 l 331 1183 b 326 1213 317 1189 315 1199 m 201 335 b 474 74 201 169 294 74 b 746 335 653 74 746 169 l 746 958 b 774 986 746 979 753 986 l 819 986 b 847 958 840 986 847 979 l 847 336 b 474 -21 847 114 717 -21 b 100 336 231 -21 100 114 l 100 958 b 128 986 100 979 107 986 l 174 986 b 201 958 194 986 201 979 "},"Ú":{"ha":947,"x_min":0,"x_max":0,"o":"m 554 1247 b 601 1244 575 1257 592 1257 l 622 1219 b 618 1190 633 1206 632 1196 l 372 1061 b 340 1064 357 1056 346 1057 l 328 1079 b 329 1107 317 1092 317 1100 m 201 335 b 474 74 201 169 294 74 b 746 335 653 74 746 169 l 746 958 b 774 986 746 979 753 986 l 819 986 b 847 958 840 986 847 979 l 847 336 b 474 -21 847 114 717 -21 b 100 336 231 -21 100 114 l 100 958 b 128 986 100 979 107 986 l 174 986 b 201 958 194 986 201 979 "},"Û":{"ha":947,"x_min":0,"x_max":0,"o":"m 481 1251 b 529 1229 503 1251 508 1250 l 699 1079 b 686 1060 711 1067 707 1060 l 649 1060 b 607 1074 629 1060 615 1064 l 474 1188 l 339 1074 b 299 1060 329 1064 315 1060 l 263 1060 b 250 1079 242 1060 238 1067 l 421 1229 b 471 1251 442 1250 447 1251 m 201 335 b 474 74 201 169 294 74 b 746 335 653 74 746 169 l 746 958 b 774 986 746 979 753 986 l 819 986 b 847 958 840 986 847 979 l 847 336 b 474 -21 847 114 717 -21 b 100 336 231 -21 100 114 l 100 958 b 128 986 100 979 107 986 l 174 986 b 201 958 194 986 201 979 "},"Ü":{"ha":947,"x_min":0,"x_max":0,"o":"m 343 1200 b 389 1156 378 1200 389 1189 l 389 1144 b 343 1100 389 1110 378 1100 l 335 1100 b 289 1144 300 1100 289 1110 l 289 1156 b 335 1200 289 1189 300 1200 m 613 1200 b 658 1156 647 1200 658 1189 l 658 1144 b 613 1100 658 1110 647 1100 l 604 1100 b 558 1144 569 1100 558 1110 l 558 1156 b 604 1200 558 1189 569 1200 m 201 335 b 474 74 201 169 294 74 b 746 335 653 74 746 169 l 746 958 b 774 986 746 979 753 986 l 819 986 b 847 958 840 986 847 979 l 847 336 b 474 -21 847 114 717 -21 b 100 336 231 -21 100 114 l 100 958 b 128 986 100 979 107 986 l 174 986 b 201 958 194 986 201 979 "},"Ý":{"ha":871,"x_min":0,"x_max":0,"o":"m 522 1247 b 569 1244 543 1257 560 1257 l 590 1219 b 586 1190 601 1206 600 1196 l 340 1061 b 308 1064 325 1056 314 1057 l 296 1079 b 297 1107 285 1092 285 1100 m 839 986 b 853 958 857 986 864 974 l 490 400 l 490 28 b 463 0 490 7 483 0 l 417 0 b 389 28 396 0 389 7 l 389 401 l 26 958 b 40 986 15 974 22 986 l 97 986 b 150 961 131 986 139 983 l 440 504 l 733 961 b 786 986 744 983 753 986 "},"Þ":{"ha":861,"x_min":0,"x_max":0,"o":"m 493 821 b 821 499 693 821 821 699 b 493 178 821 300 694 178 l 208 178 l 208 28 b 182 0 208 7 203 0 l 136 0 b 108 28 115 0 108 7 l 108 958 b 136 986 108 979 115 986 l 182 986 b 208 958 203 986 208 979 l 208 821 m 485 272 b 717 499 628 272 717 360 b 485 728 717 638 625 728 l 208 728 l 208 272 "},"ß":{"ha":763,"x_min":0,"x_max":0,"o":"m 93 733 b 378 1042 93 921 196 1042 b 669 763 571 1042 669 942 b 543 542 669 668 631 579 l 543 538 b 706 285 651 504 706 419 b 419 0 706 100 603 0 l 307 0 b 279 28 286 0 279 7 l 279 65 b 307 93 279 86 286 93 l 410 93 b 604 294 536 93 604 163 b 418 486 604 413 535 486 l 310 486 b 283 514 292 486 283 496 l 283 550 b 310 578 283 568 292 578 l 411 578 b 571 754 517 578 571 660 b 378 949 571 883 507 949 b 186 733 256 949 186 867 l 186 28 b 158 0 186 7 179 0 l 121 0 b 93 28 100 0 93 7 "},"à":{"ha":711,"x_min":0,"x_max":0,"o":"m 225 997 b 272 1000 235 1010 251 1010 l 497 860 b 500 832 510 854 510 844 l 486 817 b 454 814 481 810 469 808 l 208 943 b 206 972 196 949 194 958 m 75 589 b 354 735 126 686 219 735 b 632 460 560 735 632 628 l 632 96 b 582 17 632 47 621 33 b 351 -19 526 -7 450 -19 b 115 33 236 -19 158 -3 b 51 196 72 68 51 122 b 357 411 51 353 136 411 b 539 397 394 411 456 407 l 539 461 b 351 651 539 582 492 651 b 157 550 260 651 194 618 b 122 539 147 536 135 532 l 89 553 b 75 589 71 560 67 571 m 539 321 b 347 333 456 329 392 333 b 147 197 201 333 147 293 b 344 58 147 103 190 58 b 513 81 415 58 471 65 b 539 121 535 90 539 94 "},"á":{"ha":711,"x_min":0,"x_max":0,"o":"m 431 1000 b 478 997 451 1010 468 1010 l 499 972 b 494 943 511 957 513 949 l 250 814 b 217 817 235 808 224 810 l 204 832 b 206 860 194 844 194 853 m 75 589 b 354 735 126 686 219 735 b 632 460 560 735 632 628 l 632 96 b 582 17 632 47 621 33 b 351 -19 526 -7 450 -19 b 115 33 236 -19 158 -3 b 51 196 72 68 51 122 b 357 411 51 353 136 411 b 539 397 394 411 456 407 l 539 461 b 351 651 539 582 492 651 b 157 550 260 651 194 618 b 122 539 147 536 135 532 l 89 553 b 75 589 71 560 67 571 m 539 321 b 347 333 456 329 392 333 b 147 197 201 333 147 293 b 344 58 147 103 190 58 b 513 81 415 58 471 65 b 539 121 535 90 539 94 "},"â":{"ha":711,"x_min":0,"x_max":0,"o":"m 358 999 b 406 975 374 999 390 990 l 575 826 b 563 806 589 813 585 806 l 525 806 b 483 819 507 806 493 810 l 350 935 l 215 819 b 176 806 206 810 193 806 l 140 806 b 126 826 119 806 114 813 l 297 975 b 347 999 319 997 324 999 m 75 589 b 354 735 126 686 219 735 b 632 460 560 735 632 628 l 632 96 b 582 17 632 47 621 33 b 351 -19 526 -7 450 -19 b 115 33 236 -19 158 -3 b 51 196 72 68 51 122 b 357 411 51 353 136 411 b 539 397 394 411 456 407 l 539 461 b 351 651 539 582 492 651 b 157 550 260 651 194 618 b 122 539 147 536 135 532 l 89 553 b 75 589 71 560 67 571 m 539 321 b 347 333 456 329 392 333 b 147 197 201 333 147 293 b 344 58 147 103 190 58 b 513 81 415 58 471 65 b 539 121 535 90 539 94 "},"ã":{"ha":711,"x_min":0,"x_max":0,"o":"m 544 981 b 561 964 556 981 561 975 b 453 825 561 871 525 825 b 343 872 419 825 383 840 b 249 918 303 903 272 918 b 193 842 211 918 193 893 b 178 825 193 831 188 825 l 150 825 b 133 842 139 825 133 831 b 240 981 133 935 169 981 b 354 935 275 981 314 965 b 447 888 394 903 425 888 b 501 964 483 888 501 913 b 517 981 501 975 507 981 m 75 589 b 354 735 126 686 219 735 b 632 460 560 735 632 628 l 632 96 b 582 17 632 47 621 33 b 351 -19 526 -7 450 -19 b 115 33 236 -19 158 -3 b 51 196 72 68 51 122 b 357 411 51 353 136 411 b 539 397 394 411 456 407 l 539 461 b 351 651 539 582 492 651 b 157 550 260 651 194 618 b 122 539 147 536 135 532 l 89 553 b 75 589 71 560 67 571 m 539 321 b 347 333 456 329 392 333 b 147 197 201 333 147 293 b 344 58 147 103 190 58 b 513 81 415 58 471 65 b 539 121 535 90 539 94 "},"ä":{"ha":711,"x_min":0,"x_max":0,"o":"m 219 954 b 265 910 254 954 265 943 l 265 899 b 219 853 265 864 254 853 l 211 853 b 167 899 176 853 167 864 l 167 910 b 211 954 167 943 176 954 m 489 954 b 535 910 524 954 535 943 l 535 899 b 489 853 535 864 524 853 l 482 853 b 435 899 447 853 435 864 l 435 910 b 482 954 435 943 447 954 m 75 589 b 354 735 126 686 219 735 b 632 460 560 735 632 628 l 632 96 b 582 17 632 47 621 33 b 351 -19 526 -7 450 -19 b 115 33 236 -19 158 -3 b 51 196 72 68 51 122 b 357 411 51 353 136 411 b 539 397 394 411 456 407 l 539 461 b 351 651 539 582 492 651 b 157 550 260 651 194 618 b 122 539 147 536 135 532 l 89 553 b 75 589 71 560 67 571 m 539 321 b 347 333 456 329 392 333 b 147 197 201 333 147 293 b 344 58 147 103 190 58 b 513 81 415 58 471 65 b 539 121 535 90 539 94 "},"å":{"ha":711,"x_min":0,"x_max":0,"o":"m 253 847 b 214 946 226 872 214 906 b 253 1044 214 986 226 1019 b 356 1082 279 1069 313 1082 b 493 946 439 1082 493 1028 b 356 810 493 864 439 810 b 253 847 313 810 279 822 m 419 882 b 419 1010 451 914 451 978 b 356 1033 403 1025 382 1033 b 264 946 299 1033 264 1000 b 356 858 264 892 299 858 b 419 882 382 858 403 867 m 75 589 b 354 735 126 686 219 735 b 632 460 560 735 632 628 l 632 96 b 582 17 632 47 621 33 b 351 -19 526 -7 450 -19 b 115 33 236 -19 158 -3 b 51 196 72 68 51 122 b 357 411 51 353 136 411 b 539 397 394 411 456 407 l 539 461 b 351 651 539 582 492 651 b 157 550 260 651 194 618 b 122 539 147 536 135 532 l 89 553 b 75 589 71 560 67 571 m 539 321 b 347 333 456 329 392 333 b 147 197 201 333 147 293 b 344 58 147 103 190 58 b 513 81 415 58 471 65 b 539 121 535 90 539 94 "},"æ":{"ha":1094,"x_min":0,"x_max":0,"o":"m 76 589 b 329 735 128 686 213 735 b 539 614 436 735 506 694 b 763 735 579 694 653 735 b 1038 449 950 735 1038 625 l 1038 371 b 996 332 1038 344 1024 332 l 581 332 l 581 250 b 758 61 581 124 640 61 b 942 175 854 61 897 97 b 983 185 953 190 967 193 l 1011 168 b 1021 129 1029 160 1033 147 b 758 -19 967 31 897 -19 b 558 64 665 -19 599 8 b 328 -19 510 8 433 -19 b 113 32 224 -19 151 -3 b 53 193 72 65 53 119 b 333 408 53 353 129 408 b 486 396 385 408 436 404 l 486 472 b 326 651 486 588 453 651 b 158 551 253 651 196 618 b 124 539 149 538 138 533 l 90 553 b 76 589 72 561 68 574 m 944 454 b 763 654 944 588 883 654 b 581 454 642 654 581 588 l 581 404 l 944 404 m 486 318 b 322 332 424 328 369 332 b 147 194 190 332 147 293 b 319 58 147 100 186 58 b 496 135 458 58 488 117 b 486 226 489 161 486 192 "},"ç":{"ha":714,"x_min":0,"x_max":0,"o":"m 647 211 b 664 175 665 204 671 193 b 400 -18 626 54 538 -10 l 368 -103 b 404 -99 378 -100 390 -99 b 522 -210 478 -99 526 -143 b 357 -342 517 -299 451 -342 b 246 -315 313 -342 275 -333 b 229 -287 235 -308 229 -300 l 229 -261 b 243 -251 229 -249 233 -246 b 346 -283 274 -272 308 -283 b 442 -206 407 -283 442 -254 b 358 -147 442 -167 414 -147 b 313 -153 340 -147 325 -149 b 297 -129 294 -154 290 -147 l 342 -19 b 68 254 163 -12 68 89 l 68 461 b 371 735 68 633 171 735 b 661 547 526 735 624 672 b 644 511 667 529 661 518 l 608 499 b 574 515 592 493 581 499 b 368 651 544 610 485 651 b 161 464 233 651 161 582 l 161 251 b 368 63 161 133 235 63 b 575 206 476 63 546 110 b 611 222 582 221 593 226 "},"è":{"ha":736,"x_min":0,"x_max":0,"o":"m 247 999 b 294 1000 258 1011 274 1013 l 519 861 b 522 833 531 854 532 846 l 508 817 b 476 815 501 810 492 808 l 231 943 b 228 974 218 950 217 960 m 65 442 b 372 735 65 626 172 735 b 681 447 574 735 681 621 l 681 371 b 639 332 681 344 667 332 l 158 332 l 158 251 b 367 61 158 131 232 61 b 585 176 469 61 542 100 b 625 186 596 192 610 194 l 654 171 b 664 131 672 161 675 149 b 367 -19 608 31 510 -19 b 65 261 165 -19 65 88 m 588 453 b 372 654 588 579 513 654 b 158 453 233 654 158 579 l 158 404 l 588 404 "},"é":{"ha":736,"x_min":0,"x_max":0,"o":"m 453 1000 b 500 999 474 1011 489 1011 l 521 974 b 517 943 535 957 535 951 l 272 815 b 239 817 257 808 246 810 l 226 833 b 228 861 217 846 218 854 m 65 442 b 372 735 65 626 172 735 b 681 447 574 735 681 621 l 681 371 b 639 332 681 344 667 332 l 158 332 l 158 251 b 367 61 158 131 232 61 b 585 176 469 61 542 100 b 625 186 596 192 610 194 l 654 171 b 664 131 672 161 675 149 b 367 -19 608 31 510 -19 b 65 261 165 -19 65 88 m 588 453 b 372 654 588 579 513 654 b 158 453 233 654 158 579 l 158 404 l 588 404 "},"ê":{"ha":736,"x_min":0,"x_max":0,"o":"m 381 993 b 426 971 396 993 411 986 l 593 825 b 581 804 606 811 601 804 l 543 804 b 503 818 525 804 513 808 l 372 931 l 240 818 b 201 804 231 808 218 804 l 167 804 b 154 825 146 804 142 811 l 321 971 b 369 993 342 992 346 993 m 65 442 b 372 735 65 626 172 735 b 681 447 574 735 681 621 l 681 371 b 639 332 681 344 667 332 l 158 332 l 158 251 b 367 61 158 131 232 61 b 585 176 469 61 542 100 b 625 186 596 192 610 194 l 654 171 b 664 131 672 161 675 149 b 367 -19 608 31 510 -19 b 65 261 165 -19 65 88 m 588 453 b 372 654 588 579 513 654 b 158 453 233 654 158 579 l 158 404 l 588 404 "},"ë":{"ha":736,"x_min":0,"x_max":0,"o":"m 242 956 b 288 910 276 956 288 943 l 288 899 b 242 854 288 865 276 854 l 233 854 b 189 899 199 854 189 865 l 189 910 b 233 956 189 943 200 956 m 511 956 b 557 910 546 956 557 943 l 557 899 b 511 854 557 865 546 854 l 504 854 b 457 899 469 854 457 865 l 457 910 b 504 956 457 943 469 956 m 65 442 b 372 735 65 626 172 735 b 681 447 574 735 681 621 l 681 371 b 639 332 681 344 667 332 l 158 332 l 158 251 b 367 61 158 131 232 61 b 585 176 469 61 542 100 b 625 186 596 192 610 194 l 654 171 b 664 131 672 161 675 149 b 367 -19 608 31 510 -19 b 65 261 165 -19 65 88 m 588 453 b 372 654 588 579 513 654 b 158 453 233 654 158 579 l 158 404 l 588 404 "},"ì":{"ha":276,"x_min":0,"x_max":0,"o":"m 56 993 b 101 996 65 1007 81 1008 l 282 860 b 285 832 293 853 294 843 l 272 817 b 240 815 268 808 257 808 l 39 939 b 35 968 25 944 24 954 m 178 714 b 203 689 194 714 203 706 l 203 25 b 178 0 203 8 194 0 l 133 0 b 108 25 117 0 108 8 l 108 689 b 133 714 108 706 117 714 "},"í":{"ha":276,"x_min":0,"x_max":0,"o":"m 210 996 b 256 993 231 1008 246 1007 l 276 968 b 271 939 288 954 286 944 l 71 814 b 38 815 54 807 43 807 l 26 831 b 29 860 17 843 18 853 m 174 714 b 199 689 194 714 199 707 l 199 25 b 174 0 199 7 194 0 l 131 0 b 106 25 113 0 106 7 l 106 689 b 131 714 106 707 113 714 "},"î":{"ha":276,"x_min":0,"x_max":0,"o":"m 333 832 b 321 813 344 819 340 813 l 288 813 b 246 826 267 813 253 817 l 153 933 l 57 826 b 18 813 51 817 39 813 l -14 813 b -28 832 -33 813 -37 819 l 101 972 b 150 994 119 993 124 994 l 160 994 b 206 972 182 994 188 993 m 175 714 b 200 689 196 714 200 707 l 200 25 b 175 0 200 7 196 0 l 132 0 b 107 25 114 0 107 7 l 107 689 b 132 714 107 707 114 714 "},"ï":{"ha":276,"x_min":0,"x_max":0,"o":"m 38 969 b 83 925 72 969 83 958 l 83 914 b 38 869 83 879 72 869 l 29 869 b -17 914 -6 869 -17 879 l -17 925 b 29 969 -17 958 -6 969 m 247 969 b 293 925 281 969 293 958 l 293 914 b 247 869 293 881 281 869 l 239 869 b 192 914 201 869 192 879 l 192 925 b 239 969 192 958 204 969 m 160 714 b 185 689 181 714 185 707 l 185 25 b 160 0 185 7 181 0 l 117 0 b 92 25 99 0 92 7 l 92 689 b 117 714 92 707 99 714 "},"ð":{"ha":765,"x_min":0,"x_max":0,"o":"m 578 1038 b 599 1038 583 1044 590 1044 l 624 1019 b 625 999 631 1013 632 1006 l 558 928 b 681 554 640 854 681 731 l 681 249 b 375 -19 681 78 574 -19 b 67 249 174 -19 67 78 l 67 431 b 357 701 67 599 174 701 b 592 592 475 701 554 665 b 497 860 589 717 557 806 l 406 763 b 385 761 399 756 392 756 l 361 779 b 360 800 354 786 353 793 l 446 892 b 203 944 389 926 307 944 b 176 968 182 944 176 950 l 175 1004 b 200 1031 175 1022 183 1031 b 507 963 329 1031 432 1008 m 588 432 b 375 617 588 550 513 617 b 161 431 235 617 161 549 l 161 250 b 375 65 161 132 235 65 b 588 250 513 65 588 132 "},"ñ":{"ha":763,"x_min":0,"x_max":0,"o":"m 574 981 b 590 964 585 981 590 975 b 482 826 590 872 554 826 b 372 874 449 826 413 842 b 278 919 332 904 301 919 b 222 843 243 919 222 892 b 207 826 222 832 217 826 l 179 826 b 163 843 168 826 163 832 b 271 981 163 935 199 981 b 476 888 356 981 417 888 b 531 964 513 888 531 913 b 547 981 531 975 536 981 m 142 688 b 400 735 218 719 304 735 b 676 463 585 735 676 644 l 676 25 b 651 0 676 8 668 0 l 608 0 b 583 25 590 0 583 7 l 583 460 b 389 649 583 586 518 649 b 204 618 324 649 261 639 b 183 583 190 611 183 600 l 183 25 b 158 0 183 8 175 0 l 114 0 b 89 25 97 0 89 8 l 89 611 b 142 688 89 654 99 669 "},"ò":{"ha":749,"x_min":0,"x_max":0,"o":"m 249 997 b 296 1000 258 1010 275 1010 l 521 860 b 522 832 533 853 533 844 l 510 817 b 476 814 504 810 493 808 l 232 943 b 228 972 218 949 217 958 m 69 479 b 374 735 69 639 185 735 b 681 479 564 735 681 639 l 681 235 b 374 -19 681 75 564 -19 b 69 235 185 -19 69 78 m 586 479 b 374 650 586 585 506 650 b 163 479 244 650 163 585 l 163 235 b 374 65 163 129 246 65 b 586 235 506 65 586 129 "},"ó":{"ha":749,"x_min":0,"x_max":0,"o":"m 454 1000 b 501 997 475 1010 492 1010 l 522 972 b 518 943 533 958 532 949 l 274 814 b 240 817 257 808 246 810 l 228 832 b 229 860 217 844 217 853 m 69 479 b 374 735 69 639 185 735 b 681 479 564 735 681 639 l 681 235 b 374 -19 681 75 564 -19 b 69 235 185 -19 69 78 m 586 479 b 374 650 586 585 506 650 b 163 479 244 650 163 585 l 163 235 b 374 65 163 129 246 65 b 586 235 506 65 586 129 "},"ô":{"ha":749,"x_min":0,"x_max":0,"o":"m 381 992 b 428 969 403 992 407 990 l 593 824 b 581 804 606 811 601 804 l 544 804 b 504 818 526 804 513 808 l 374 929 l 242 818 b 203 804 232 808 218 804 l 167 804 b 156 824 146 804 144 814 l 322 969 b 371 992 343 990 347 992 m 69 479 b 374 735 69 639 185 735 b 681 479 564 735 681 639 l 681 235 b 374 -19 681 75 564 -19 b 69 235 185 -19 69 78 m 586 479 b 374 650 586 585 506 650 b 163 479 244 650 163 585 l 163 235 b 374 65 163 129 246 65 b 586 235 506 65 586 129 "},"õ":{"ha":749,"x_min":0,"x_max":0,"o":"m 568 981 b 585 964 579 981 585 975 b 476 825 585 871 549 825 b 367 872 443 825 407 840 b 272 918 326 903 296 918 b 217 842 235 918 217 893 b 200 825 217 831 211 825 l 172 825 b 156 842 161 825 156 831 b 264 981 156 935 192 981 b 469 888 349 981 410 888 b 525 964 507 888 525 913 b 540 981 525 975 531 981 m 69 479 b 374 735 69 639 185 735 b 681 479 564 735 681 639 l 681 235 b 374 -19 681 75 564 -19 b 69 235 185 -19 69 78 m 586 479 b 374 650 586 585 506 650 b 163 479 244 650 163 585 l 163 235 b 374 65 163 129 246 65 b 586 235 506 65 586 129 "},"ö":{"ha":749,"x_min":0,"x_max":0,"o":"m 243 954 b 289 910 278 954 289 943 l 289 899 b 243 853 289 864 278 853 l 235 853 b 189 899 200 853 189 864 l 189 910 b 235 954 189 943 200 954 m 513 954 b 558 910 547 954 558 943 l 558 899 b 513 853 558 864 547 853 l 504 853 b 458 899 469 853 458 864 l 458 910 b 504 954 458 943 469 954 m 69 479 b 374 735 69 639 185 735 b 681 479 564 735 681 639 l 681 235 b 374 -19 681 75 564 -19 b 69 235 185 -19 69 78 m 586 479 b 374 650 586 585 506 650 b 163 479 244 650 163 585 l 163 235 b 374 65 163 129 246 65 b 586 235 506 65 586 129 "},"÷":{"ha":803,"x_min":0,"x_max":0,"o":"m 406 783 b 461 728 446 783 461 768 l 461 718 b 406 664 461 678 449 664 l 397 664 b 343 718 357 664 343 675 l 343 728 b 397 783 343 771 357 783 m 701 496 b 728 468 722 496 728 489 l 728 433 b 701 406 728 413 722 406 l 101 406 b 75 433 83 406 75 415 l 75 468 b 101 496 75 486 83 496 m 406 240 b 461 186 449 240 461 226 l 461 176 b 406 121 461 133 446 121 l 397 121 b 343 176 354 121 343 133 l 343 186 b 397 240 343 226 357 240 "},"ø":{"ha":749,"x_min":0,"x_max":0,"o":"m 656 767 b 660 757 663 767 664 764 l 601 664 b 681 479 654 618 681 557 l 681 235 b 374 -19 681 75 564 -19 b 193 21 303 -19 242 -6 l 156 -40 b 136 -49 151 -46 144 -49 l 97 -49 b 93 -39 90 -49 89 -43 l 149 50 b 69 235 96 96 69 157 l 69 479 b 374 735 69 639 185 735 b 556 693 444 735 506 721 l 597 758 b 615 767 601 764 608 767 m 508 618 b 374 650 471 639 425 650 b 163 479 244 650 163 585 l 163 235 b 204 138 163 194 176 163 m 242 97 b 374 65 276 76 321 65 b 586 235 506 65 586 129 l 586 479 b 546 576 586 519 572 551 "},"ù":{"ha":763,"x_min":0,"x_max":0,"o":"m 254 997 b 301 1000 264 1010 281 1010 l 526 860 b 528 832 539 853 539 844 l 515 817 b 482 814 510 810 499 808 l 238 943 b 233 972 224 949 222 958 m 649 714 b 674 689 665 714 674 706 l 674 103 b 621 26 674 60 664 44 b 361 -19 547 -4 460 -19 b 86 251 178 -19 86 71 l 86 689 b 111 714 86 707 93 714 l 154 714 b 179 689 175 714 179 707 l 179 256 b 374 65 179 129 244 65 b 554 96 443 65 503 75 b 579 135 571 103 579 117 l 579 689 b 604 714 579 706 588 714 "},"ú":{"ha":763,"x_min":0,"x_max":0,"o":"m 460 1000 b 507 997 481 1010 497 1010 l 528 972 b 524 943 539 958 538 949 l 279 814 b 246 817 263 808 251 810 l 233 832 b 235 860 222 844 222 853 m 649 714 b 674 689 665 714 674 706 l 674 103 b 621 26 674 60 664 44 b 361 -19 547 -4 460 -19 b 86 251 178 -19 86 71 l 86 689 b 111 714 86 707 93 714 l 154 714 b 179 689 175 714 179 707 l 179 256 b 374 65 179 129 244 65 b 554 96 443 65 503 75 b 579 135 571 103 579 117 l 579 689 b 604 714 579 706 588 714 "},"û":{"ha":763,"x_min":0,"x_max":0,"o":"m 388 999 b 435 975 403 999 419 990 l 604 826 b 592 806 617 813 613 806 l 554 806 b 513 819 535 806 521 810 l 379 935 l 244 819 b 204 806 235 810 221 806 l 168 806 b 156 826 147 806 143 813 l 326 975 b 376 999 349 997 353 999 m 649 714 b 674 689 665 714 674 706 l 674 103 b 621 26 674 60 664 44 b 361 -19 547 -4 460 -19 b 86 251 178 -19 86 71 l 86 689 b 111 714 86 707 93 714 l 154 714 b 179 689 175 714 179 707 l 179 256 b 374 65 179 129 244 65 b 554 96 443 65 503 75 b 579 135 571 103 579 117 l 579 689 b 604 714 579 706 588 714 "},"ü":{"ha":763,"x_min":0,"x_max":0,"o":"m 249 954 b 294 910 283 954 294 943 l 294 899 b 249 853 294 864 283 853 l 240 853 b 194 899 206 853 194 864 l 194 910 b 240 954 194 943 206 954 m 518 954 b 564 910 553 954 564 943 l 564 899 b 518 853 564 864 553 853 l 510 853 b 464 899 475 853 464 864 l 464 910 b 510 954 464 943 475 954 m 649 714 b 674 689 665 714 674 706 l 674 103 b 621 26 674 60 664 44 b 361 -19 547 -4 460 -19 b 86 251 178 -19 86 71 l 86 689 b 111 714 86 707 93 714 l 154 714 b 179 689 175 714 179 707 l 179 256 b 374 65 179 129 244 65 b 554 96 443 65 503 75 b 579 135 571 103 579 117 l 579 689 b 604 714 579 706 588 714 "},"ý":{"ha":765,"x_min":0,"x_max":0,"o":"m 461 1000 b 508 997 482 1010 499 1010 l 529 972 b 525 943 540 958 539 949 l 281 814 b 247 817 264 808 253 810 l 235 832 b 236 860 224 844 224 853 m 650 714 b 675 689 667 714 675 706 l 675 -43 b 379 -343 675 -243 576 -343 b 103 -194 249 -343 157 -293 b 113 -153 92 -176 94 -162 l 143 -137 b 183 -147 160 -128 174 -132 b 378 -258 224 -221 288 -258 b 581 -47 513 -258 581 -187 l 581 35 b 363 -1 499 11 426 -1 b 88 269 179 -1 88 89 l 88 689 b 113 714 88 707 94 714 l 156 714 b 181 689 176 714 181 707 l 181 274 b 375 83 181 147 246 83 b 581 121 435 83 503 96 l 581 689 b 606 714 581 706 589 714 "},"þ":{"ha":749,"x_min":0,"x_max":0,"o":"m 93 1003 b 118 1028 93 1019 101 1028 l 161 1028 b 186 1003 178 1028 186 1019 l 186 689 b 392 728 258 715 326 728 b 681 450 585 728 681 635 l 681 256 b 394 -21 681 71 585 -21 b 186 28 329 -21 260 -4 l 186 -281 b 161 -306 186 -299 179 -306 l 118 -306 b 93 -281 97 -306 93 -299 m 586 447 b 379 642 586 576 517 642 b 186 600 322 642 257 628 l 186 113 b 389 64 264 81 332 64 b 586 258 521 64 586 129 "},"ÿ":{"ha":765,"x_min":0,"x_max":0,"o":"m 250 954 b 296 910 285 954 296 943 l 296 899 b 250 853 296 864 285 853 l 242 853 b 196 899 207 853 196 864 l 196 910 b 242 954 196 943 207 954 m 519 954 b 565 910 554 954 565 943 l 565 899 b 519 853 565 864 554 853 l 511 853 b 465 899 476 853 465 864 l 465 910 b 511 954 465 943 476 954 m 650 714 b 675 689 667 714 675 706 l 675 -43 b 379 -343 675 -243 576 -343 b 103 -194 249 -343 157 -293 b 113 -153 92 -176 94 -162 l 143 -137 b 183 -147 160 -128 174 -132 b 378 -258 224 -221 288 -258 b 581 -47 513 -258 581 -187 l 581 35 b 363 -1 499 11 426 -1 b 88 269 179 -1 88 89 l 88 689 b 113 714 88 707 94 714 l 156 714 b 181 689 176 714 181 707 l 181 274 b 375 83 181 147 246 83 b 581 121 435 83 503 96 l 581 689 b 606 714 581 706 589 714 "},"Ā":{"ha":890,"x_min":0,"x_max":0,"o":"m 619 1181 b 643 1157 638 1181 643 1175 l 643 1135 b 619 1111 643 1117 638 1111 l 292 1111 b 268 1135 274 1111 268 1117 l 268 1157 b 292 1181 268 1172 276 1181 m 885 26 b 865 0 892 8 886 0 l 825 0 b 775 25 796 0 779 8 l 671 289 l 236 289 l 132 25 b 83 0 126 4 117 0 l 46 0 b 28 26 26 0 21 8 l 400 967 b 435 990 406 982 417 990 l 476 990 b 513 968 494 990 507 983 m 476 799 b 457 894 464 836 457 868 l 450 894 b 433 799 450 865 444 833 l 265 372 l 643 372 "},"ā":{"ha":711,"x_min":0,"x_max":0,"o":"m 514 932 b 538 908 532 932 538 926 l 538 886 b 514 863 538 868 532 863 l 188 863 b 164 886 169 863 164 868 l 164 908 b 188 932 164 924 172 932 m 75 589 b 354 735 126 686 219 735 b 632 460 560 735 632 628 l 632 96 b 582 17 632 47 621 33 b 351 -19 526 -7 450 -19 b 115 33 236 -19 158 -3 b 51 196 72 68 51 122 b 357 411 51 353 136 411 b 539 397 394 411 456 407 l 539 461 b 351 651 539 582 492 651 b 157 550 260 651 194 618 b 122 539 147 536 135 532 l 89 553 b 75 589 71 560 67 571 m 539 321 b 347 333 456 329 392 333 b 147 197 201 333 147 293 b 344 58 147 103 190 58 b 513 81 415 58 471 65 b 539 121 535 90 539 94 "},"Ă":{"ha":890,"x_min":0,"x_max":0,"o":"m 667 1210 b 456 1060 636 1110 565 1060 b 246 1210 346 1060 276 1110 b 257 1235 242 1222 246 1231 l 290 1247 b 317 1238 303 1251 313 1247 b 456 1129 336 1165 382 1129 b 596 1238 529 1129 575 1165 b 618 1247 600 1247 608 1251 l 656 1235 b 667 1210 667 1231 671 1222 m 885 26 b 865 0 892 8 886 0 l 825 0 b 775 25 796 0 779 8 l 671 289 l 236 289 l 132 25 b 83 0 126 4 117 0 l 46 0 b 28 26 26 0 21 8 l 400 967 b 435 990 406 982 417 990 l 476 990 b 513 968 494 990 507 983 m 476 799 b 457 894 464 836 457 868 l 450 894 b 433 799 450 865 444 833 l 265 372 l 643 372 "},"ă":{"ha":711,"x_min":0,"x_max":0,"o":"m 561 961 b 350 810 532 860 461 810 b 140 961 240 810 171 860 b 153 985 136 971 140 979 l 186 997 b 211 988 199 1001 207 997 b 350 881 232 917 278 881 b 490 988 424 881 469 917 b 513 999 494 997 503 1001 l 550 985 b 561 961 563 979 565 971 m 75 589 b 354 735 126 686 219 735 b 632 460 560 735 632 628 l 632 96 b 582 17 632 47 621 33 b 351 -19 526 -7 450 -19 b 115 33 236 -19 158 -3 b 51 196 72 68 51 122 b 357 411 51 353 136 411 b 539 397 394 411 456 407 l 539 461 b 351 651 539 582 492 651 b 157 550 260 651 194 618 b 122 539 147 536 135 532 l 89 553 b 75 589 71 560 67 571 m 539 321 b 347 333 456 329 392 333 b 147 197 201 333 147 293 b 344 58 147 103 190 58 b 513 81 415 58 471 65 b 539 121 535 90 539 94 "},"Ą":{"ha":889,"x_min":0,"x_max":0,"o":"m 478 990 b 513 968 496 990 508 983 l 883 28 b 882 1 889 17 889 8 b 775 -126 835 -39 799 -81 b 751 -232 751 -172 743 -207 b 804 -272 761 -258 778 -272 b 876 -242 832 -272 856 -262 b 893 -246 885 -235 890 -236 l 904 -274 b 901 -293 908 -282 907 -289 b 776 -343 868 -326 826 -343 b 671 -271 718 -343 683 -319 b 810 4 649 -194 699 -89 b 774 29 786 6 779 11 l 669 296 l 240 296 l 133 25 b 83 0 128 8 111 0 l 47 0 b 28 26 26 0 21 8 l 400 967 b 435 990 406 982 417 990 m 535 656 b 492 789 522 690 508 735 b 458 893 475 843 464 878 l 451 893 b 418 789 444 878 433 843 b 375 657 403 735 388 690 l 269 381 l 639 381 "},"ą":{"ha":715,"x_min":0,"x_max":0,"o":"m 75 589 b 354 735 126 686 219 735 b 632 460 560 735 632 628 l 632 96 b 615 35 632 67 626 46 b 504 -117 564 -14 528 -65 b 482 -232 481 -168 472 -206 b 536 -271 490 -258 508 -271 b 607 -240 563 -271 586 -261 b 624 -244 614 -235 619 -236 l 635 -274 b 632 -293 639 -281 638 -287 b 508 -343 597 -326 556 -343 b 401 -271 449 -343 413 -319 b 515 -3 379 -200 425 -90 b 351 -19 471 -14 417 -19 b 115 33 236 -19 158 -3 b 51 196 72 68 51 122 b 357 411 51 353 136 411 b 539 397 394 411 456 407 l 539 461 b 351 651 539 582 492 651 b 157 550 260 651 194 618 b 122 539 147 536 135 532 l 89 553 b 75 589 71 560 67 571 m 539 321 b 347 333 456 329 392 333 b 147 197 201 333 147 293 b 344 58 147 103 190 58 b 513 81 415 58 471 65 b 539 121 535 90 539 94 "},"Ć":{"ha":883,"x_min":0,"x_max":0,"o":"m 544 1247 b 592 1244 565 1257 582 1257 l 613 1219 b 608 1190 624 1206 622 1196 l 363 1061 b 331 1064 347 1056 336 1057 l 318 1079 b 319 1107 307 1092 307 1100 m 79 657 b 460 1006 79 875 214 1006 b 829 768 667 1006 779 928 b 813 732 836 747 833 739 l 769 717 b 733 733 751 713 740 718 b 460 913 694 857 617 913 b 181 658 278 913 181 819 l 181 328 b 460 74 181 168 281 74 b 736 257 619 74 697 131 b 772 275 743 274 756 279 l 815 258 b 832 224 832 251 838 240 b 460 -19 782 63 669 -19 b 79 329 217 -19 79 111 "},"ć":{"ha":715,"x_min":0,"x_max":0,"o":"m 451 1000 b 499 997 472 1010 489 1010 l 519 972 b 515 943 532 957 533 949 l 271 814 b 238 817 256 808 244 810 l 225 832 b 226 860 215 844 215 853 m 68 461 b 371 735 68 633 171 735 b 661 547 526 735 624 672 b 644 511 667 529 661 518 l 608 499 b 574 515 592 493 581 499 b 368 651 544 610 485 651 b 161 464 233 651 161 582 l 161 251 b 368 63 161 133 235 63 b 575 206 476 63 546 110 b 611 222 582 221 593 226 l 647 211 b 664 175 665 204 671 193 b 365 -19 621 46 522 -19 b 68 254 171 -19 68 82 "},"Ĉ":{"ha":883,"x_min":0,"x_max":0,"o":"m 471 1251 b 519 1229 493 1251 499 1250 l 689 1079 b 676 1060 701 1067 697 1060 l 639 1060 b 597 1074 619 1060 606 1064 l 464 1188 l 329 1074 b 289 1060 319 1064 306 1060 l 253 1060 b 240 1079 232 1060 228 1067 l 411 1229 b 461 1251 433 1250 438 1251 m 79 657 b 460 1006 79 875 214 1006 b 829 768 667 1006 779 928 b 813 732 836 747 833 739 l 769 717 b 733 733 751 713 740 718 b 460 913 694 857 617 913 b 181 658 278 913 181 819 l 181 328 b 460 74 181 168 281 74 b 736 257 619 74 697 131 b 772 275 743 274 756 279 l 815 258 b 832 224 832 251 838 240 b 460 -19 782 63 669 -19 b 79 329 217 -19 79 111 "},"ĉ":{"ha":715,"x_min":0,"x_max":0,"o":"m 379 992 b 425 969 400 992 404 990 l 592 824 b 579 804 603 814 600 804 l 542 804 b 501 818 524 804 510 808 l 371 929 l 239 818 b 200 804 229 808 217 804 l 165 804 b 153 824 144 804 140 811 l 319 969 b 368 992 340 990 344 992 m 68 461 b 371 735 68 633 171 735 b 661 547 526 735 624 672 b 644 511 667 529 661 518 l 608 499 b 574 515 592 493 581 499 b 368 651 544 610 485 651 b 161 464 233 651 161 582 l 161 251 b 368 63 161 133 235 63 b 575 206 476 63 546 110 b 611 222 582 221 593 226 l 647 211 b 664 175 665 204 671 193 b 365 -19 621 46 522 -19 b 68 254 171 -19 68 82 "},"Ċ":{"ha":883,"x_min":0,"x_max":0,"o":"m 468 1197 b 514 1150 503 1197 514 1188 l 514 1142 b 468 1096 514 1104 503 1096 l 461 1096 b 414 1142 424 1096 414 1107 l 414 1150 b 461 1197 414 1188 424 1197 m 79 657 b 460 1006 79 875 214 1006 b 829 768 667 1006 779 928 b 813 732 836 747 833 739 l 769 717 b 733 733 751 713 740 718 b 460 913 694 857 617 913 b 181 658 278 913 181 819 l 181 328 b 460 74 181 168 281 74 b 736 257 619 74 697 131 b 772 275 743 274 756 279 l 815 258 b 832 224 832 251 838 240 b 460 -19 782 63 669 -19 b 79 329 217 -19 79 111 "},"ċ":{"ha":715,"x_min":0,"x_max":0,"o":"m 375 949 b 422 901 413 949 422 936 l 422 894 b 375 847 422 857 413 847 l 368 847 b 321 894 331 847 321 857 l 321 901 b 368 949 321 936 333 949 m 68 461 b 371 735 68 633 171 735 b 661 547 526 735 624 672 b 644 511 667 529 661 518 l 608 499 b 574 515 592 493 581 499 b 368 651 544 610 485 651 b 161 464 233 651 161 582 l 161 251 b 368 63 161 133 235 63 b 575 206 476 63 546 110 b 611 222 582 221 593 226 l 647 211 b 664 175 665 204 671 193 b 365 -19 621 46 522 -19 b 68 254 171 -19 68 82 "},"Č":{"ha":883,"x_min":0,"x_max":0,"o":"m 674 1251 b 686 1231 694 1251 697 1240 l 517 1082 b 469 1058 501 1067 485 1058 l 458 1058 b 408 1082 435 1058 431 1060 l 239 1231 b 250 1251 228 1240 229 1251 l 286 1251 b 326 1238 303 1251 317 1247 l 461 1122 l 594 1238 b 636 1251 604 1247 618 1251 m 79 657 b 460 1006 79 875 214 1006 b 829 768 667 1006 779 928 b 813 732 836 747 833 739 l 769 717 b 733 733 751 713 740 718 b 460 913 694 857 617 913 b 181 658 278 913 181 819 l 181 328 b 460 74 181 168 281 74 b 736 257 619 74 697 131 b 772 275 743 274 756 279 l 815 258 b 832 224 832 251 838 240 b 460 -19 782 63 669 -19 b 79 329 217 -19 79 111 "},"č":{"ha":715,"x_min":0,"x_max":0,"o":"m 564 976 b 575 956 582 976 585 965 l 419 818 b 376 797 404 804 390 797 l 367 797 b 321 818 344 797 339 800 l 164 957 b 175 976 153 969 157 976 l 210 976 b 246 963 225 976 236 972 l 369 857 l 490 963 b 529 976 500 972 513 976 m 68 461 b 371 735 68 633 171 735 b 661 547 526 735 624 672 b 644 511 667 529 661 518 l 608 499 b 574 515 592 493 581 499 b 368 651 544 610 485 651 b 161 464 233 651 161 582 l 161 251 b 368 63 161 133 235 63 b 575 206 476 63 546 110 b 611 222 582 221 593 226 l 647 211 b 664 175 665 204 671 193 b 365 -19 621 46 522 -19 b 68 254 171 -19 68 82 "},"Ď":{"ha":907,"x_min":0,"x_max":0,"o":"m 640 1251 b 653 1231 661 1251 664 1240 l 483 1082 b 436 1058 461 1060 457 1058 l 425 1058 b 375 1082 401 1058 397 1060 l 206 1231 b 218 1251 194 1240 197 1251 l 254 1251 b 293 1238 271 1251 283 1247 l 429 1122 l 561 1238 b 603 1251 571 1247 585 1251 m 429 986 b 832 619 685 986 832 847 l 832 367 b 429 0 832 139 685 0 l 136 0 b 108 28 115 0 108 7 l 108 958 b 136 986 108 979 115 986 m 731 619 b 429 892 731 793 624 892 l 208 892 l 208 94 l 429 94 b 731 367 624 94 731 193 "},"ď":{"ha":799,"x_min":0,"x_max":0,"o":"m 69 457 b 343 735 69 635 160 735 b 563 694 411 735 485 721 l 563 1003 b 588 1028 563 1019 571 1028 l 631 1028 b 656 1003 649 1028 656 1021 l 656 97 b 601 22 656 53 646 40 b 361 -19 536 -6 456 -19 b 69 258 167 -19 69 74 m 826 731 b 800 707 821 713 817 707 l 775 707 b 758 725 760 707 757 710 l 811 1003 b 840 1028 813 1019 822 1028 l 876 1028 b 899 1003 897 1028 904 1019 m 563 607 b 360 649 492 635 424 649 b 163 454 228 649 163 583 l 163 260 b 369 65 163 131 232 65 b 536 92 432 65 488 74 b 563 128 558 101 563 106 "},"Đ":{"ha":922,"x_min":0,"x_max":0,"o":"m 444 986 b 847 619 700 986 847 847 l 847 367 b 444 0 847 139 700 0 l 151 0 b 124 28 131 0 124 7 l 124 467 l 22 467 b 3 486 10 467 3 474 l 3 515 b 22 535 3 528 10 535 l 124 535 l 124 958 b 151 986 124 979 131 986 m 747 619 b 446 892 747 793 640 892 l 225 892 l 225 535 l 464 535 b 482 515 476 535 482 528 l 482 486 b 464 467 482 474 476 467 l 225 467 l 225 94 l 446 94 b 747 367 639 94 747 193 "},"đ":{"ha":747,"x_min":0,"x_max":0,"o":"m 751 908 b 769 889 764 908 769 901 l 769 867 b 751 847 769 854 764 847 l 658 847 l 658 97 b 603 22 658 53 647 40 b 363 -19 538 -6 457 -19 b 71 258 168 -19 71 74 l 71 457 b 346 733 71 635 163 733 b 564 694 419 733 492 721 l 564 847 l 353 847 b 335 867 340 847 335 854 l 335 889 b 353 908 335 901 340 908 l 564 908 l 564 1003 b 589 1028 564 1019 572 1028 l 633 1028 b 658 1003 650 1028 658 1019 l 658 908 m 564 607 b 361 649 493 635 425 649 b 164 454 229 649 164 583 l 164 260 b 371 65 164 131 233 65 b 539 92 433 65 490 74 b 564 128 561 101 564 106 "},"Ē":{"ha":796,"x_min":0,"x_max":0,"o":"m 581 1181 b 606 1157 599 1181 606 1175 l 606 1135 b 581 1111 606 1117 599 1111 l 254 1111 b 231 1135 236 1111 231 1117 l 231 1157 b 254 1181 231 1172 239 1181 m 699 986 b 725 958 717 986 725 976 l 725 919 b 699 892 725 901 717 892 l 208 892 l 208 547 l 636 547 b 663 519 654 547 663 538 l 663 481 b 636 453 663 463 654 453 l 208 453 l 208 94 l 717 94 b 743 67 735 94 743 85 l 743 28 b 717 0 743 10 735 0 l 136 0 b 108 28 115 0 108 7 l 108 958 b 136 986 108 979 115 986 "},"ē":{"ha":736,"x_min":0,"x_max":0,"o":"m 522 924 b 544 900 540 924 544 918 l 544 881 b 522 857 544 863 540 857 l 222 857 b 201 881 206 857 201 863 l 201 900 b 222 924 201 915 208 924 m 65 442 b 372 735 65 626 172 735 b 681 447 574 735 681 621 l 681 371 b 639 332 681 344 667 332 l 158 332 l 158 251 b 367 61 158 131 232 61 b 585 176 469 61 542 100 b 625 186 596 192 610 194 l 654 171 b 664 131 672 161 675 149 b 367 -19 608 31 510 -19 b 65 261 165 -19 65 88 m 588 453 b 372 654 588 579 513 654 b 158 453 233 654 158 579 l 158 404 l 588 404 "},"Ĕ":{"ha":796,"x_min":0,"x_max":0,"o":"m 629 1210 b 418 1060 599 1110 528 1060 b 208 1210 308 1060 238 1110 b 219 1235 204 1221 207 1229 l 253 1247 b 278 1238 265 1251 274 1247 b 418 1129 299 1165 344 1129 b 557 1238 490 1129 536 1165 b 579 1247 561 1247 569 1251 l 617 1235 b 629 1210 629 1229 633 1221 m 699 986 b 725 958 717 986 725 976 l 725 919 b 699 892 725 901 717 892 l 208 892 l 208 547 l 636 547 b 663 519 654 547 663 538 l 663 481 b 636 453 663 463 654 453 l 208 453 l 208 94 l 717 94 b 743 67 735 94 743 85 l 743 28 b 717 0 743 10 735 0 l 136 0 b 108 28 115 0 108 7 l 108 958 b 136 986 108 979 115 986 "},"ĕ":{"ha":736,"x_min":0,"x_max":0,"o":"m 583 961 b 372 811 554 861 483 811 b 163 961 263 811 193 861 b 175 986 158 972 163 981 l 208 999 b 233 989 221 1003 229 999 b 372 881 254 917 300 881 b 513 989 446 881 492 917 b 535 999 517 999 525 1003 l 572 986 b 583 961 585 981 588 972 m 65 442 b 372 735 65 626 172 735 b 681 447 574 735 681 621 l 681 371 b 639 332 681 344 667 332 l 158 332 l 158 251 b 367 61 158 131 232 61 b 585 176 469 61 542 100 b 625 186 596 192 610 194 l 654 171 b 664 131 672 161 675 149 b 367 -19 608 31 510 -19 b 65 261 165 -19 65 88 m 588 453 b 372 654 588 579 513 654 b 158 453 233 654 158 579 l 158 404 l 588 404 "},"Ė":{"ha":796,"x_min":0,"x_max":0,"o":"m 421 1197 b 468 1150 456 1197 468 1188 l 468 1142 b 421 1096 468 1107 458 1096 l 414 1096 b 367 1142 376 1096 367 1107 l 367 1150 b 414 1197 367 1188 376 1197 m 699 986 b 725 958 717 986 725 976 l 725 919 b 699 892 725 901 717 892 l 208 892 l 208 547 l 636 547 b 663 519 654 547 663 538 l 663 481 b 636 453 663 463 654 453 l 208 453 l 208 94 l 717 94 b 743 67 735 94 743 85 l 743 28 b 717 0 743 10 735 0 l 136 0 b 108 28 115 0 108 7 l 108 958 b 136 986 108 979 115 986 "},"ė":{"ha":736,"x_min":0,"x_max":0,"o":"m 376 950 b 424 903 411 950 424 940 l 424 894 b 376 847 424 857 411 847 l 369 847 b 322 894 332 847 322 857 l 322 903 b 369 950 322 940 332 950 m 65 442 b 372 735 65 626 172 735 b 681 447 574 735 681 621 l 681 371 b 639 332 681 344 667 332 l 158 332 l 158 251 b 367 61 158 131 232 61 b 585 176 469 61 542 100 b 625 186 596 192 610 194 l 654 171 b 664 131 672 161 675 149 b 367 -19 608 31 510 -19 b 65 261 165 -19 65 88 m 588 453 b 372 654 588 579 513 654 b 158 453 233 654 158 579 l 158 404 l 588 404 "},"Ę":{"ha":796,"x_min":0,"x_max":0,"o":"m 699 986 b 725 958 717 986 725 976 l 725 919 b 699 892 725 901 717 892 l 208 892 l 208 546 l 636 546 b 663 518 654 546 663 536 l 663 479 b 636 451 663 461 654 451 l 208 451 l 208 94 l 717 94 b 743 67 735 94 743 85 l 743 28 b 735 4 743 18 740 10 b 594 -231 625 -86 576 -179 b 649 -268 604 -256 622 -268 b 717 -239 675 -268 699 -258 b 733 -243 725 -233 731 -235 l 744 -272 b 743 -290 749 -281 747 -286 b 619 -340 710 -324 668 -340 b 513 -269 568 -340 525 -314 b 658 0 489 -196 543 -89 l 136 0 b 108 28 115 0 108 7 l 108 958 b 136 986 108 979 115 986 "},"ę":{"ha":736,"x_min":0,"x_max":0,"o":"m 65 442 b 372 735 65 626 172 735 b 681 447 574 735 681 621 l 681 371 b 639 332 681 344 667 332 l 158 332 l 158 251 b 367 61 158 131 232 61 b 585 176 469 61 542 100 b 625 186 596 192 610 194 l 654 171 b 664 131 672 161 675 149 b 610 60 650 104 632 81 b 497 -107 561 6 524 -50 b 472 -232 471 -164 463 -206 b 528 -272 481 -258 499 -272 b 599 -240 554 -272 578 -261 b 614 -244 606 -235 611 -236 l 625 -274 b 624 -293 629 -282 628 -289 b 499 -343 588 -326 546 -343 b 392 -271 440 -343 404 -319 b 504 3 371 -203 415 -96 b 367 -19 464 -12 418 -19 b 65 261 165 -19 65 88 m 588 453 b 372 654 588 579 513 654 b 158 453 233 654 158 579 l 158 404 l 588 404 "},"Ě":{"ha":796,"x_min":0,"x_max":0,"o":"m 628 1251 b 639 1231 649 1251 650 1240 l 469 1082 b 422 1058 447 1060 443 1058 l 411 1058 b 363 1082 388 1058 383 1060 l 192 1231 b 204 1251 181 1240 183 1251 l 240 1251 b 279 1238 257 1251 269 1247 l 415 1122 l 547 1238 b 589 1251 557 1247 571 1251 m 699 986 b 725 958 717 986 725 976 l 725 919 b 699 892 725 901 717 892 l 208 892 l 208 547 l 636 547 b 663 519 654 547 663 538 l 663 481 b 636 453 663 463 654 453 l 208 453 l 208 94 l 717 94 b 743 67 735 94 743 85 l 743 28 b 717 0 743 10 735 0 l 136 0 b 108 28 115 0 108 7 l 108 958 b 136 986 108 979 115 986 "},"ě":{"ha":736,"x_min":0,"x_max":0,"o":"m 565 976 b 576 957 583 976 588 969 l 421 819 b 378 799 407 806 393 799 l 368 799 b 322 819 346 799 340 801 l 165 957 b 176 976 156 969 158 976 l 211 976 b 247 964 226 976 238 972 l 371 857 l 492 964 b 531 976 500 972 513 976 m 65 442 b 372 735 65 626 172 735 b 681 447 574 735 681 621 l 681 371 b 639 332 681 344 667 332 l 158 332 l 158 251 b 367 61 158 131 232 61 b 585 176 469 61 542 100 b 625 186 596 192 610 194 l 654 171 b 664 131 672 161 675 149 b 367 -19 608 31 510 -19 b 65 261 165 -19 65 88 m 588 453 b 372 654 588 579 513 654 b 158 453 233 654 158 579 l 158 404 l 588 404 "},"Ĝ":{"ha":910,"x_min":0,"x_max":0,"o":"m 468 1265 b 515 1243 485 1265 500 1258 l 685 1093 b 672 1074 697 1083 693 1074 l 635 1074 b 593 1088 617 1074 603 1078 l 460 1201 l 325 1088 b 286 1074 315 1078 303 1074 l 250 1074 b 236 1093 229 1074 225 1083 l 407 1243 b 457 1265 429 1264 433 1265 m 814 511 b 842 483 835 511 842 504 l 842 313 b 461 -19 842 108 704 -19 b 79 331 215 -19 79 113 l 79 657 b 460 1006 79 875 214 1006 b 829 768 667 1006 779 928 b 813 732 836 747 833 739 l 769 717 b 733 733 751 713 740 718 b 460 913 694 857 617 913 b 179 658 276 913 179 819 l 179 331 b 461 74 179 168 279 74 b 743 313 640 74 743 167 l 743 417 l 475 417 b 447 444 454 417 447 424 l 447 483 b 475 511 447 504 454 511 "},"ĝ":{"ha":744,"x_min":0,"x_max":0,"o":"m 389 992 b 435 969 410 992 414 990 l 601 824 b 589 804 613 814 610 804 l 551 804 b 511 818 533 804 519 808 l 382 929 l 249 818 b 210 804 239 808 226 804 l 175 804 b 163 824 154 804 150 811 l 329 969 b 378 992 350 990 354 992 m 68 450 b 368 735 68 640 168 735 b 603 693 458 735 536 721 b 656 617 647 672 656 663 l 656 -43 b 363 -343 656 -243 558 -343 b 88 -194 233 -343 142 -293 b 97 -153 75 -176 79 -162 l 128 -137 b 168 -147 144 -128 158 -132 b 360 -258 208 -221 272 -258 b 563 -47 494 -258 563 -187 l 563 39 b 343 -3 488 11 414 -3 b 68 268 160 -3 68 88 m 536 622 b 374 649 489 640 435 649 b 163 449 233 649 163 582 l 163 271 b 354 83 163 146 226 83 b 563 124 422 83 492 97 l 563 586 b 536 622 563 608 560 613 "},"Ğ":{"ha":910,"x_min":0,"x_max":0,"o":"m 671 1224 b 460 1074 642 1124 572 1074 b 250 1224 350 1074 281 1124 b 263 1249 246 1235 250 1243 l 296 1261 b 321 1251 308 1265 317 1261 b 460 1143 342 1179 388 1143 b 600 1251 533 1143 579 1179 b 622 1261 604 1261 613 1265 l 660 1249 b 671 1224 672 1243 675 1235 m 814 511 b 842 483 835 511 842 504 l 842 313 b 461 -19 842 108 704 -19 b 79 331 215 -19 79 113 l 79 657 b 460 1006 79 875 214 1006 b 829 768 667 1006 779 928 b 813 732 836 747 833 739 l 769 717 b 733 733 751 713 740 718 b 460 913 694 857 617 913 b 179 658 276 913 179 819 l 179 331 b 461 74 179 168 279 74 b 743 313 640 74 743 167 l 743 417 l 475 417 b 447 444 454 417 447 424 l 447 483 b 475 511 447 504 454 511 "},"ğ":{"ha":744,"x_min":0,"x_max":0,"o":"m 593 961 b 382 810 563 860 492 810 b 172 961 272 810 201 860 b 183 985 168 971 171 979 l 217 997 b 242 988 229 1001 238 997 b 382 881 263 917 308 881 b 521 988 454 881 500 917 b 543 999 525 997 533 1001 l 581 985 b 593 961 593 979 597 971 m 68 450 b 368 735 68 640 168 735 b 603 693 458 735 536 721 b 656 617 647 672 656 663 l 656 -43 b 363 -343 656 -243 558 -343 b 88 -194 233 -343 142 -293 b 97 -153 75 -176 79 -162 l 128 -137 b 168 -147 144 -128 158 -132 b 360 -258 208 -221 272 -258 b 563 -47 494 -258 563 -187 l 563 39 b 343 -3 488 11 414 -3 b 68 268 160 -3 68 88 m 536 622 b 374 649 489 640 435 649 b 163 449 233 649 163 582 l 163 271 b 354 83 163 146 226 83 b 563 124 422 83 492 97 l 563 586 b 536 622 563 608 560 613 "},"Ġ":{"ha":910,"x_min":0,"x_max":0,"o":"m 464 1211 b 511 1164 501 1211 511 1201 l 511 1156 b 464 1110 511 1121 501 1110 l 457 1110 b 410 1156 419 1110 410 1121 l 410 1164 b 457 1211 410 1201 422 1211 m 814 511 b 842 483 835 511 842 504 l 842 313 b 461 -19 842 108 704 -19 b 79 331 215 -19 79 113 l 79 657 b 460 1006 79 875 214 1006 b 829 768 667 1006 779 928 b 813 732 836 747 833 739 l 769 717 b 733 733 751 713 740 718 b 460 913 694 857 617 913 b 179 658 276 913 179 819 l 179 331 b 461 74 179 168 279 74 b 743 313 640 74 743 167 l 743 417 l 475 417 b 447 444 454 417 447 424 l 447 483 b 475 511 447 504 454 511 "},"ġ":{"ha":744,"x_min":0,"x_max":0,"o":"m 385 949 b 432 901 419 949 432 936 l 432 894 b 385 847 432 857 419 847 l 378 847 b 331 894 340 847 331 857 l 331 901 b 378 949 331 936 340 949 m 68 450 b 368 735 68 640 168 735 b 603 693 458 735 536 721 b 656 617 647 672 656 663 l 656 -43 b 363 -343 656 -243 558 -343 b 88 -194 233 -343 142 -293 b 97 -153 75 -176 79 -162 l 128 -137 b 168 -147 144 -128 158 -132 b 360 -258 208 -221 272 -258 b 563 -47 494 -258 563 -187 l 563 39 b 343 -3 488 11 414 -3 b 68 268 160 -3 68 88 m 536 622 b 374 649 489 640 435 649 b 163 449 233 649 163 582 l 163 271 b 354 83 163 146 226 83 b 563 124 422 83 492 97 l 563 586 b 536 622 563 608 560 613 "},"Ģ":{"ha":910,"x_min":0,"x_max":0,"o":"m 814 511 b 842 483 835 511 842 504 l 842 313 b 461 -19 842 108 704 -19 b 79 331 215 -19 79 113 l 79 657 b 460 1006 79 875 214 1006 b 829 768 667 1006 779 928 b 813 732 836 747 833 739 l 769 717 b 733 733 751 713 740 718 b 460 913 694 857 617 913 b 179 658 276 913 179 819 l 179 331 b 461 74 179 168 279 74 b 743 313 640 74 743 167 l 743 417 l 475 417 b 447 444 454 417 447 424 l 447 483 b 475 511 447 504 454 511 m 469 -322 b 440 -346 465 -337 456 -346 l 410 -346 b 393 -328 396 -346 390 -340 l 439 -126 b 469 -100 440 -106 449 -100 l 511 -100 b 535 -128 535 -100 542 -110 "},"ģ":{"ha":746,"x_min":0,"x_max":0,"o":"m 386 997 b 418 1021 393 1018 400 1021 l 443 1021 b 461 1001 458 1021 464 1014 l 408 826 b 376 797 407 803 399 797 l 342 797 b 319 828 318 797 311 807 m 68 450 b 368 735 68 640 168 735 b 603 693 458 735 536 721 b 656 617 647 672 656 663 l 656 -43 b 363 -343 656 -243 558 -343 b 88 -194 233 -343 142 -293 b 97 -153 75 -176 79 -162 l 128 -137 b 168 -147 144 -128 158 -132 b 360 -258 208 -221 272 -258 b 563 -47 494 -258 563 -187 l 563 39 b 343 -3 488 11 414 -3 b 68 268 160 -3 68 88 m 536 622 b 374 649 489 640 435 649 b 163 449 233 649 163 582 l 163 271 b 354 83 163 146 226 83 b 563 124 422 83 492 97 l 563 586 b 536 622 563 608 560 613 "},"Ĥ":{"ha":946,"x_min":0,"x_max":0,"o":"m 481 1251 b 528 1229 503 1251 507 1250 l 697 1079 b 685 1060 710 1069 706 1060 l 647 1060 b 606 1074 629 1060 615 1064 l 474 1188 l 338 1074 b 299 1060 328 1064 315 1060 l 263 1060 b 250 1079 242 1060 238 1069 l 419 1229 b 469 1251 442 1250 446 1251 m 811 986 b 838 958 829 986 838 976 l 838 28 b 811 0 838 10 829 0 l 765 0 b 738 28 744 0 738 7 l 738 453 l 208 453 l 208 28 b 182 0 208 7 203 0 l 136 0 b 108 28 115 0 108 7 l 108 958 b 136 986 108 979 115 986 l 182 986 b 208 958 203 986 208 979 l 208 547 l 738 547 l 738 958 b 765 986 738 979 744 986 "},"ĥ":{"ha":765,"x_min":0,"x_max":0,"o":"m 164 1281 b 210 1260 179 1281 194 1274 l 372 1115 b 361 1094 385 1101 381 1094 l 324 1094 b 285 1110 307 1094 294 1100 l 157 1219 l 26 1110 b -11 1094 17 1100 4 1094 l -46 1094 b -58 1115 -67 1094 -71 1101 l 106 1260 b 154 1281 126 1278 131 1281 m 179 1028 b 204 1003 196 1028 204 1019 l 204 696 b 422 735 260 722 332 735 b 697 463 606 735 697 644 l 697 25 b 672 0 697 7 693 0 l 629 0 b 604 25 611 0 604 7 l 604 460 b 410 649 604 586 539 649 b 204 608 326 649 258 635 l 204 25 b 179 0 204 8 196 0 l 135 0 b 110 25 118 0 110 8 l 110 1003 b 135 1028 110 1019 118 1028 "},"Ħ":{"ha":958,"x_min":0,"x_max":0,"o":"m 928 822 b 946 803 940 822 946 815 l 946 781 b 928 760 946 767 940 760 l 844 760 l 844 28 b 817 0 844 7 838 0 l 771 0 b 743 28 750 0 743 7 l 743 453 l 215 453 l 215 28 b 188 0 215 7 208 0 l 142 0 b 114 28 121 0 114 7 l 114 760 l 31 760 b 13 781 18 760 13 767 l 13 803 b 31 822 13 815 18 822 l 114 822 l 114 958 b 142 986 114 979 121 986 l 188 986 b 215 958 208 986 215 979 l 215 822 l 743 822 l 743 958 b 771 986 743 979 750 986 l 817 986 b 844 958 838 986 844 979 l 844 822 m 215 760 l 215 547 l 743 547 l 743 760 "},"ħ":{"ha":765,"x_min":0,"x_max":0,"o":"m 186 696 b 403 735 242 722 314 735 b 679 463 588 735 679 644 l 679 25 b 654 0 679 8 671 0 l 611 0 b 586 25 593 0 586 7 l 586 460 b 392 649 586 586 521 649 b 186 608 308 649 240 635 l 186 25 b 161 0 186 8 178 0 l 117 0 b 92 25 100 0 92 8 l 92 854 l 19 854 b 1 874 4 854 1 857 l 1 893 b 19 913 1 906 7 913 l 92 913 l 92 1003 b 117 1028 92 1019 100 1028 l 161 1028 b 186 1003 178 1028 186 1019 l 186 913 l 404 913 b 421 893 417 913 421 908 l 421 874 b 404 854 421 857 419 854 l 186 854 "},"Ĩ":{"ha":317,"x_min":0,"x_max":0,"o":"m 353 1225 b 368 1208 363 1225 368 1219 b 260 1069 368 1115 332 1069 b 151 1117 226 1069 190 1085 b 57 1163 111 1147 81 1163 b 1 1086 19 1163 1 1138 b -15 1069 1 1075 -4 1069 l -43 1069 b -60 1086 -54 1069 -60 1075 b 49 1225 -60 1179 -24 1225 b 254 1132 133 1225 194 1132 b 310 1208 292 1132 310 1157 b 325 1225 310 1219 315 1225 m 108 958 b 136 986 108 979 115 986 l 182 986 b 208 958 203 986 208 979 l 208 28 b 182 0 208 7 203 0 l 136 0 b 108 28 115 0 108 7 "},"ĩ":{"ha":276,"x_min":0,"x_max":0,"o":"m 283 989 b 297 972 293 989 297 983 b 213 835 297 872 272 835 b 68 924 147 835 118 924 b 24 853 39 924 24 900 b 11 835 24 840 19 835 l -14 835 b -28 853 -24 835 -28 840 b 60 989 -28 943 1 989 b 140 944 89 989 115 974 b 206 899 165 914 188 899 b 247 972 233 899 247 924 b 260 989 247 983 251 989 m 160 714 b 185 689 181 714 185 707 l 185 25 b 160 0 185 7 181 0 l 117 0 b 92 25 99 0 92 7 l 92 689 b 117 714 92 707 99 714 "},"Ī":{"ha":317,"x_min":0,"x_max":0,"o":"m 322 1181 b 346 1157 340 1181 346 1175 l 346 1135 b 322 1111 346 1117 340 1111 l -6 1111 b -29 1135 -24 1111 -29 1117 l -29 1157 b -6 1181 -29 1172 -21 1181 m 108 958 b 136 986 108 979 115 986 l 182 986 b 208 958 203 986 208 979 l 208 28 b 182 0 208 7 203 0 l 136 0 b 108 28 115 0 108 7 "},"ī":{"ha":276,"x_min":0,"x_max":0,"o":"m 240 931 b 254 908 250 931 254 924 l 254 888 b 240 864 254 872 250 864 l 36 864 b 21 888 26 864 21 872 l 21 908 b 36 931 21 924 26 931 m 160 714 b 185 689 181 714 185 707 l 185 25 b 160 0 185 7 181 0 l 117 0 b 92 25 99 0 92 7 l 92 689 b 117 714 92 707 99 714 "},"Ĭ":{"ha":317,"x_min":0,"x_max":0,"o":"m 375 1210 b 164 1060 344 1110 274 1060 b -46 1210 54 1060 -17 1110 b -35 1235 -50 1222 -46 1231 l -1 1247 b 25 1238 11 1251 21 1247 b 164 1129 44 1165 90 1129 b 304 1238 238 1129 283 1165 b 326 1247 308 1247 317 1251 l 364 1235 b 375 1210 375 1231 379 1222 m 114 958 b 142 986 114 979 121 986 l 188 986 b 214 958 208 986 214 979 l 214 28 b 188 0 214 7 208 0 l 142 0 b 114 28 121 0 114 7 "},"ĭ":{"ha":276,"x_min":0,"x_max":0,"o":"m 311 983 b 324 960 324 979 328 971 b 143 814 300 863 240 814 b -35 960 50 814 -12 865 b -24 983 -39 972 -35 979 l 8 994 b 35 985 22 999 31 994 b 143 885 47 918 83 885 b 253 985 204 885 240 918 b 275 996 257 994 265 999 m 165 714 b 190 689 186 714 190 707 l 190 25 b 165 0 190 7 186 0 l 122 0 b 97 25 104 0 97 7 l 97 689 b 122 714 97 707 104 714 "},"Į":{"ha":317,"x_min":0,"x_max":0,"o":"m 306 -274 b 304 -293 310 -282 308 -289 b 179 -343 268 -326 226 -343 b 72 -271 121 -343 85 -319 b 168 1 51 -200 83 -110 b 140 28 146 1 140 10 l 140 958 b 168 986 140 979 147 986 l 214 986 b 240 958 235 986 240 979 l 240 28 b 235 4 240 17 239 8 b 154 -232 163 -94 136 -182 b 208 -271 163 -258 181 -271 b 278 -240 236 -271 260 -261 b 294 -244 286 -233 292 -235 "},"į":{"ha":278,"x_min":0,"x_max":0,"o":"m 142 857 b 90 908 103 857 90 869 l 90 918 b 142 969 90 957 103 969 l 150 969 b 201 918 189 969 201 957 l 201 908 b 150 857 201 869 189 857 m 249 -271 b 247 -289 253 -278 251 -285 b 143 -342 222 -324 188 -342 b 39 -258 88 -342 46 -312 b 60 -121 35 -217 42 -171 b 119 1 78 -71 97 -31 b 99 25 106 3 99 10 l 99 689 b 124 714 99 706 107 714 l 168 714 b 193 689 185 714 193 706 l 193 25 b 188 6 193 15 192 10 b 138 -108 169 -25 153 -62 b 119 -225 122 -153 117 -192 b 168 -272 124 -253 146 -272 b 219 -242 190 -272 207 -262 b 238 -246 226 -237 233 -239 "},"İ":{"ha":317,"x_min":0,"x_max":0,"o":"m 163 1197 b 208 1150 197 1197 208 1188 l 208 1142 b 163 1096 208 1104 197 1096 l 156 1096 b 108 1142 118 1096 108 1107 l 108 1150 b 156 1197 108 1188 118 1197 m 108 958 b 136 986 108 979 115 986 l 182 986 b 208 958 203 986 208 979 l 208 28 b 182 0 208 7 203 0 l 136 0 b 108 28 115 0 108 7 "},"ı":{"ha":278,"x_min":0,"x_max":0,"o":"m 161 714 b 186 689 178 714 186 706 l 186 25 b 161 0 186 8 178 0 l 117 0 b 92 25 100 0 92 8 l 92 689 b 117 714 92 706 100 714 "},"Ĳ":{"ha":1113,"x_min":0,"x_max":0,"o":"m 108 958 b 136 986 108 979 115 986 l 182 986 b 208 958 203 986 208 979 l 208 28 b 182 0 208 7 203 0 l 136 0 b 108 28 115 0 108 7 m 985 986 b 1011 960 1003 986 1011 978 l 1011 310 b 675 -21 1011 103 892 -21 b 349 239 497 -21 389 65 b 365 275 342 257 347 268 l 408 290 b 444 272 426 297 438 290 b 675 74 474 140 542 74 b 911 308 826 74 911 160 l 911 960 b 938 986 911 981 917 986 "},"ĳ":{"ha":617,"x_min":0,"x_max":0,"o":"m 143 969 b 194 918 182 969 194 957 l 194 908 b 143 857 194 869 182 857 l 135 857 b 83 908 96 857 83 869 l 83 918 b 135 969 83 957 96 969 m 481 969 b 533 918 519 969 533 957 l 533 908 b 481 857 533 869 519 857 l 474 857 b 421 908 433 857 421 869 l 421 918 b 474 969 421 957 433 969 m 161 714 b 186 689 178 714 186 706 l 186 25 b 161 0 186 8 178 0 l 117 0 b 92 25 100 0 92 8 l 92 689 b 117 714 92 706 100 714 m 499 714 b 524 689 519 714 524 707 l 524 -12 b 235 -319 524 -214 439 -319 b 210 -294 214 -319 210 -312 l 210 -258 b 235 -232 210 -240 218 -232 b 431 -11 379 -232 431 -160 l 431 689 b 456 714 431 707 438 714 "},"Ĵ":{"ha":792,"x_min":0,"x_max":0,"o":"m 658 1251 b 706 1229 675 1251 690 1244 l 875 1079 b 863 1060 888 1067 883 1060 l 825 1060 b 783 1074 806 1060 792 1064 l 650 1188 l 515 1074 b 475 1060 506 1064 492 1060 l 439 1060 b 426 1079 418 1060 414 1067 l 597 1229 b 647 1251 619 1250 624 1251 m 674 986 b 701 960 692 986 701 978 l 701 310 b 365 -21 701 103 581 -21 b 38 239 189 -21 79 65 b 54 275 31 257 36 268 l 99 290 b 133 272 115 297 126 290 b 365 74 163 140 232 74 b 600 308 517 74 600 160 l 600 960 b 626 986 600 981 606 986 "},"ĵ":{"ha":278,"x_min":0,"x_max":0,"o":"m 146 992 b 193 969 167 992 169 993 l 335 824 b 322 803 347 810 343 803 l 286 803 b 244 817 268 803 254 807 l 139 931 l 31 817 b -10 803 21 807 7 803 l -44 803 b -57 824 -62 803 -67 810 l 86 969 b 135 992 107 990 111 992 m 161 714 b 186 689 179 714 186 707 l 186 -12 b -103 -319 186 -214 101 -319 b -128 -294 -121 -319 -128 -312 l -128 -258 b -103 -232 -128 -240 -119 -232 b 93 -11 42 -232 93 -160 l 93 689 b 118 714 93 707 97 714 "},"Ķ":{"ha":846,"x_min":0,"x_max":0,"o":"m 818 28 b 803 0 828 10 824 0 l 758 0 b 703 25 724 0 714 4 l 549 333 b 350 454 504 422 457 454 l 208 454 l 208 28 b 182 0 208 7 203 0 l 136 0 b 108 28 115 0 108 7 l 108 958 b 136 986 108 979 115 986 l 182 986 b 208 958 203 986 208 979 l 208 546 l 342 546 l 372 546 l 683 963 b 739 986 696 978 714 986 l 789 986 b 803 960 810 986 814 972 l 474 526 b 642 371 543 507 599 456 m 440 -322 b 411 -346 436 -337 426 -346 l 381 -346 b 364 -328 365 -346 363 -343 l 410 -126 b 440 -100 411 -106 419 -100 l 482 -100 b 506 -128 506 -100 513 -110 "},"ķ":{"ha":704,"x_min":0,"x_max":0,"o":"m 671 29 b 656 0 682 8 678 0 l 614 0 b 571 22 586 0 581 4 l 465 239 b 331 324 438 299 399 324 l 186 324 l 186 26 b 160 0 186 6 181 0 l 119 0 b 93 26 99 0 93 6 l 93 1003 b 119 1028 93 1024 99 1028 l 160 1028 b 186 1003 181 1028 186 1024 l 186 410 l 319 410 l 332 410 l 556 694 b 604 714 568 713 575 714 l 643 714 b 660 685 668 714 674 704 l 425 392 b 546 279 475 379 515 342 m 375 -293 b 343 -317 371 -308 360 -317 l 318 -317 b 300 -297 303 -317 297 -310 l 340 -103 b 372 -74 342 -79 350 -74 l 408 -74 b 431 -103 431 -74 438 -83 "},"ĸ":{"ha":658,"x_min":0,"x_max":0,"o":"m 629 31 b 614 0 644 10 639 0 l 574 0 b 521 21 549 0 531 7 l 300 332 l 186 207 l 186 26 b 160 0 186 6 181 0 l 118 0 b 92 26 97 0 92 6 l 92 689 b 118 714 92 706 100 714 l 160 714 b 186 689 178 714 186 706 l 186 338 l 513 694 b 564 714 528 711 535 714 l 603 714 b 618 685 629 714 635 704 l 363 403 "},"Ĺ":{"ha":724,"x_min":0,"x_max":0,"o":"m 254 1247 b 301 1244 275 1257 292 1257 l 322 1219 b 318 1190 335 1204 336 1196 l 74 1061 b 40 1064 58 1056 47 1057 l 28 1079 b 31 1107 18 1092 18 1101 m 197 986 b 224 958 218 986 224 979 l 224 94 l 694 94 b 721 67 713 94 721 85 l 721 28 b 694 0 721 10 713 0 l 151 0 b 124 28 131 0 124 7 l 124 958 b 151 986 124 979 131 986 "},"ĺ":{"ha":288,"x_min":0,"x_max":0,"o":"m 215 1235 b 257 1229 232 1244 246 1242 l 281 1201 b 275 1172 292 1186 290 1176 l 72 1076 b 39 1078 56 1069 44 1069 l 25 1096 b 28 1125 17 1110 18 1119 m 203 25 b 178 0 203 8 194 0 l 133 0 b 110 25 115 0 110 7 l 110 1003 b 133 1028 110 1021 115 1028 l 178 1028 b 203 1003 194 1028 203 1019 "},"Ļ":{"ha":724,"x_min":0,"x_max":0,"o":"m 182 986 b 208 958 203 986 208 979 l 208 94 l 679 94 b 706 67 697 94 706 85 l 706 28 b 679 0 706 10 697 0 l 136 0 b 108 28 115 0 108 7 l 108 958 b 136 986 108 979 115 986 m 392 -322 b 361 -346 388 -337 376 -346 l 332 -346 b 315 -328 318 -346 313 -340 l 361 -126 b 392 -100 363 -106 371 -100 l 433 -100 b 457 -128 454 -100 463 -110 "},"ļ":{"ha":288,"x_min":0,"x_max":0,"o":"m 192 25 b 167 0 192 7 188 0 l 124 0 b 99 25 106 0 99 7 l 99 1003 b 124 1028 99 1021 106 1028 l 167 1028 b 192 1003 188 1028 192 1021 m 136 -282 b 104 -306 129 -300 122 -306 l 81 -306 b 63 -285 64 -306 61 -301 l 103 -83 b 135 -54 104 -60 113 -54 l 169 -54 b 192 -83 190 -54 199 -64 "},"Ľ":{"ha":725,"x_min":0,"x_max":0,"o":"m 182 986 b 208 958 203 986 208 979 l 208 94 l 679 94 b 706 67 697 94 706 85 l 706 28 b 679 0 706 10 697 0 l 136 0 b 108 28 115 0 108 7 l 108 958 b 136 986 108 979 115 986 m 515 699 b 486 675 511 683 501 675 l 464 675 b 447 693 450 675 444 681 l 494 961 b 525 986 496 982 503 986 l 564 986 b 586 960 585 986 593 978 "},"ľ":{"ha":297,"x_min":0,"x_max":0,"o":"m 190 25 b 165 0 190 7 186 0 l 122 0 b 97 25 104 0 97 7 l 97 1003 b 122 1028 97 1021 104 1028 l 165 1028 b 190 1003 186 1028 190 1021 m 372 769 b 343 746 365 754 356 746 l 321 746 b 304 765 308 746 303 753 l 344 1003 b 375 1028 346 1024 353 1028 l 414 1028 b 436 1001 435 1028 443 1019 "},"Ŀ":{"ha":725,"x_min":0,"x_max":0,"o":"m 182 986 b 208 958 203 986 208 979 l 208 94 l 679 94 b 706 67 697 94 706 85 l 706 28 b 679 0 706 10 697 0 l 136 0 b 108 28 115 0 108 7 l 108 958 b 136 986 108 979 115 986 m 488 564 b 543 508 531 564 543 549 l 543 500 b 488 444 543 460 531 444 l 479 444 b 425 500 436 444 425 457 l 425 508 b 479 564 425 551 439 564 "},"ŀ":{"ha":454,"x_min":0,"x_max":0,"o":"m 190 25 b 165 0 190 7 186 0 l 122 0 b 97 25 104 0 97 7 l 97 1003 b 122 1028 97 1021 104 1028 l 165 1028 b 190 1003 186 1028 190 1021 m 376 581 b 432 525 419 581 432 565 l 432 515 b 376 461 432 475 419 461 l 368 461 b 314 515 325 461 314 472 l 314 525 b 368 581 314 568 328 581 "},"Ł":{"ha":764,"x_min":0,"x_max":0,"o":"m 726 94 b 754 67 747 94 754 88 l 754 28 b 726 0 754 7 747 0 l 183 0 b 157 28 165 0 157 10 l 157 396 l 47 344 b 21 353 36 338 28 340 l 6 383 b 13 408 -1 396 1 404 l 157 476 l 157 958 b 183 986 157 976 165 986 l 231 986 b 257 958 249 986 257 976 l 257 522 l 546 661 b 575 651 560 667 569 664 l 590 622 b 581 597 596 611 593 603 l 257 442 l 257 94 "},"ł":{"ha":396,"x_min":0,"x_max":0,"o":"m 390 607 b 383 582 397 596 394 588 l 250 504 l 250 25 b 225 0 250 8 242 0 l 181 0 b 156 25 164 0 156 8 l 156 453 l 67 400 b 39 407 54 393 46 396 l 22 435 b 29 460 17 446 19 454 l 156 533 l 156 1003 b 181 1028 156 1019 164 1028 l 225 1028 b 250 1003 242 1028 250 1019 l 250 583 l 346 640 b 375 633 358 647 368 644 "},"Ń":{"ha":960,"x_min":0,"x_max":0,"o":"m 561 1247 b 608 1244 582 1257 599 1257 l 629 1219 b 625 1190 640 1206 639 1196 l 379 1061 b 347 1064 364 1056 353 1057 l 335 1079 b 336 1107 324 1092 324 1100 m 824 986 b 851 958 844 986 851 979 l 851 28 b 824 0 851 7 844 0 l 779 0 b 750 15 765 0 756 6 l 307 651 b 240 768 288 681 265 719 b 196 850 215 817 200 843 l 190 850 b 199 751 190 843 193 810 b 206 604 203 693 206 644 l 206 28 b 179 0 206 10 197 0 l 136 0 b 108 28 115 0 108 7 l 108 958 b 136 986 108 979 115 986 l 181 986 b 210 972 193 986 203 982 l 642 349 b 715 228 663 318 688 278 b 765 139 742 178 758 149 l 769 139 b 761 244 769 149 767 183 b 753 397 756 304 753 356 l 753 960 b 781 986 753 978 763 986 "},"ń":{"ha":763,"x_min":0,"x_max":0,"o":"m 461 1000 b 507 999 482 1013 497 1011 l 528 974 b 525 943 539 960 538 950 l 279 815 b 247 817 264 808 254 810 l 233 833 b 236 861 224 846 225 854 m 142 688 b 400 735 218 719 304 735 b 676 463 585 735 676 644 l 676 25 b 651 0 676 8 668 0 l 608 0 b 583 25 590 0 583 7 l 583 460 b 389 649 583 586 518 649 b 204 618 324 649 261 639 b 183 583 190 611 183 600 l 183 25 b 158 0 183 8 175 0 l 114 0 b 89 25 97 0 89 8 l 89 611 b 142 688 89 654 99 669 "},"Ņ":{"ha":960,"x_min":0,"x_max":0,"o":"m 824 986 b 851 958 844 986 851 979 l 851 28 b 824 0 851 7 844 0 l 779 0 b 750 15 765 0 756 6 l 307 651 b 240 768 288 681 265 719 b 196 850 215 817 200 843 l 190 850 b 199 751 190 843 193 810 b 206 604 203 693 206 644 l 206 28 b 179 0 206 10 197 0 l 136 0 b 108 28 115 0 108 7 l 108 958 b 136 986 108 979 115 986 l 181 986 b 210 972 193 986 203 982 l 642 349 b 715 228 663 318 688 278 b 765 139 742 178 758 149 l 769 139 b 761 244 769 149 767 183 b 753 397 756 304 753 356 l 753 960 b 781 986 753 978 763 986 m 472 -322 b 443 -346 468 -337 458 -346 l 413 -346 b 396 -328 397 -346 394 -343 l 442 -126 b 472 -100 443 -106 451 -100 l 514 -100 b 538 -128 538 -100 544 -110 "},"ņ":{"ha":763,"x_min":0,"x_max":0,"o":"m 142 688 b 400 735 218 719 304 735 b 676 463 585 735 676 644 l 676 25 b 651 0 676 8 668 0 l 608 0 b 583 25 590 0 583 7 l 583 460 b 389 649 583 586 518 649 b 204 618 324 649 261 639 b 183 583 190 611 183 600 l 183 25 b 158 0 183 8 175 0 l 114 0 b 89 25 97 0 89 8 l 89 611 b 142 688 89 654 99 669 m 382 -279 b 350 -303 378 -294 367 -303 l 326 -303 b 308 -282 310 -303 307 -299 l 349 -83 b 381 -54 350 -60 358 -54 l 417 -54 b 438 -83 438 -54 444 -64 "},"Ň":{"ha":960,"x_min":0,"x_max":0,"o":"m 690 1251 b 703 1231 711 1251 714 1240 l 533 1082 b 486 1058 518 1067 501 1058 l 475 1058 b 425 1082 451 1058 447 1060 l 256 1231 b 267 1251 242 1244 246 1251 l 303 1251 b 343 1238 319 1251 333 1247 l 478 1122 l 611 1238 b 653 1251 621 1247 635 1251 m 824 986 b 851 958 844 986 851 979 l 851 28 b 824 0 851 7 844 0 l 779 0 b 750 15 765 0 756 6 l 307 651 b 240 768 288 681 265 719 b 196 850 215 817 200 843 l 190 850 b 199 751 190 843 193 810 b 206 604 203 693 206 644 l 206 28 b 179 0 206 10 197 0 l 136 0 b 108 28 115 0 108 7 l 108 958 b 136 986 108 979 115 986 l 181 986 b 210 972 193 986 203 982 l 642 349 b 715 228 663 318 688 278 b 765 139 742 178 758 149 l 769 139 b 761 244 769 149 767 183 b 753 397 756 304 753 356 l 753 960 b 781 986 753 978 763 986 "},"ň":{"ha":763,"x_min":0,"x_max":0,"o":"m 572 976 b 583 957 593 976 596 969 l 428 819 b 385 799 415 806 400 799 l 375 799 b 329 819 353 799 350 799 l 174 957 b 183 976 163 969 165 976 l 218 976 b 254 964 233 976 244 972 l 378 857 l 500 964 b 538 976 508 972 521 976 m 142 688 b 400 735 218 719 304 735 b 676 463 585 735 676 644 l 676 25 b 651 0 676 8 668 0 l 608 0 b 583 25 590 0 583 7 l 583 460 b 389 649 583 586 518 649 b 204 618 324 649 261 639 b 183 583 190 611 183 600 l 183 25 b 158 0 183 8 175 0 l 114 0 b 89 25 97 0 89 8 l 89 611 b 142 688 89 654 99 669 "},"ŉ":{"ha":763,"x_min":0,"x_max":0,"o":"m 135 767 b 103 749 128 754 117 749 l 81 749 b 68 768 67 749 63 756 l 167 1006 b 197 1028 174 1024 176 1028 l 242 1028 b 258 1001 263 1028 268 1019 m 150 688 b 408 735 226 719 313 735 b 685 463 593 735 685 644 l 685 25 b 660 0 685 8 676 0 l 617 0 b 592 25 599 0 592 7 l 592 460 b 397 649 592 586 526 649 b 213 618 332 649 269 639 b 192 583 199 611 192 600 l 192 25 b 167 0 192 8 183 0 l 122 0 b 97 25 106 0 97 8 l 97 611 b 150 688 97 654 107 669 "},"Ŋ":{"ha":960,"x_min":0,"x_max":0,"o":"m 824 986 b 851 958 844 986 851 979 l 851 -17 b 538 -319 851 -207 742 -319 b 513 -294 517 -319 513 -312 l 513 -258 b 538 -232 513 -237 517 -232 b 753 -12 681 -232 753 -151 l 753 10 l 307 651 b 240 768 288 681 265 719 b 196 850 215 817 200 843 l 190 850 b 199 761 190 844 193 815 b 206 622 203 707 206 660 l 206 28 b 179 0 206 10 197 0 l 136 0 b 108 28 115 0 108 7 l 108 958 b 136 986 108 979 115 986 l 181 986 b 210 972 193 986 203 982 l 642 349 b 715 228 663 318 688 278 b 765 139 742 178 758 149 l 769 139 b 761 244 769 149 767 183 b 753 397 756 304 753 356 l 753 960 b 781 986 753 978 763 986 "},"ŋ":{"ha":763,"x_min":0,"x_max":0,"o":"m 142 688 b 400 735 218 719 304 735 b 676 463 585 735 676 644 l 676 -22 b 369 -319 676 -211 569 -319 b 346 -294 351 -319 346 -312 l 346 -260 b 369 -236 346 -242 351 -236 b 583 -19 510 -236 583 -157 l 583 460 b 389 649 583 586 518 649 b 204 618 324 649 261 639 b 183 583 190 611 183 600 l 183 25 b 158 0 183 8 175 0 l 114 0 b 89 25 97 0 89 8 l 89 611 b 142 688 89 654 99 669 "},"Ō":{"ha":921,"x_min":0,"x_max":0,"o":"m 625 1194 b 649 1171 643 1194 649 1189 l 649 1149 b 625 1125 649 1131 643 1125 l 297 1125 b 274 1149 279 1125 274 1131 l 274 1171 b 297 1194 274 1186 282 1194 m 79 657 b 461 1006 79 875 215 1006 b 842 657 706 1006 842 875 l 842 329 b 461 -19 842 111 706 -19 b 79 329 215 -19 79 111 m 742 657 b 461 913 742 819 643 913 b 179 657 279 913 179 819 l 179 329 b 461 74 179 167 279 74 b 742 329 643 74 742 167 "},"ō":{"ha":749,"x_min":0,"x_max":0,"o":"m 524 922 b 546 900 540 922 546 918 l 546 879 b 524 857 546 861 540 857 l 224 857 b 201 879 207 857 201 861 l 201 900 b 224 922 201 915 208 922 m 69 479 b 374 735 69 639 185 735 b 681 479 564 735 681 639 l 681 235 b 374 -19 681 75 564 -19 b 69 235 185 -19 69 78 m 586 479 b 374 650 586 585 506 650 b 163 479 244 650 163 585 l 163 235 b 374 65 163 129 246 65 b 586 235 506 65 586 129 "},"Ŏ":{"ha":921,"x_min":0,"x_max":0,"o":"m 672 1224 b 461 1074 642 1124 571 1074 b 251 1224 350 1074 281 1124 b 263 1249 247 1236 251 1244 l 296 1261 b 322 1251 308 1265 318 1261 b 461 1143 342 1179 388 1143 b 601 1251 535 1143 581 1179 b 624 1261 606 1261 614 1265 l 661 1249 b 672 1224 672 1244 676 1236 m 79 657 b 461 1006 79 875 215 1006 b 842 657 706 1006 842 875 l 842 329 b 461 -19 842 111 706 -19 b 79 329 215 -19 79 111 m 742 657 b 461 913 742 819 643 913 b 179 657 279 913 179 819 l 179 329 b 461 74 179 167 279 74 b 742 329 643 74 742 167 "},"ŏ":{"ha":749,"x_min":0,"x_max":0,"o":"m 585 961 b 374 810 554 860 483 810 b 164 961 264 810 194 860 b 175 985 160 972 164 981 l 208 997 b 235 988 221 1001 231 997 b 374 881 254 917 300 881 b 514 988 447 881 493 917 b 536 999 518 997 526 1001 l 574 985 b 585 961 585 981 589 972 m 69 479 b 374 735 69 639 185 735 b 681 479 564 735 681 639 l 681 235 b 374 -19 681 75 564 -19 b 69 235 185 -19 69 78 m 586 479 b 374 650 586 585 506 650 b 163 479 244 650 163 585 l 163 235 b 374 65 163 129 246 65 b 586 235 506 65 586 129 "},"Ő":{"ha":921,"x_min":0,"x_max":0,"o":"m 394 1251 b 436 1268 406 1268 419 1274 l 467 1260 b 475 1232 485 1253 488 1244 l 324 1083 b 293 1074 311 1072 301 1069 l 276 1078 b 268 1104 263 1082 260 1092 m 635 1251 b 676 1268 647 1268 661 1274 l 710 1260 b 718 1232 728 1253 731 1243 l 560 1081 b 528 1069 547 1069 538 1065 l 513 1075 b 504 1101 497 1079 494 1089 m 79 657 b 461 1006 79 875 215 1006 b 842 657 706 1006 842 875 l 842 329 b 461 -19 842 111 706 -19 b 79 329 215 -19 79 111 m 742 657 b 461 913 742 819 643 913 b 179 657 279 913 179 819 l 179 329 b 461 74 179 167 279 74 b 742 329 643 74 742 167 "},"ő":{"ha":749,"x_min":0,"x_max":0,"o":"m 313 961 b 351 976 322 976 336 981 l 379 968 b 388 942 396 964 399 954 l 247 806 b 219 796 238 796 228 793 l 204 801 b 196 825 192 806 189 813 m 535 960 b 574 975 546 974 558 979 l 604 967 b 611 940 622 960 624 950 l 463 806 b 435 794 453 796 443 792 l 419 800 b 413 824 406 804 403 811 m 69 479 b 374 735 69 639 185 735 b 681 479 564 735 681 639 l 681 235 b 374 -19 681 75 564 -19 b 69 235 185 -19 69 78 m 586 479 b 374 650 586 585 506 650 b 163 479 244 650 163 585 l 163 235 b 374 65 163 129 246 65 b 586 235 506 65 586 129 "},"Œ":{"ha":1174,"x_min":0,"x_max":0,"o":"m 1093 94 b 1121 67 1114 94 1121 88 l 1121 28 b 1093 0 1121 7 1114 0 l 615 0 b 461 -21 564 -14 513 -21 b 79 329 215 -21 79 111 l 79 657 b 461 1007 79 875 215 1007 b 615 986 515 1007 567 1000 l 1075 986 b 1103 958 1096 986 1103 979 l 1103 919 b 1075 892 1103 899 1096 892 l 688 892 l 688 546 l 1013 546 b 1040 518 1033 546 1040 539 l 1040 479 b 1013 451 1040 458 1033 451 l 688 451 l 688 94 m 179 329 b 461 74 179 167 279 74 b 588 92 511 74 553 79 l 588 894 b 461 913 550 907 507 913 b 179 657 279 913 179 819 "},"œ":{"ha":1135,"x_min":0,"x_max":0,"o":"m 576 613 b 803 735 617 694 692 735 b 1078 449 990 735 1078 625 l 1078 371 b 1036 332 1078 344 1064 332 l 621 332 l 621 250 b 799 61 621 124 681 61 b 982 175 894 61 938 97 b 1022 185 993 190 1007 193 l 1051 168 b 1061 129 1069 160 1074 147 b 799 -19 1007 31 938 -19 b 575 99 688 -19 613 19 b 346 -19 538 22 453 -19 b 72 233 175 -19 72 76 l 72 479 b 346 735 72 639 175 735 b 576 613 456 735 539 689 m 985 454 b 803 654 985 588 924 654 b 621 454 682 654 621 588 l 621 404 l 985 404 m 528 481 b 346 650 528 586 457 650 b 165 481 235 650 165 586 l 165 233 b 346 65 165 128 235 65 b 528 233 457 65 528 128 "},"Ŕ":{"ha":894,"x_min":0,"x_max":0,"o":"m 519 1247 b 567 1244 540 1257 557 1257 l 588 1219 b 583 1190 599 1206 597 1196 l 339 1061 b 306 1064 322 1056 311 1057 l 293 1079 b 294 1107 282 1092 282 1100 m 529 986 b 821 699 713 986 821 881 b 597 426 821 547 738 449 b 688 331 633 410 664 378 l 843 28 b 829 0 856 10 850 0 l 783 0 b 729 25 754 0 736 8 l 594 293 b 396 414 550 382 503 414 l 208 414 l 208 28 b 182 0 208 7 203 0 l 136 0 b 108 28 115 0 108 7 l 108 958 b 136 986 108 979 115 986 m 717 699 b 519 892 717 822 646 892 l 208 892 l 208 508 l 519 508 b 717 699 643 508 717 576 "},"ŕ":{"ha":475,"x_min":0,"x_max":0,"o":"m 363 1000 b 410 997 383 1010 400 1010 l 431 972 b 426 943 442 958 440 949 l 182 814 b 149 817 165 808 154 810 l 136 832 b 138 860 126 844 126 853 m 393 735 l 436 735 b 461 710 453 735 461 726 l 461 674 b 436 649 461 657 453 649 l 390 649 b 207 619 321 649 260 639 b 183 583 192 613 183 601 l 183 25 b 158 0 183 8 175 0 l 114 0 b 89 25 97 0 89 8 l 89 614 b 142 692 89 657 101 674 b 393 735 213 718 296 733 "},"Ŗ":{"ha":894,"x_min":0,"x_max":0,"o":"m 529 986 b 821 699 713 986 821 881 b 597 426 821 547 738 449 b 688 331 633 410 664 378 l 843 28 b 829 0 856 10 850 0 l 783 0 b 729 25 754 0 736 8 l 594 293 b 396 414 550 382 503 414 l 208 414 l 208 28 b 182 0 208 7 203 0 l 136 0 b 108 28 115 0 108 7 l 108 958 b 136 986 108 979 115 986 m 717 699 b 519 892 717 822 646 892 l 208 892 l 208 508 l 519 508 b 717 699 643 508 717 576 m 460 -322 b 429 -346 456 -337 444 -346 l 400 -346 b 383 -328 383 -346 379 -343 l 429 -126 b 460 -100 431 -106 439 -100 l 501 -100 b 525 -128 522 -100 531 -110 "},"ŗ":{"ha":475,"x_min":0,"x_max":0,"o":"m 397 735 l 440 735 b 465 710 457 735 465 726 l 465 674 b 440 649 465 657 457 649 l 394 649 b 211 619 325 649 264 639 b 188 583 196 613 188 601 l 188 25 b 163 0 188 8 179 0 l 118 0 b 93 25 101 0 93 8 l 93 614 b 146 692 93 657 106 674 b 397 735 217 718 300 733 m 133 -285 b 101 -310 129 -301 118 -310 l 76 -310 b 58 -289 61 -310 56 -303 l 97 -86 b 129 -58 99 -64 107 -58 l 165 -58 b 188 -86 186 -58 193 -68 "},"Ř":{"ha":894,"x_min":0,"x_max":0,"o":"m 649 1251 b 661 1231 669 1251 672 1240 l 492 1082 b 444 1058 476 1067 460 1058 l 433 1058 b 383 1082 410 1058 406 1060 l 214 1231 b 225 1251 203 1240 204 1251 l 261 1251 b 301 1238 278 1251 292 1247 l 436 1122 l 569 1238 b 611 1251 579 1247 593 1251 m 529 986 b 821 699 713 986 821 881 b 597 426 821 547 738 449 b 688 331 633 410 664 378 l 843 28 b 829 0 856 10 850 0 l 783 0 b 729 25 754 0 736 8 l 594 293 b 396 414 550 382 503 414 l 208 414 l 208 28 b 182 0 208 7 203 0 l 136 0 b 108 28 115 0 108 7 l 108 958 b 136 986 108 979 115 986 m 717 699 b 519 892 717 822 646 892 l 208 892 l 208 508 l 519 508 b 717 699 643 508 717 576 "},"ř":{"ha":475,"x_min":0,"x_max":0,"o":"m 478 976 b 488 956 496 976 499 965 l 333 818 b 290 797 318 804 304 797 l 279 797 b 235 818 264 797 249 804 l 78 957 b 88 976 67 967 71 976 l 122 976 b 158 963 138 976 150 972 l 283 857 l 404 963 b 443 976 414 972 426 976 m 396 735 l 439 735 b 464 710 456 735 464 726 l 464 674 b 439 649 464 657 456 649 l 393 649 b 210 619 324 649 263 639 b 186 583 194 613 186 601 l 186 25 b 161 0 186 8 178 0 l 117 0 b 92 25 100 0 92 8 l 92 614 b 144 692 92 657 104 674 b 396 735 215 718 299 733 "},"Ś":{"ha":869,"x_min":0,"x_max":0,"o":"m 528 1260 b 575 1258 549 1272 564 1271 l 596 1233 b 592 1203 608 1219 607 1210 l 346 1075 b 314 1076 331 1068 319 1068 l 301 1093 b 303 1121 292 1106 292 1114 m 81 721 b 439 1006 81 894 213 1006 b 804 792 628 1006 732 940 b 789 756 813 776 807 764 l 746 736 b 710 749 728 729 721 731 b 439 910 654 860 576 910 b 183 726 274 910 183 844 b 308 575 189 640 228 599 b 471 544 364 557 399 551 b 664 504 553 535 596 529 b 746 458 699 492 725 476 b 819 272 786 422 819 357 b 442 -19 819 89 686 -19 b 65 219 243 -19 131 57 b 82 257 60 238 65 250 l 125 272 b 161 256 140 278 153 272 b 442 75 213 135 306 75 b 718 269 626 75 718 140 b 603 419 713 356 676 396 b 447 447 550 436 515 440 b 342 461 404 451 368 457 b 246 488 315 465 283 475 b 158 533 208 500 179 515 b 81 721 115 569 81 633 "},"ś":{"ha":689,"x_min":0,"x_max":0,"o":"m 438 1000 b 485 999 458 1013 474 1011 l 504 974 b 501 943 517 961 515 950 l 256 815 b 224 817 240 808 231 810 l 210 833 b 213 861 200 846 201 854 m 75 526 b 349 735 75 656 171 735 b 632 583 493 735 588 685 b 619 547 642 567 638 554 l 585 532 b 550 544 569 525 558 529 b 350 650 518 615 465 650 b 168 529 229 650 168 610 b 253 418 174 463 194 433 b 378 399 294 407 317 404 b 568 351 463 392 514 379 b 649 193 622 322 649 271 b 364 -19 649 60 551 -19 b 64 153 208 -19 108 38 b 79 186 57 169 61 181 l 115 199 b 149 183 131 203 142 199 b 361 63 179 103 250 63 b 557 189 492 63 557 104 b 356 317 557 279 496 301 b 199 346 285 324 254 328 b 132 381 169 356 147 367 b 75 526 100 408 75 458 "},"Ŝ":{"ha":869,"x_min":0,"x_max":0,"o":"m 454 1265 b 503 1242 471 1265 488 1257 l 672 1093 b 660 1072 685 1079 681 1072 l 622 1072 b 581 1086 603 1072 589 1076 l 447 1201 l 313 1086 b 272 1072 303 1076 289 1072 l 236 1072 b 224 1093 215 1072 211 1079 l 394 1242 b 444 1265 415 1264 421 1265 m 81 721 b 439 1006 81 894 213 1006 b 804 792 628 1006 732 940 b 789 756 813 776 807 764 l 746 736 b 710 749 728 729 721 731 b 439 910 654 860 576 910 b 183 726 274 910 183 844 b 308 575 189 640 228 599 b 471 544 364 557 399 551 b 664 504 553 535 596 529 b 746 458 699 492 725 476 b 819 272 786 422 819 357 b 442 -19 819 89 686 -19 b 65 219 243 -19 131 57 b 82 257 60 238 65 250 l 125 272 b 161 256 140 278 153 272 b 442 75 213 135 306 75 b 718 269 626 75 718 140 b 603 419 713 356 676 396 b 447 447 550 436 515 440 b 342 461 404 451 368 457 b 246 488 315 465 283 475 b 158 533 208 500 179 515 b 81 721 115 569 81 633 "},"ŝ":{"ha":689,"x_min":0,"x_max":0,"o":"m 364 993 b 410 971 379 993 394 986 l 576 825 b 564 804 589 811 585 804 l 528 804 b 486 818 510 804 496 808 l 357 931 l 225 818 b 186 804 215 808 201 804 l 150 804 b 138 825 129 804 125 811 l 304 971 b 353 993 326 992 331 993 m 75 526 b 349 735 75 656 171 735 b 632 583 493 735 588 685 b 619 547 642 567 638 554 l 585 532 b 550 544 569 525 558 529 b 350 650 518 615 465 650 b 168 529 229 650 168 610 b 253 418 174 463 194 433 b 378 399 294 407 317 404 b 568 351 463 392 514 379 b 649 193 622 322 649 271 b 364 -19 649 60 551 -19 b 64 153 208 -19 108 38 b 79 186 57 169 61 181 l 115 199 b 149 183 131 203 142 199 b 361 63 179 103 250 63 b 557 189 492 63 557 104 b 356 317 557 279 496 301 b 199 346 285 324 254 328 b 132 381 169 356 147 367 b 75 526 100 408 75 458 "},"Ş":{"ha":868,"x_min":0,"x_max":0,"o":"m 472 544 b 665 504 554 535 597 529 b 747 458 700 492 726 476 b 819 272 786 422 819 357 b 485 -18 819 99 703 -6 l 453 -104 b 489 -100 472 -101 485 -100 b 607 -212 563 -100 611 -146 b 442 -343 601 -300 536 -343 b 331 -317 397 -343 360 -335 b 314 -290 319 -312 314 -303 l 314 -264 b 328 -254 314 -251 318 -249 b 431 -286 358 -275 393 -286 b 526 -208 492 -286 526 -257 b 443 -150 526 -169 499 -150 b 397 -154 426 -150 411 -151 b 382 -132 381 -156 375 -149 l 426 -19 b 67 219 238 -15 129 60 b 83 257 60 238 65 250 l 126 272 b 161 256 147 279 151 276 b 443 75 214 135 308 75 b 718 269 626 75 718 140 b 603 419 713 356 676 396 b 449 447 550 436 517 440 b 278 476 376 454 343 460 b 199 508 246 485 219 496 b 81 721 131 549 81 606 b 440 1006 81 894 213 1006 b 804 792 628 1006 733 940 b 790 756 814 775 808 763 l 747 736 b 711 749 726 729 721 731 b 440 910 656 860 578 910 b 185 726 275 910 185 844 b 310 575 190 640 229 599 b 472 544 365 557 400 551 "},"ş":{"ha":689,"x_min":0,"x_max":0,"o":"m 75 526 b 349 735 75 656 171 735 b 632 583 493 735 588 685 b 619 547 642 567 638 554 l 585 532 b 550 544 569 525 558 529 b 350 650 518 615 465 650 b 168 529 229 650 168 610 b 253 418 174 463 194 433 b 378 399 294 407 317 404 b 568 351 463 392 514 379 b 649 193 622 322 649 271 b 390 -19 649 67 561 -10 l 357 -107 b 392 -104 363 -106 374 -104 b 507 -211 464 -104 511 -149 b 346 -336 503 -296 439 -336 b 236 -311 301 -336 265 -328 b 221 -286 226 -307 221 -299 l 221 -260 b 233 -251 221 -249 225 -246 b 335 -282 265 -272 299 -282 b 428 -207 394 -282 428 -253 b 347 -150 428 -171 401 -151 b 301 -156 328 -150 313 -151 b 288 -133 285 -157 281 -150 l 333 -19 b 64 153 193 -12 104 46 b 79 186 57 169 61 181 l 115 199 b 149 183 131 203 142 199 b 361 63 179 103 250 63 b 557 189 492 63 557 104 b 356 317 557 279 496 301 b 199 346 285 324 254 328 b 132 381 169 356 147 367 b 75 526 100 408 75 458 "},"Š":{"ha":869,"x_min":0,"x_max":0,"o":"m 657 1264 b 669 1243 678 1264 682 1257 l 500 1094 b 453 1072 485 1079 469 1072 l 442 1072 b 392 1094 418 1072 414 1074 l 222 1243 b 233 1264 208 1257 213 1264 l 269 1264 b 310 1250 286 1264 300 1260 l 444 1135 l 578 1250 b 619 1264 588 1260 601 1264 m 81 721 b 439 1006 81 894 213 1006 b 804 792 628 1006 732 940 b 789 756 813 776 807 764 l 746 736 b 710 749 728 729 721 731 b 439 910 654 860 576 910 b 183 726 274 910 183 844 b 308 575 189 640 228 599 b 471 544 364 557 399 551 b 664 504 553 535 596 529 b 746 458 699 492 725 476 b 819 272 786 422 819 357 b 442 -19 819 89 686 -19 b 65 219 243 -19 131 57 b 82 257 60 238 65 250 l 125 272 b 161 256 140 278 153 272 b 442 75 213 135 306 75 b 718 269 626 75 718 140 b 603 419 713 356 676 396 b 447 447 550 436 515 440 b 342 461 404 451 368 457 b 246 488 315 465 283 475 b 158 533 208 500 179 515 b 81 721 115 569 81 633 "},"š":{"ha":689,"x_min":0,"x_max":0,"o":"m 546 972 b 557 951 567 972 568 961 l 404 818 b 361 797 392 804 376 797 l 351 797 b 307 818 336 797 321 804 l 153 953 b 163 972 142 963 146 972 l 197 972 b 232 958 213 972 224 968 l 354 854 l 475 958 b 513 972 485 968 497 972 m 75 526 b 349 735 75 656 171 735 b 632 583 493 735 588 685 b 619 547 642 567 638 554 l 585 532 b 550 544 569 525 558 529 b 350 650 518 615 465 650 b 168 529 229 650 168 610 b 253 418 174 463 194 433 b 378 399 294 407 317 404 b 568 351 463 392 514 379 b 649 193 622 322 649 271 b 364 -19 649 60 551 -19 b 64 153 208 -19 108 38 b 79 186 57 169 61 181 l 115 199 b 149 183 131 203 142 199 b 361 63 179 103 250 63 b 557 189 492 63 557 104 b 356 317 557 279 496 301 b 199 346 285 324 254 328 b 132 381 169 356 147 367 b 75 526 100 408 75 458 "},"Ť":{"ha":754,"x_min":0,"x_max":0,"o":"m 588 1251 b 600 1231 608 1251 611 1240 l 431 1082 b 383 1058 415 1067 399 1058 l 372 1058 b 322 1082 349 1058 344 1060 l 153 1231 b 165 1251 142 1240 144 1251 l 201 1251 b 240 1238 218 1251 231 1247 l 375 1122 l 508 1238 b 550 1251 518 1247 532 1251 m 708 986 b 736 958 729 986 736 979 l 736 919 b 708 892 736 899 729 892 l 428 892 l 428 28 b 400 0 428 7 421 0 l 354 0 b 326 28 333 0 326 7 l 326 892 l 46 892 b 18 919 25 892 18 899 l 18 958 b 46 986 18 979 25 986 "},"ť":{"ha":499,"x_min":0,"x_max":0,"o":"m 449 794 b 419 771 442 779 432 771 l 397 771 b 381 789 382 771 379 774 l 418 1003 b 449 1028 419 1024 426 1028 l 486 1028 b 510 1003 507 1028 515 1019 m 232 881 b 257 856 253 881 257 874 l 257 714 l 458 714 b 483 689 475 714 483 706 l 483 653 b 458 628 483 636 475 628 l 257 628 l 257 267 b 299 108 257 186 271 133 b 456 69 325 82 378 69 b 481 43 472 69 481 61 l 481 6 b 456 -19 481 -12 474 -19 b 229 39 347 -21 272 -3 b 164 264 186 79 164 154 l 164 628 l 32 628 b 7 653 15 628 7 636 l 7 689 b 32 714 7 706 15 714 l 164 714 l 164 856 b 189 881 164 872 172 881 "},"Ŧ":{"ha":785,"x_min":0,"x_max":0,"o":"m 724 986 b 751 958 744 986 751 979 l 751 919 b 724 892 751 899 744 892 l 443 892 l 443 494 l 638 494 b 656 475 650 494 656 488 l 656 440 b 638 421 656 424 653 421 l 443 421 l 443 28 b 415 0 443 7 436 0 l 369 0 b 342 28 349 0 342 7 l 342 421 l 147 421 b 129 440 132 421 129 424 l 129 475 b 147 494 129 488 135 494 l 342 494 l 342 892 l 61 892 b 33 919 40 892 33 899 l 33 958 b 61 986 33 979 40 986 "},"ŧ":{"ha":508,"x_min":0,"x_max":0,"o":"m 242 882 b 267 857 258 882 267 874 l 267 715 l 467 715 b 492 690 483 715 492 707 l 492 653 b 467 628 492 636 483 628 l 267 628 l 267 401 l 428 401 b 446 382 440 401 446 394 l 446 353 b 428 333 446 340 440 333 l 267 333 l 267 265 b 308 108 267 186 281 133 b 465 69 335 82 388 69 b 490 44 486 69 490 63 l 490 7 b 465 -19 490 -10 482 -18 b 238 39 356 -21 281 -3 b 174 265 194 79 174 154 l 174 333 l 54 333 b 36 353 42 333 36 340 l 36 382 b 54 401 36 394 42 401 l 174 401 l 174 628 l 42 628 b 17 653 25 628 17 636 l 17 690 b 42 715 17 707 25 715 l 174 715 l 174 857 b 199 882 174 874 182 882 "},"Ũ":{"ha":947,"x_min":0,"x_max":0,"o":"m 668 1225 b 683 1208 678 1225 683 1219 b 575 1069 683 1115 647 1069 b 467 1117 542 1069 506 1085 b 372 1163 426 1147 396 1163 b 317 1086 335 1163 317 1138 b 300 1069 317 1075 311 1069 l 272 1069 b 256 1086 261 1069 256 1075 b 364 1225 256 1179 292 1225 b 569 1132 449 1225 510 1132 b 625 1208 607 1132 625 1157 b 640 1225 625 1219 631 1225 m 201 335 b 474 74 201 169 294 74 b 746 335 653 74 746 169 l 746 958 b 774 986 746 979 753 986 l 819 986 b 847 958 840 986 847 979 l 847 336 b 474 -21 847 114 717 -21 b 100 336 231 -21 100 114 l 100 958 b 128 986 100 979 107 986 l 174 986 b 201 958 194 986 201 979 "},"ũ":{"ha":763,"x_min":0,"x_max":0,"o":"m 574 981 b 590 964 585 981 590 975 b 482 825 590 871 554 825 b 372 872 449 825 413 840 b 278 918 332 903 301 918 b 222 842 240 918 222 893 b 206 825 222 831 217 825 l 178 825 b 161 842 167 825 161 831 b 269 981 161 935 197 981 b 475 888 354 981 415 888 b 531 964 513 888 531 913 b 546 981 531 975 536 981 m 649 714 b 674 689 665 714 674 706 l 674 103 b 621 26 674 60 664 44 b 361 -19 547 -4 460 -19 b 86 251 178 -19 86 71 l 86 689 b 111 714 86 707 93 714 l 154 714 b 179 689 175 714 179 707 l 179 256 b 374 65 179 129 244 65 b 554 96 443 65 503 75 b 579 135 571 103 579 117 l 579 689 b 604 714 579 706 588 714 "},"Ū":{"ha":947,"x_min":0,"x_max":0,"o":"m 638 1181 b 661 1157 656 1181 661 1175 l 661 1135 b 638 1111 661 1117 656 1111 l 310 1111 b 286 1135 292 1111 286 1117 l 286 1157 b 310 1181 286 1172 294 1181 m 201 335 b 474 74 201 169 294 74 b 746 335 653 74 746 169 l 746 958 b 774 986 746 979 753 986 l 819 986 b 847 958 840 986 847 979 l 847 336 b 474 -21 847 114 717 -21 b 100 336 231 -21 100 114 l 100 958 b 128 986 100 979 107 986 l 174 986 b 201 958 194 986 201 979 "},"ū":{"ha":763,"x_min":0,"x_max":0,"o":"m 543 932 b 567 908 561 932 567 926 l 567 886 b 543 863 567 868 561 863 l 215 863 b 192 886 197 863 192 868 l 192 908 b 215 932 192 924 200 932 m 649 714 b 674 689 665 714 674 706 l 674 103 b 621 26 674 60 664 44 b 361 -19 547 -4 460 -19 b 86 251 178 -19 86 71 l 86 689 b 111 714 86 707 93 714 l 154 714 b 179 689 175 714 179 707 l 179 256 b 374 65 179 129 244 65 b 554 96 443 65 503 75 b 579 135 571 103 579 117 l 579 689 b 604 714 579 706 588 714 "},"Ŭ":{"ha":947,"x_min":0,"x_max":0,"o":"m 685 1210 b 474 1060 654 1110 583 1060 b 264 1210 364 1060 293 1110 b 275 1235 260 1222 264 1231 l 308 1247 b 335 1238 321 1251 331 1247 b 474 1129 354 1165 400 1129 b 614 1238 547 1129 593 1165 b 636 1247 618 1247 626 1251 l 674 1235 b 685 1210 685 1231 689 1222 m 201 335 b 474 74 201 169 294 74 b 746 335 653 74 746 169 l 746 958 b 774 986 746 979 753 986 l 819 986 b 847 958 840 986 847 979 l 847 336 b 474 -21 847 114 717 -21 b 100 336 231 -21 100 114 l 100 958 b 128 986 100 979 107 986 l 174 986 b 201 958 194 986 201 979 "},"ŭ":{"ha":763,"x_min":0,"x_max":0,"o":"m 590 961 b 379 810 560 860 489 810 b 169 961 269 810 200 860 b 181 985 165 972 169 981 l 214 997 b 240 988 226 1001 236 997 b 379 881 260 917 306 881 b 519 988 453 881 499 917 b 542 999 524 997 532 1001 l 579 985 b 590 961 590 981 594 972 m 649 714 b 674 689 665 714 674 706 l 674 103 b 621 26 674 60 664 44 b 361 -19 547 -4 460 -19 b 86 251 178 -19 86 71 l 86 689 b 111 714 86 707 93 714 l 154 714 b 179 689 175 714 179 707 l 179 256 b 374 65 179 129 244 65 b 554 96 443 65 503 75 b 579 135 571 103 579 117 l 579 689 b 604 714 579 706 588 714 "},"Ů":{"ha":947,"x_min":0,"x_max":0,"o":"m 375 1069 b 336 1168 349 1094 336 1128 b 375 1268 336 1208 349 1242 b 478 1306 401 1293 435 1306 b 615 1168 561 1306 615 1250 b 478 1032 615 1086 561 1032 b 375 1069 435 1032 401 1044 m 542 1104 b 542 1232 574 1136 574 1200 b 478 1256 526 1247 504 1256 b 386 1168 422 1256 386 1222 b 478 1081 386 1114 422 1081 b 542 1104 504 1081 526 1089 m 201 335 b 474 74 201 169 294 74 b 746 335 653 74 746 169 l 746 958 b 774 986 746 979 753 986 l 819 986 b 847 958 840 986 847 979 l 847 336 b 474 -21 847 114 717 -21 b 100 336 231 -21 100 114 l 100 958 b 128 986 100 979 107 986 l 174 986 b 201 958 194 986 201 979 "},"ů":{"ha":763,"x_min":0,"x_max":0,"o":"m 282 800 b 243 899 256 825 243 858 b 282 997 243 939 256 972 b 386 1035 308 1022 343 1035 b 524 899 469 1035 524 981 b 386 763 524 817 469 763 b 282 800 343 763 308 775 m 450 835 b 450 963 482 867 482 931 b 386 986 433 978 413 986 b 293 899 329 986 293 953 b 386 811 293 844 329 811 b 450 835 413 811 433 819 m 649 714 b 674 689 665 714 674 706 l 674 103 b 621 26 674 60 664 44 b 361 -19 547 -4 460 -19 b 86 251 178 -19 86 71 l 86 689 b 111 714 86 707 93 714 l 154 714 b 179 689 175 714 179 707 l 179 256 b 374 65 179 129 244 65 b 554 96 443 65 503 75 b 579 135 571 103 579 117 l 579 689 b 604 714 579 706 588 714 "},"Ű":{"ha":947,"x_min":0,"x_max":0,"o":"m 407 1238 b 449 1254 418 1254 432 1260 l 479 1246 b 488 1218 497 1239 500 1231 l 336 1069 b 306 1060 324 1058 314 1056 l 289 1064 b 281 1090 275 1068 272 1078 m 647 1238 b 689 1254 660 1254 674 1260 l 722 1246 b 731 1218 740 1239 743 1229 l 572 1067 b 540 1056 560 1056 550 1051 l 525 1061 b 517 1088 510 1065 507 1075 m 201 335 b 474 74 201 169 294 74 b 746 335 653 74 746 169 l 746 958 b 774 986 746 979 753 986 l 819 986 b 847 958 840 986 847 979 l 847 336 b 474 -21 847 114 717 -21 b 100 336 231 -21 100 114 l 100 958 b 128 986 100 979 107 986 l 174 986 b 201 958 194 986 201 979 "},"ű":{"ha":763,"x_min":0,"x_max":0,"o":"m 313 982 b 354 999 324 997 338 1003 l 385 990 b 393 961 403 983 406 974 l 242 814 b 211 803 229 804 219 800 l 194 808 b 186 835 182 813 179 822 m 554 981 b 597 997 567 996 582 1001 l 629 988 b 638 960 650 982 653 972 l 476 813 b 444 801 464 801 454 797 l 429 807 b 421 833 415 811 413 821 m 649 714 b 674 689 665 714 674 706 l 674 103 b 621 26 674 60 664 44 b 361 -19 547 -4 460 -19 b 86 251 178 -19 86 71 l 86 689 b 111 714 86 707 93 714 l 154 714 b 179 689 175 714 179 707 l 179 256 b 374 65 179 129 244 65 b 554 96 443 65 503 75 b 579 135 571 103 579 117 l 579 689 b 604 714 579 706 588 714 "},"Ų":{"ha":947,"x_min":0,"x_max":0,"o":"m 819 986 b 847 958 840 986 847 979 l 847 336 b 724 51 847 207 806 113 b 585 -111 664 -1 617 -56 b 549 -232 551 -167 539 -207 b 603 -271 557 -258 575 -271 b 674 -240 629 -271 653 -261 b 690 -244 681 -235 686 -236 l 701 -274 b 699 -293 704 -282 703 -289 b 574 -343 664 -326 622 -343 b 467 -271 515 -343 479 -319 b 596 -4 449 -203 501 -99 b 474 -21 561 -15 521 -21 b 100 336 231 -21 100 114 l 100 958 b 128 986 100 979 107 986 l 174 986 b 201 958 194 986 201 979 l 201 335 b 474 74 201 169 294 74 b 746 335 653 74 746 169 l 746 958 b 774 986 746 979 753 986 "},"ų":{"ha":763,"x_min":0,"x_max":0,"o":"m 649 714 b 674 689 665 714 674 706 l 674 103 b 651 44 674 76 667 57 b 542 -110 603 -3 565 -54 b 518 -232 517 -164 508 -206 b 643 -240 536 -283 603 -281 b 660 -244 651 -233 657 -235 l 671 -274 b 669 -293 675 -281 674 -287 b 544 -343 633 -326 592 -343 b 438 -271 485 -343 449 -319 b 454 -140 428 -236 433 -192 b 554 6 475 -87 508 -39 b 361 -19 497 -11 433 -19 b 86 251 178 -19 86 71 l 86 689 b 111 714 86 707 93 714 l 154 714 b 179 689 175 714 179 707 l 179 256 b 374 65 179 129 244 65 b 554 96 443 65 503 75 b 579 135 571 103 579 117 l 579 689 b 604 714 579 706 588 714 "},"Ŵ":{"ha":1224,"x_min":0,"x_max":0,"o":"m 629 1251 b 676 1229 651 1251 656 1250 l 847 1079 b 835 1060 860 1067 856 1060 l 796 1060 b 756 1074 778 1060 764 1064 l 622 1188 l 488 1074 b 447 1060 478 1064 464 1060 l 411 1060 b 399 1079 390 1060 386 1067 l 569 1229 b 619 1251 590 1250 593 1251 m 1178 986 b 1196 960 1196 986 1201 978 l 949 24 b 913 0 944 8 932 0 l 869 0 b 833 22 849 0 838 7 l 649 694 b 621 831 639 733 629 779 l 615 831 b 588 696 611 793 601 747 l 400 24 b 365 0 396 8 383 0 l 321 0 b 286 22 301 0 290 7 l 38 960 b 56 986 33 978 40 986 l 111 986 b 149 961 135 986 143 982 l 318 290 b 333 207 322 274 326 246 b 343 142 339 168 342 146 l 349 142 b 378 290 361 218 371 268 l 563 946 b 600 971 567 963 579 971 l 643 971 b 681 946 664 971 676 963 l 863 289 b 893 142 869 267 879 218 l 899 142 b 924 288 908 208 917 257 l 1093 961 b 1129 986 1097 982 1106 986 "},"ŵ":{"ha":1015,"x_min":0,"x_max":0,"o":"m 521 992 b 568 969 538 992 553 985 l 733 824 b 721 804 746 811 742 804 l 685 804 b 643 818 667 804 653 808 l 514 929 l 382 818 b 343 804 372 808 358 804 l 307 804 b 294 824 286 804 283 814 l 463 969 b 511 992 483 990 488 992 m 965 714 b 986 685 989 714 993 707 l 781 18 b 747 -4 776 3 765 -4 l 718 -4 b 683 18 700 -4 688 3 l 540 472 b 524 543 535 492 529 515 b 513 590 517 571 514 586 l 508 590 b 497 542 507 586 503 569 b 481 472 492 514 486 490 l 338 18 b 304 -4 333 3 322 -4 l 275 -4 b 242 18 257 -4 246 3 l 38 685 b 58 714 31 707 35 714 l 90 714 b 133 689 119 714 129 710 l 260 258 b 278 178 264 240 271 213 b 290 114 285 142 289 121 l 294 114 b 310 176 296 119 301 140 b 329 260 317 213 324 240 l 463 674 b 503 699 468 694 474 699 l 524 699 b 564 674 551 699 557 694 l 696 264 b 718 178 703 243 710 214 b 732 114 725 142 731 121 l 736 114 b 749 175 738 119 742 140 b 768 261 756 210 761 239 l 893 689 b 938 714 899 711 906 714 "},"Ŷ":{"ha":871,"x_min":0,"x_max":0,"o":"m 449 1251 b 497 1229 471 1251 475 1250 l 667 1079 b 654 1060 679 1067 675 1060 l 617 1060 b 575 1074 597 1060 583 1064 l 442 1188 l 307 1074 b 267 1060 297 1064 283 1060 l 231 1060 b 218 1079 210 1060 206 1067 l 389 1229 b 439 1251 410 1250 415 1251 m 839 986 b 853 958 857 986 864 974 l 490 400 l 490 28 b 463 0 490 7 483 0 l 417 0 b 389 28 396 0 389 7 l 389 401 l 26 958 b 40 986 15 974 22 986 l 97 986 b 150 961 131 986 139 983 l 440 504 l 733 961 b 786 986 744 983 753 986 "},"ŷ":{"ha":765,"x_min":0,"x_max":0,"o":"m 388 992 b 435 969 410 992 414 990 l 600 824 b 588 804 613 811 608 804 l 551 804 b 511 818 533 804 519 808 l 381 929 l 249 818 b 210 804 239 808 225 804 l 174 804 b 163 824 153 804 151 814 l 329 969 b 378 992 350 990 354 992 m 650 714 b 675 689 667 714 675 706 l 675 -43 b 379 -343 675 -243 576 -343 b 103 -194 249 -343 157 -293 b 113 -153 92 -176 94 -162 l 143 -137 b 183 -147 160 -128 174 -132 b 378 -258 224 -221 288 -258 b 581 -47 513 -258 581 -187 l 581 35 b 363 -1 499 11 426 -1 b 88 269 179 -1 88 89 l 88 689 b 113 714 88 707 94 714 l 156 714 b 181 689 176 714 181 707 l 181 274 b 375 83 181 147 246 83 b 581 121 435 83 503 96 l 581 689 b 606 714 581 706 589 714 "},"Ÿ":{"ha":871,"x_min":0,"x_max":0,"o":"m 311 1200 b 357 1156 346 1200 357 1189 l 357 1144 b 311 1100 357 1110 346 1100 l 303 1100 b 257 1144 268 1100 257 1110 l 257 1156 b 303 1200 257 1189 268 1200 m 581 1200 b 626 1156 615 1200 626 1189 l 626 1144 b 581 1100 626 1110 615 1100 l 572 1100 b 526 1144 538 1100 526 1110 l 526 1156 b 572 1200 526 1189 538 1200 m 839 986 b 853 958 857 986 864 974 l 490 400 l 490 28 b 463 0 490 7 483 0 l 417 0 b 389 28 396 0 389 7 l 389 401 l 26 958 b 40 986 15 974 22 986 l 97 986 b 150 961 131 986 139 983 l 440 504 l 733 961 b 786 986 744 983 753 986 "},"Ź":{"ha":786,"x_min":0,"x_max":0,"o":"m 479 1247 b 526 1244 500 1257 517 1257 l 547 1219 b 543 1190 560 1204 561 1196 l 299 1061 b 265 1064 283 1056 272 1057 l 253 1079 b 254 1107 243 1092 243 1100 m 703 986 b 731 958 724 986 731 979 l 731 921 b 721 890 731 910 728 900 l 171 94 l 717 94 b 744 68 735 94 744 86 l 744 28 b 717 0 744 7 738 0 l 72 0 b 46 28 54 0 46 10 l 46 65 b 56 97 46 79 49 90 l 604 892 l 79 892 b 51 919 58 892 51 899 l 51 958 b 79 986 51 979 58 986 "},"ź":{"ha":632,"x_min":0,"x_max":0,"o":"m 397 1000 b 443 997 418 1010 433 1010 l 464 972 b 460 943 476 957 478 949 l 215 814 b 182 817 200 808 189 810 l 169 832 b 172 860 160 844 160 854 m 565 85 b 590 60 582 85 590 76 l 590 25 b 565 0 590 8 582 0 l 68 0 b 43 25 47 0 43 7 l 43 60 b 51 88 43 71 46 81 l 464 629 l 72 629 b 49 654 57 629 49 638 l 49 689 b 72 714 49 707 54 714 l 558 714 b 583 689 576 714 583 707 l 583 654 b 574 625 583 643 581 633 l 161 85 "},"Ż":{"ha":786,"x_min":0,"x_max":0,"o":"m 403 1197 b 450 1150 440 1197 450 1188 l 450 1142 b 403 1096 450 1107 440 1096 l 396 1096 b 349 1142 358 1096 349 1107 l 349 1150 b 396 1197 349 1188 361 1197 m 703 986 b 731 958 724 986 731 979 l 731 921 b 721 890 731 910 728 900 l 171 94 l 717 94 b 744 68 735 94 744 86 l 744 28 b 717 0 744 7 738 0 l 72 0 b 46 28 54 0 46 10 l 46 65 b 56 97 46 79 49 90 l 604 892 l 79 892 b 51 919 58 892 51 899 l 51 958 b 79 986 51 979 58 986 "},"ż":{"ha":632,"x_min":0,"x_max":0,"o":"m 319 949 b 367 901 357 949 367 936 l 367 894 b 319 847 367 857 357 847 l 313 847 b 265 894 275 847 265 857 l 265 901 b 313 949 265 936 278 949 m 565 85 b 590 60 582 85 590 76 l 590 25 b 565 0 590 8 582 0 l 68 0 b 43 25 47 0 43 7 l 43 60 b 51 88 43 71 46 81 l 464 629 l 72 629 b 49 654 57 629 49 638 l 49 689 b 72 714 49 707 54 714 l 558 714 b 583 689 576 714 583 707 l 583 654 b 574 625 583 643 581 633 l 161 85 "},"Ž":{"ha":786,"x_min":0,"x_max":0,"o":"m 608 1251 b 621 1231 629 1251 632 1240 l 451 1082 b 404 1058 429 1060 425 1058 l 393 1058 b 344 1082 369 1058 365 1060 l 174 1231 b 186 1251 163 1240 165 1251 l 222 1251 b 261 1238 239 1251 251 1247 l 397 1122 l 529 1238 b 571 1251 539 1247 553 1251 m 703 986 b 731 958 724 986 731 979 l 731 921 b 721 890 731 910 728 900 l 171 94 l 717 94 b 744 68 735 94 744 86 l 744 28 b 717 0 744 7 738 0 l 72 0 b 46 28 54 0 46 10 l 46 65 b 56 97 46 79 49 90 l 604 892 l 79 892 b 51 919 58 892 51 899 l 51 958 b 79 986 51 979 58 986 "},"ž":{"ha":632,"x_min":0,"x_max":0,"o":"m 506 971 b 517 951 524 971 528 964 l 364 817 b 321 796 350 803 336 796 l 311 796 b 267 817 296 796 281 803 l 113 951 b 122 971 101 964 104 971 l 157 971 b 192 957 172 971 183 967 l 314 853 l 433 957 b 471 971 443 967 456 971 m 565 85 b 590 60 582 85 590 76 l 590 25 b 565 0 590 8 582 0 l 68 0 b 43 25 47 0 43 7 l 43 60 b 51 88 43 71 46 81 l 464 629 l 72 629 b 49 654 57 629 49 638 l 49 689 b 72 714 49 707 54 714 l 558 714 b 583 689 576 714 583 707 l 583 654 b 574 625 583 643 581 633 l 161 85 "},"ſ":{"ha":361,"x_min":0,"x_max":0,"o":"m 147 750 b 439 1028 147 949 232 1028 b 464 1003 457 1028 464 1021 l 464 967 b 439 940 464 949 456 940 b 240 743 289 940 240 892 l 240 25 b 215 0 240 7 236 0 l 172 0 b 147 25 156 0 147 8 l 147 628 l 39 628 b 14 653 22 628 14 636 l 14 689 b 39 714 14 707 21 714 l 147 714 "},"ƒ":{"ha":618,"x_min":0,"x_max":0,"o":"m 278 744 b 578 1028 296 928 383 1028 b 603 1003 596 1028 603 1021 l 603 967 b 578 940 603 949 594 940 b 372 740 443 940 385 872 l 350 540 l 540 540 b 565 515 561 540 565 536 l 565 478 b 540 453 565 461 557 453 l 342 453 l 290 -19 b -10 -306 272 -210 172 -306 b -35 -281 -31 -306 -35 -299 l -35 -244 b -10 -218 -35 -226 -26 -218 b 197 -17 125 -218 182 -149 l 247 453 l 68 453 b 43 478 51 453 43 461 l 43 515 b 68 540 43 536 47 540 l 257 540 "},"Ǻ":{"ha":889,"x_min":0,"x_max":0,"o":"m 538 1329 b 583 1328 558 1338 574 1338 l 601 1307 b 597 1286 611 1297 610 1290 l 365 1194 b 335 1197 350 1190 340 1192 l 324 1208 b 333 1233 315 1218 318 1226 m 314 1046 b 457 1181 314 1125 374 1181 b 596 1046 539 1181 596 1125 b 518 942 596 996 567 957 l 883 26 b 865 0 890 8 885 0 l 824 0 b 774 25 796 0 779 8 l 668 296 l 239 296 l 132 25 b 82 0 126 8 110 0 l 46 0 b 26 26 25 0 19 8 l 393 942 b 314 1046 340 958 314 993 m 542 1049 b 457 1131 542 1097 506 1131 b 368 1049 406 1131 368 1097 b 457 972 368 1004 406 972 b 542 1049 506 972 542 1004 m 513 707 b 479 814 503 733 492 769 b 457 892 467 858 460 885 l 450 892 b 431 817 449 886 442 861 b 396 708 418 772 407 736 l 268 381 l 638 381 "},"ǻ":{"ha":711,"x_min":0,"x_max":0,"o":"m 428 1236 b 472 1235 447 1244 463 1244 l 492 1217 b 488 1194 501 1207 500 1199 l 258 1099 b 228 1100 243 1094 233 1094 l 215 1113 b 217 1133 206 1119 207 1126 m 254 833 b 215 932 228 858 215 892 b 254 1032 215 972 228 1006 b 357 1069 281 1057 314 1069 b 494 932 440 1069 494 1014 b 357 796 494 850 440 796 b 254 833 314 796 281 808 m 421 868 b 421 996 453 900 453 964 b 357 1019 406 1011 383 1019 b 265 932 301 1019 265 986 b 357 844 265 878 301 844 b 421 868 383 844 406 853 m 75 589 b 354 735 126 686 219 735 b 632 460 560 735 632 628 l 632 96 b 582 17 632 47 621 33 b 351 -19 526 -7 450 -19 b 115 33 236 -19 158 -3 b 51 196 72 68 51 122 b 357 411 51 353 136 411 b 539 397 394 411 456 407 l 539 461 b 351 651 539 582 492 651 b 157 550 260 651 194 618 b 122 539 147 536 135 532 l 89 553 b 75 589 71 560 67 571 m 539 321 b 347 333 456 329 392 333 b 147 197 201 333 147 293 b 344 58 147 103 190 58 b 513 81 415 58 471 65 b 539 121 535 90 539 94 "},"Ǽ":{"ha":1154,"x_min":0,"x_max":0,"o":"m 924 1247 b 971 1244 944 1257 961 1257 l 990 1219 b 988 1190 1001 1206 1000 1196 l 742 1061 b 710 1064 726 1056 715 1057 l 696 1079 b 699 1107 686 1092 686 1101 m 1086 94 b 1113 67 1104 94 1113 85 l 1113 28 b 1086 0 1113 10 1104 0 l 625 0 b 597 28 604 0 597 7 l 597 243 l 251 243 l 119 25 b 69 0 108 4 101 0 l 26 0 b 8 26 7 0 1 8 l 583 963 b 619 986 596 983 601 986 l 1068 986 b 1096 958 1089 986 1096 979 l 1096 919 b 1068 892 1096 899 1089 892 l 696 892 l 696 546 l 1006 546 b 1032 518 1026 546 1032 539 l 1032 479 b 1006 451 1032 458 1026 451 l 696 451 l 696 94 m 597 818 l 301 326 l 597 326 "},"ǽ":{"ha":1094,"x_min":0,"x_max":0,"o":"m 622 1007 b 669 1006 643 1018 660 1018 l 690 981 b 686 951 701 967 700 957 l 442 822 b 408 824 426 815 415 817 l 396 840 b 397 868 386 853 388 861 m 76 589 b 329 735 128 686 213 735 b 539 614 436 735 506 694 b 763 735 579 694 653 735 b 1038 449 950 735 1038 625 l 1038 371 b 996 332 1038 344 1024 332 l 581 332 l 581 250 b 758 61 581 124 640 61 b 942 175 854 61 897 97 b 983 185 953 190 967 193 l 1011 168 b 1021 129 1029 160 1033 147 b 758 -19 967 31 897 -19 b 558 64 665 -19 599 8 b 328 -19 510 8 433 -19 b 113 32 224 -19 151 -3 b 53 193 72 65 53 119 b 333 408 53 353 129 408 b 486 396 385 408 436 404 l 486 472 b 326 651 486 588 453 651 b 158 551 253 651 196 618 b 124 539 149 538 138 533 l 90 553 b 76 589 72 561 68 574 m 944 454 b 763 654 944 588 883 654 b 581 454 642 654 581 588 l 581 404 l 944 404 m 486 318 b 322 332 424 328 369 332 b 147 194 190 332 147 293 b 319 58 147 100 186 58 b 496 135 458 58 488 117 b 486 226 489 161 486 192 "},"Ǿ":{"ha":921,"x_min":0,"x_max":0,"o":"m 551 1261 b 599 1258 572 1271 589 1271 l 619 1233 b 615 1204 632 1218 633 1210 l 371 1075 b 338 1078 356 1069 344 1071 l 325 1093 b 328 1121 315 1106 315 1115 m 851 1043 b 857 1033 858 1043 861 1040 l 767 893 b 846 657 819 835 846 756 l 846 329 b 465 -19 846 111 710 -18 b 224 42 368 -21 288 0 l 165 -49 b 144 -58 161 -56 154 -58 l 92 -58 b 86 -49 83 -58 82 -56 l 169 85 b 83 329 113 144 83 225 l 83 657 b 465 1006 83 875 219 1006 b 715 936 569 1006 653 982 l 776 1033 b 796 1043 782 1040 789 1043 m 661 853 b 465 913 614 893 549 913 b 183 657 283 913 183 819 l 183 329 b 233 182 183 269 200 219 m 278 126 b 465 74 324 92 386 74 b 746 329 647 74 746 167 l 746 657 b 704 793 746 714 732 760 "},"ǿ":{"ha":749,"x_min":0,"x_max":0,"o":"m 454 1000 b 501 997 475 1010 492 1010 l 522 972 b 518 943 533 958 532 949 l 274 814 b 240 817 257 808 246 810 l 228 832 b 229 860 217 844 217 853 m 656 767 b 660 757 663 767 664 764 l 601 664 b 681 479 654 618 681 557 l 681 235 b 374 -19 681 75 564 -19 b 193 21 303 -19 242 -6 l 156 -40 b 136 -49 151 -46 144 -49 l 97 -49 b 93 -39 90 -49 89 -43 l 149 50 b 69 235 96 96 69 157 l 69 479 b 374 735 69 639 185 735 b 556 693 444 735 506 721 l 597 758 b 615 767 601 764 608 767 m 508 618 b 374 650 471 639 425 650 b 163 479 244 650 163 585 l 163 235 b 204 138 163 194 176 163 m 242 97 b 374 65 276 76 321 65 b 586 235 506 65 586 129 l 586 479 b 546 576 586 519 572 551 "},"Ș":{"ha":869,"x_min":0,"x_max":0,"o":"m 81 721 b 439 1006 81 894 213 1006 b 804 792 628 1006 732 940 b 789 756 813 776 807 764 l 746 736 b 710 749 728 729 721 731 b 439 910 654 860 576 910 b 183 726 274 910 183 844 b 308 575 189 640 228 599 b 471 544 364 557 399 551 b 664 504 553 535 596 529 b 746 458 699 492 725 476 b 819 272 786 422 819 357 b 442 -19 819 89 686 -19 b 65 219 243 -19 131 57 b 82 257 60 238 65 250 l 125 272 b 161 256 140 278 153 272 b 442 75 213 135 306 75 b 718 269 626 75 718 140 b 603 419 713 356 676 396 b 447 447 550 436 515 440 b 342 461 404 451 368 457 b 246 488 315 465 283 475 b 158 533 208 500 179 515 b 81 721 115 569 81 633 m 451 -329 b 422 -353 447 -344 438 -353 l 392 -353 b 375 -335 376 -353 374 -350 l 421 -133 b 451 -107 422 -112 431 -107 l 493 -107 b 517 -135 517 -107 524 -117 "},"ș":{"ha":689,"x_min":0,"x_max":0,"o":"m 75 526 b 349 735 75 656 171 735 b 632 583 493 735 588 685 b 619 547 642 567 638 554 l 585 532 b 550 544 569 525 558 529 b 350 650 518 615 465 650 b 168 529 229 650 168 610 b 253 418 174 463 194 433 b 378 399 294 407 317 404 b 568 351 463 392 514 379 b 649 193 622 322 649 271 b 364 -19 649 60 551 -19 b 64 153 208 -19 108 38 b 79 186 57 169 61 181 l 115 199 b 149 183 131 203 142 199 b 361 63 179 103 250 63 b 557 189 492 63 557 104 b 356 317 557 279 496 301 b 199 346 285 324 254 328 b 132 381 169 356 147 367 b 75 526 100 408 75 458 m 367 -283 b 335 -307 363 -299 351 -307 l 311 -307 b 293 -287 296 -307 290 -300 l 333 -97 b 365 -69 335 -75 343 -69 l 401 -69 b 422 -97 422 -69 429 -79 "},"Ț":{"ha":754,"x_min":0,"x_max":0,"o":"m 708 986 b 736 958 729 986 736 979 l 736 919 b 708 892 736 899 729 892 l 428 892 l 428 28 b 400 0 428 7 421 0 l 354 0 b 326 28 333 0 326 7 l 326 892 l 46 892 b 18 919 25 892 18 899 l 18 958 b 46 986 18 979 25 986 m 368 -322 b 339 -346 364 -337 354 -346 l 310 -346 b 292 -328 293 -346 290 -343 l 338 -126 b 369 -100 339 -106 349 -100 l 410 -100 b 433 -128 433 -100 440 -110 "},"ț":{"ha":499,"x_min":0,"x_max":0,"o":"m 232 881 b 257 856 253 881 257 874 l 257 714 l 458 714 b 483 689 475 714 483 706 l 483 653 b 458 628 483 636 475 628 l 257 628 l 257 267 b 299 108 257 186 271 133 b 456 69 325 82 378 69 b 481 43 472 69 481 61 l 481 6 b 456 -19 481 -12 474 -19 b 229 39 347 -21 272 -3 b 164 264 186 79 164 154 l 164 628 l 32 628 b 7 653 15 628 7 636 l 7 689 b 32 714 7 706 15 714 l 164 714 l 164 856 b 189 881 164 872 172 881 m 296 -322 b 265 -346 292 -337 281 -346 l 236 -346 b 219 -328 219 -346 215 -343 l 265 -126 b 296 -100 267 -108 276 -100 l 338 -100 b 361 -128 358 -100 367 -110 "},"ȷ":{"ha":279,"x_min":0,"x_max":0,"o":"m 161 714 b 186 689 179 714 186 707 l 186 -12 b -103 -319 186 -214 101 -319 b -128 -294 -121 -319 -128 -312 l -128 -258 b -103 -232 -128 -240 -119 -232 b 93 -11 42 -232 93 -160 l 93 689 b 118 714 93 707 97 714 "},"ˆ":{"ha":525,"x_min":0,"x_max":0,"o":"m 285 1006 b 332 983 307 1006 311 1004 l 503 835 b 490 814 515 821 511 814 l 451 814 b 411 828 433 814 419 818 l 278 943 l 143 828 b 103 814 133 818 119 814 l 67 814 b 54 835 46 814 42 821 l 225 983 b 275 1006 246 1006 249 1006 "},"ˇ":{"ha":461,"x_min":0,"x_max":0,"o":"m 444 1006 b 456 983 465 1006 468 999 l 286 835 b 239 813 265 814 261 813 l 228 813 b 179 835 204 813 200 814 l 8 985 b 19 1006 -3 994 -1 1006 l 57 1006 b 96 990 74 1006 86 1000 l 232 876 l 364 990 b 406 1006 374 1000 388 1006 "},"˘":{"ha":399,"x_min":0,"x_max":0,"o":"m 408 969 b 197 818 378 868 307 818 b -12 969 86 818 17 868 b -1 993 -17 981 -12 989 l 32 1006 b 58 996 44 1010 53 1006 b 197 888 78 924 124 888 b 338 996 271 888 317 924 b 360 1006 342 1006 349 1010 l 397 993 b 408 969 408 989 413 981 "},"˙":{"ha":300,"x_min":0,"x_max":0,"o":"m 153 957 b 200 910 190 957 200 944 l 200 901 b 153 854 200 867 190 854 l 147 854 b 100 901 110 854 100 867 l 100 910 b 147 957 100 944 110 957 "},"˚":{"ha":333,"x_min":0,"x_max":0,"o":"m 67 800 b 28 899 40 825 28 858 b 67 997 28 939 40 972 b 169 1035 93 1022 126 1035 b 307 899 253 1035 307 981 b 169 763 307 817 253 763 b 67 800 126 763 93 775 m 233 835 b 233 963 265 867 265 931 b 169 986 218 978 196 986 b 78 899 113 986 78 953 b 169 811 78 844 113 811 b 233 835 196 811 218 819 "},"˛":{"ha":350,"x_min":0,"x_max":0,"o":"m 281 0 b 158 -232 186 -87 142 -182 b 213 -271 167 -258 185 -271 b 283 -240 239 -271 263 -261 b 300 -244 290 -235 296 -236 l 311 -274 b 308 -293 315 -281 314 -287 b 185 -343 274 -326 232 -343 b 76 -271 125 -343 89 -319 b 214 0 54 -194 107 -89 "},"˜":{"ha":424,"x_min":0,"x_max":0,"o":"m 410 988 b 426 971 421 988 426 982 b 318 833 426 879 390 833 b 208 881 285 833 249 849 b 114 926 168 911 138 926 b 58 850 76 926 58 901 b 42 833 58 839 53 833 l 14 833 b -3 850 3 833 -3 839 b 106 988 -3 942 33 988 b 311 894 190 988 251 894 b 367 971 349 894 367 919 b 382 988 367 982 372 988 "},"˝":{"ha":549,"x_min":0,"x_max":0,"o":"m 219 990 b 263 1007 231 1006 244 1011 l 292 997 b 300 969 310 992 313 982 l 149 822 b 118 811 138 811 128 807 l 101 817 b 94 842 86 821 85 829 m 461 989 b 504 1006 474 1004 489 1010 l 536 996 b 544 968 557 990 560 981 l 383 821 b 351 810 372 810 361 806 l 336 815 b 328 840 321 819 318 828 "},"̦":{"ha":0,"x_min":0,"x_max":0,"o":"m 172 -322 b 143 -346 168 -337 158 -346 l 113 -346 b 96 -328 99 -346 93 -340 l 142 -126 b 172 -100 143 -106 151 -100 l 214 -100 b 238 -128 238 -100 244 -110 "},"π":{"ha":857,"x_min":0,"x_max":0,"o":"m 814 714 b 839 689 831 714 839 706 l 839 654 b 814 628 839 636 831 628 l 735 628 l 735 203 b 769 53 735 143 746 93 b 757 15 778 35 774 22 l 721 0 b 685 13 706 -7 693 -3 b 642 207 656 65 642 131 l 642 628 l 297 628 l 297 25 b 272 0 297 7 293 0 l 229 0 b 204 25 211 0 204 7 l 204 628 b 72 590 158 626 114 614 b 38 600 56 583 44 586 l 22 635 b 35 668 15 650 19 661 b 239 714 92 699 160 714 "},"Ё":{"ha":796,"x_min":0,"x_max":0,"o":"m 289 1188 b 335 1143 324 1188 335 1176 l 335 1132 b 289 1088 335 1099 324 1088 l 281 1088 b 235 1132 246 1088 235 1099 l 235 1143 b 281 1188 235 1176 246 1188 m 558 1188 b 604 1143 593 1188 604 1176 l 604 1132 b 558 1088 604 1099 593 1088 l 550 1088 b 504 1132 515 1088 504 1099 l 504 1143 b 550 1188 504 1176 515 1188 m 699 986 b 725 958 717 986 725 976 l 725 919 b 699 892 725 901 717 892 l 208 892 l 208 547 l 636 547 b 663 519 654 547 663 538 l 663 481 b 636 453 663 463 654 453 l 208 453 l 208 94 l 717 94 b 743 67 735 94 743 85 l 743 28 b 717 0 743 10 735 0 l 136 0 b 108 28 115 0 108 7 l 108 958 b 136 986 108 979 115 986 "},"А":{"ha":890,"x_min":0,"x_max":0,"o":"m 885 26 b 865 0 892 8 886 0 l 825 0 b 775 25 796 0 779 8 l 671 289 l 236 289 l 132 25 b 83 0 126 4 117 0 l 46 0 b 28 26 26 0 21 8 l 400 967 b 435 990 406 982 417 990 l 476 990 b 513 968 494 990 507 983 m 476 799 b 457 894 464 836 457 868 l 450 894 b 433 799 450 865 444 833 l 265 372 l 643 372 "},"Б":{"ha":872,"x_min":0,"x_max":0,"o":"m 728 986 b 756 958 749 986 756 979 l 756 919 b 728 892 756 899 749 892 l 208 892 l 208 569 l 536 569 b 826 285 715 569 826 464 b 536 0 826 107 715 0 l 135 0 b 108 26 114 0 108 6 l 108 958 b 136 986 108 979 115 986 m 669 144 b 721 285 704 178 721 225 b 669 426 721 344 704 392 b 526 476 635 460 588 476 l 208 476 l 208 94 l 526 94 b 669 144 588 94 635 111 "},"В":{"ha":893,"x_min":0,"x_max":0,"o":"m 528 986 b 796 733 699 986 796 896 b 665 511 796 624 753 549 l 665 508 b 831 265 775 479 831 399 b 543 0 831 97 719 0 l 136 0 b 108 28 115 0 108 7 l 108 958 b 136 986 108 979 115 986 m 693 721 b 515 892 693 835 633 892 l 208 892 l 208 547 l 515 547 b 693 721 631 547 693 606 m 678 140 b 725 275 710 171 725 215 b 678 411 725 335 710 379 b 539 457 646 442 599 457 l 208 457 l 208 94 l 539 94 b 678 140 599 94 646 110 "},"Г":{"ha":711,"x_min":0,"x_max":0,"o":"m 661 986 b 689 958 682 986 689 979 l 689 919 b 661 892 689 899 682 892 l 208 892 l 208 28 b 182 0 208 7 203 0 l 136 0 b 108 28 115 0 108 7 l 108 958 b 136 986 108 979 115 986 "},"Д":{"ha":989,"x_min":0,"x_max":0,"o":"m 818 986 b 846 958 839 986 846 979 l 846 94 l 933 94 b 961 67 954 94 961 88 l 961 -185 b 933 -212 961 -206 954 -212 l 889 -212 b 863 -185 868 -212 863 -206 l 863 0 l 119 0 l 119 -185 b 93 -212 119 -203 111 -212 l 49 -212 b 21 -185 28 -212 21 -206 l 21 67 b 49 94 21 88 28 94 l 97 94 b 193 231 136 121 160 150 b 242 676 225 311 242 461 l 242 958 b 269 986 242 979 249 986 m 339 892 l 339 676 b 307 283 339 499 328 368 b 219 94 285 199 256 135 l 744 94 l 744 892 "},"Е":{"ha":796,"x_min":0,"x_max":0,"o":"m 699 986 b 725 958 717 986 725 976 l 725 919 b 699 892 725 901 717 892 l 208 892 l 208 547 l 636 547 b 663 519 654 547 663 538 l 663 481 b 636 453 663 463 654 453 l 208 453 l 208 94 l 717 94 b 743 67 735 94 743 85 l 743 28 b 717 0 743 10 735 0 l 136 0 b 108 28 115 0 108 7 l 108 958 b 136 986 108 979 115 986 "},"Ж":{"ha":1274,"x_min":0,"x_max":0,"o":"m 1235 986 b 1247 960 1253 986 1258 972 l 949 514 b 1088 371 1004 492 1050 444 l 1263 28 b 1249 0 1275 10 1269 0 l 1203 0 b 1149 25 1174 0 1156 8 l 994 333 b 796 454 950 422 903 454 l 706 454 l 706 28 b 678 0 706 7 699 0 l 632 0 b 604 28 611 0 604 7 l 604 454 l 515 454 b 315 333 408 454 361 422 l 161 25 b 107 0 154 8 136 0 l 61 0 b 47 28 40 0 35 10 l 222 371 b 361 514 260 444 306 492 l 63 960 b 76 986 50 978 56 986 l 126 986 b 182 963 160 986 169 983 l 458 543 b 515 546 471 544 489 546 l 604 546 l 604 958 b 632 986 604 979 611 986 l 678 986 b 706 958 699 986 706 979 l 706 546 l 796 546 b 851 543 822 546 840 544 l 1128 963 b 1183 986 1140 983 1150 986 "},"З":{"ha":861,"x_min":0,"x_max":0,"o":"m 771 729 b 644 511 771 619 729 546 b 801 269 749 475 801 394 b 449 -19 801 86 683 -19 b 57 222 226 -19 107 63 b 74 258 50 243 53 251 l 117 274 b 153 256 133 281 146 274 b 449 74 192 132 272 74 b 696 274 615 74 696 146 b 515 458 696 386 632 458 l 275 458 b 249 485 257 458 249 467 l 249 522 b 275 550 249 540 257 550 l 504 550 b 669 721 614 550 669 621 b 443 913 669 844 592 913 b 161 735 276 913 200 858 b 125 718 154 719 143 714 l 82 733 b 65 768 64 740 58 751 b 449 1006 115 928 231 1006 b 771 729 660 1006 771 906 "},"И":{"ha":964,"x_min":0,"x_max":0,"o":"m 828 986 b 856 958 849 986 856 979 l 856 28 b 828 0 856 7 849 0 l 782 0 b 754 28 761 0 754 7 l 754 574 b 772 857 754 664 760 758 l 769 857 b 621 611 736 793 686 711 l 211 15 b 182 0 204 6 194 0 l 136 0 b 108 28 115 0 108 7 l 108 958 b 136 986 108 979 115 986 l 182 986 b 208 958 203 986 208 979 l 208 428 b 192 129 208 325 203 225 l 196 129 b 353 390 236 207 288 294 l 753 972 b 782 986 760 982 769 986 "},"Й":{"ha":964,"x_min":0,"x_max":0,"o":"m 714 1215 b 486 1065 681 1115 604 1065 b 260 1215 368 1065 293 1115 b 272 1239 256 1228 260 1235 l 308 1251 b 336 1242 322 1256 332 1251 b 486 1135 358 1171 408 1135 b 638 1242 564 1135 614 1171 b 661 1253 642 1251 649 1256 l 701 1239 b 714 1215 713 1233 717 1225 m 828 986 b 856 958 849 986 856 979 l 856 28 b 828 0 856 7 849 0 l 782 0 b 754 28 761 0 754 7 l 754 574 b 772 857 754 664 760 758 l 769 857 b 621 611 736 793 686 711 l 211 15 b 182 0 204 6 194 0 l 136 0 b 108 28 115 0 108 7 l 108 958 b 136 986 108 979 115 986 l 182 986 b 208 958 203 986 208 979 l 208 428 b 192 129 208 325 203 225 l 196 129 b 353 390 236 207 288 294 l 753 972 b 782 986 760 982 769 986 "},"К":{"ha":846,"x_min":0,"x_max":0,"o":"m 818 28 b 803 0 828 10 824 0 l 758 0 b 703 25 724 0 714 4 l 549 333 b 350 454 504 422 457 454 l 208 454 l 208 28 b 182 0 208 7 203 0 l 136 0 b 108 28 115 0 108 7 l 108 958 b 136 986 108 979 115 986 l 182 986 b 208 958 203 986 208 979 l 208 546 l 342 546 l 372 546 l 683 963 b 739 986 696 978 714 986 l 789 986 b 803 960 810 986 814 972 l 474 526 b 642 371 543 507 599 456 "},"Л":{"ha":911,"x_min":0,"x_max":0,"o":"m 788 986 b 815 958 808 986 815 979 l 815 28 b 788 0 815 7 808 0 l 742 0 b 715 28 721 0 715 7 l 715 892 l 315 892 l 315 646 b 271 201 315 439 296 288 b 217 90 258 158 240 121 b 154 26 193 60 172 39 b 78 -15 136 14 110 0 b 42 -3 61 -24 49 -19 l 21 38 b 35 75 13 53 17 65 b 92 108 60 88 79 99 b 140 160 104 117 121 133 b 182 254 158 186 172 217 b 217 644 200 326 217 461 l 217 958 b 243 986 217 976 225 986 "},"М":{"ha":1111,"x_min":0,"x_max":0,"o":"m 976 986 b 1004 958 997 986 1004 979 l 1004 28 b 976 0 1004 7 997 0 l 935 0 b 907 28 914 0 907 7 l 908 594 b 925 840 908 679 914 761 l 919 840 b 813 624 890 769 854 697 l 601 251 b 569 231 594 238 585 231 l 542 231 b 508 251 526 231 515 238 l 294 628 b 193 842 260 686 226 757 l 188 842 b 203 593 197 757 203 675 l 203 28 b 175 0 203 7 196 0 l 136 0 b 108 28 115 0 108 7 l 108 958 b 136 986 108 979 115 986 l 172 986 b 211 964 190 986 203 979 l 556 354 l 897 963 b 936 986 908 983 914 986 "},"Н":{"ha":946,"x_min":0,"x_max":0,"o":"m 811 986 b 838 958 829 986 838 976 l 838 28 b 811 0 838 10 829 0 l 765 0 b 738 28 744 0 738 7 l 738 453 l 208 453 l 208 28 b 182 0 208 7 203 0 l 136 0 b 108 28 115 0 108 7 l 108 958 b 136 986 108 979 115 986 l 182 986 b 208 958 203 986 208 979 l 208 547 l 738 547 l 738 958 b 765 986 738 979 744 986 "},"О":{"ha":921,"x_min":0,"x_max":0,"o":"m 79 657 b 461 1006 79 875 215 1006 b 842 657 706 1006 842 875 l 842 329 b 461 -19 842 111 706 -19 b 79 329 215 -19 79 111 m 742 657 b 461 913 742 819 643 913 b 179 657 279 913 179 819 l 179 329 b 461 74 179 167 279 74 b 742 329 643 74 742 167 "},"П":{"ha":938,"x_min":0,"x_max":0,"o":"m 803 986 b 829 958 821 986 829 976 l 829 28 b 803 0 829 10 821 0 l 756 0 b 729 28 738 0 729 10 l 729 892 l 208 892 l 208 28 b 182 0 208 7 203 0 l 136 0 b 108 28 115 0 108 7 l 108 958 b 136 986 108 979 115 986 "},"Р":{"ha":864,"x_min":0,"x_max":0,"o":"m 507 986 b 821 678 701 986 821 871 b 507 371 821 485 701 371 l 208 371 l 208 28 b 182 0 208 7 203 0 l 136 0 b 108 28 115 0 108 7 l 108 958 b 136 986 108 979 115 986 m 499 464 b 717 678 633 464 717 544 b 499 892 717 811 633 892 l 208 892 l 208 464 "},"С":{"ha":883,"x_min":0,"x_max":0,"o":"m 79 657 b 460 1006 79 875 214 1006 b 829 768 667 1006 779 928 b 813 732 836 747 833 739 l 769 717 b 733 733 751 713 740 718 b 460 913 694 857 617 913 b 181 658 278 913 181 819 l 181 328 b 460 74 181 168 281 74 b 736 257 619 74 697 131 b 772 275 743 274 756 279 l 815 258 b 832 224 832 251 838 240 b 460 -19 782 63 669 -19 b 79 329 217 -19 79 111 "},"Т":{"ha":754,"x_min":0,"x_max":0,"o":"m 708 986 b 736 958 729 986 736 979 l 736 919 b 708 892 736 899 729 892 l 428 892 l 428 28 b 400 0 428 7 421 0 l 354 0 b 326 28 333 0 326 7 l 326 892 l 46 892 b 18 919 25 892 18 899 l 18 958 b 46 986 18 979 25 986 "},"У":{"ha":824,"x_min":0,"x_max":0,"o":"m 806 986 b 821 958 824 986 829 976 l 363 25 b 317 0 353 4 344 0 l 264 0 b 249 28 244 0 239 10 l 379 282 l 22 958 b 38 986 14 976 19 986 l 85 986 b 138 961 118 986 126 983 l 432 393 l 711 961 b 760 986 722 983 726 986 "},"Ф":{"ha":1150,"x_min":0,"x_max":0,"o":"m 597 1021 b 625 993 618 1021 625 1014 l 625 903 l 713 903 b 1088 550 956 903 1088 772 l 1088 443 b 713 90 1088 221 956 90 l 625 90 l 625 0 b 597 -28 625 -21 618 -28 l 551 -28 b 525 0 531 -28 525 -21 l 525 90 l 436 90 b 61 443 193 90 61 221 l 61 550 b 436 903 61 772 193 903 l 525 903 l 525 993 b 551 1021 525 1014 531 1021 m 436 813 b 163 554 258 813 163 719 l 163 439 b 436 181 163 274 258 181 l 525 181 l 525 813 m 986 554 b 713 813 986 719 890 813 l 625 813 l 625 181 l 713 181 b 986 439 890 181 986 274 "},"Х":{"ha":857,"x_min":0,"x_max":0,"o":"m 836 29 b 822 0 847 14 844 0 l 767 0 b 714 25 733 0 725 3 l 428 424 l 146 25 b 93 0 133 3 125 0 l 40 0 b 28 29 19 0 17 14 l 367 501 l 38 960 b 51 986 28 972 33 986 l 107 986 b 160 963 136 986 144 983 l 432 581 l 706 963 b 756 986 718 983 726 986 l 811 986 b 825 960 829 986 835 972 l 494 501 "},"Ц":{"ha":967,"x_min":0,"x_max":0,"o":"m 910 94 b 938 67 931 94 938 88 l 938 -185 b 910 -212 938 -206 931 -212 l 868 -212 b 840 -185 847 -212 840 -206 l 840 0 l 136 0 b 108 28 115 0 108 7 l 108 958 b 136 986 108 979 115 986 l 182 986 b 208 958 203 986 208 979 l 208 94 l 724 94 l 724 958 b 751 986 724 979 731 986 l 797 986 b 824 958 815 986 824 976 l 824 94 "},"Ч":{"ha":874,"x_min":0,"x_max":0,"o":"m 738 986 b 765 958 758 986 765 979 l 765 28 b 738 0 765 7 758 0 l 692 0 b 665 28 671 0 665 7 l 665 399 b 407 371 586 381 500 371 b 56 711 158 371 56 485 l 56 958 b 83 986 56 979 63 986 l 129 986 b 157 958 150 986 157 979 l 157 711 b 411 465 157 546 229 465 b 665 494 518 465 603 475 l 665 958 b 692 986 665 979 671 986 "},"Ш":{"ha":1267,"x_min":0,"x_max":0,"o":"m 1131 986 b 1158 958 1151 986 1158 979 l 1158 28 b 1131 0 1158 7 1151 0 l 136 0 b 108 28 115 0 108 7 l 108 958 b 136 986 108 979 115 986 l 182 986 b 208 958 203 986 208 979 l 208 94 l 582 94 l 582 958 b 610 986 582 979 589 986 l 656 986 b 683 958 676 986 683 979 l 683 94 l 1057 94 l 1057 958 b 1085 986 1057 979 1064 986 "},"Щ":{"ha":1301,"x_min":0,"x_max":0,"o":"m 1246 94 b 1272 67 1267 94 1272 88 l 1272 -185 b 1246 -212 1272 -206 1267 -212 l 1203 -212 b 1176 -185 1182 -212 1176 -206 l 1176 0 l 136 0 b 108 28 115 0 108 7 l 108 958 b 136 986 108 979 115 986 l 182 986 b 208 958 203 986 208 979 l 208 94 l 582 94 l 582 958 b 610 986 582 979 589 986 l 656 986 b 683 958 676 986 683 979 l 683 94 l 1057 94 l 1057 958 b 1085 986 1057 979 1064 986 l 1131 986 b 1158 958 1151 986 1158 979 l 1158 94 "},"Ъ":{"ha":1013,"x_min":0,"x_max":0,"o":"m 656 615 b 969 308 850 615 969 501 b 656 0 969 115 850 0 l 283 0 b 257 28 263 0 257 7 l 257 892 l 46 892 b 18 919 25 892 18 899 l 18 958 b 46 986 18 979 25 986 l 329 986 b 357 958 350 986 357 979 l 357 615 m 646 94 b 864 308 783 94 864 174 b 646 522 864 443 783 522 l 357 522 l 357 94 "},"Ы":{"ha":1199,"x_min":0,"x_max":0,"o":"m 136 0 b 108 28 115 0 108 7 l 108 958 b 136 986 108 979 115 986 l 182 986 b 208 958 203 986 208 979 l 208 615 l 507 615 b 821 308 701 615 821 501 b 507 0 821 115 701 0 m 989 958 b 1017 986 989 979 996 986 l 1063 986 b 1090 958 1083 986 1090 979 l 1090 28 b 1063 0 1090 7 1083 0 l 1017 0 b 989 28 996 0 989 7 m 208 522 l 208 94 l 499 94 b 717 308 633 94 717 175 b 499 522 717 442 633 522 "},"Ь":{"ha":864,"x_min":0,"x_max":0,"o":"m 136 0 b 108 28 115 0 108 7 l 108 958 b 136 986 108 979 115 986 l 182 986 b 208 958 203 986 208 979 l 208 615 l 507 615 b 821 308 701 615 821 501 b 507 0 821 115 701 0 m 208 522 l 208 94 l 499 94 b 717 308 633 94 717 175 b 499 522 717 442 633 522 "},"Э":{"ha":889,"x_min":0,"x_max":0,"o":"m 68 768 b 438 1006 118 928 231 1006 b 819 658 683 1006 819 876 l 819 329 b 438 -19 819 111 682 -19 b 65 222 228 -19 115 63 b 83 258 60 240 65 251 l 126 274 b 161 256 143 281 154 274 b 438 74 201 132 281 74 b 717 328 617 74 717 168 l 717 451 l 301 451 b 274 479 281 451 274 458 l 274 518 b 301 546 274 539 281 546 l 717 546 l 717 660 b 438 913 717 821 621 913 b 164 735 281 913 203 858 b 128 718 158 719 146 714 l 85 733 b 68 768 68 740 63 751 "},"Ю":{"ha":1279,"x_min":0,"x_max":0,"o":"m 450 658 b 826 1006 450 876 583 1006 b 1200 658 1067 1006 1200 876 l 1200 328 b 826 -19 1200 110 1067 -19 b 450 328 583 -19 450 110 l 450 453 l 208 453 l 208 28 b 182 0 208 7 203 0 l 136 0 b 108 28 115 0 108 7 l 108 958 b 136 986 108 979 115 986 l 182 986 b 208 958 203 986 208 979 l 208 547 l 450 547 m 1100 658 b 826 913 1100 821 1003 913 b 551 658 649 913 551 821 l 551 328 b 826 74 551 165 649 74 b 1100 328 1003 74 1100 165 "},"Я":{"ha":892,"x_min":0,"x_max":0,"o":"m 86 699 b 378 986 86 881 196 986 l 772 986 b 800 958 793 986 800 979 l 800 28 b 772 0 800 7 793 0 l 726 0 b 699 28 706 0 699 7 l 699 414 l 507 414 b 310 293 400 414 350 382 l 185 25 b 129 0 175 4 164 0 l 85 0 b 71 28 65 0 61 10 l 217 331 b 300 426 238 378 265 410 b 86 699 163 453 86 547 m 388 892 b 192 699 261 892 192 822 b 388 508 192 576 264 508 l 699 508 l 699 892 "},"а":{"ha":711,"x_min":0,"x_max":0,"o":"m 75 589 b 354 735 126 686 219 735 b 632 460 560 735 632 628 l 632 96 b 582 17 632 47 621 33 b 351 -19 526 -7 450 -19 b 115 33 236 -19 158 -3 b 51 196 72 68 51 122 b 357 411 51 353 136 411 b 539 397 394 411 456 407 l 539 461 b 351 651 539 582 492 651 b 157 550 260 651 194 618 b 122 539 147 536 135 532 l 89 553 b 75 589 71 560 67 571 m 539 321 b 347 333 456 329 392 333 b 147 197 201 333 147 293 b 344 58 147 103 190 58 b 513 81 415 58 471 65 b 539 121 535 90 539 94 "},"б":{"ha":768,"x_min":0,"x_max":0,"o":"m 511 1017 b 619 1035 561 1017 597 1022 b 656 1018 636 1043 649 1038 l 667 986 b 651 951 672 965 669 963 b 514 929 622 936 576 929 l 464 929 b 235 863 351 929 275 907 b 174 619 194 817 174 736 l 174 590 b 411 700 222 664 301 700 b 701 429 596 700 701 597 l 701 251 b 393 -19 701 81 594 -19 b 86 251 194 -19 86 81 l 86 596 b 169 921 86 747 114 856 b 463 1017 224 985 322 1017 m 607 429 b 393 615 607 547 533 615 b 244 571 331 615 281 600 b 181 478 207 540 186 510 l 181 251 b 393 65 181 133 254 65 b 607 251 533 65 607 133 "},"в":{"ha":740,"x_min":0,"x_max":0,"o":"m 657 528 b 572 374 657 454 629 403 b 682 197 646 342 682 283 b 476 0 682 75 604 0 l 118 0 b 92 26 100 0 92 8 l 92 689 b 118 714 92 706 100 714 l 458 714 b 657 528 585 714 657 644 m 449 407 b 563 521 517 407 563 450 b 443 635 563 597 522 635 l 186 635 l 186 407 m 460 81 b 585 206 539 81 585 126 b 457 329 585 283 539 329 l 186 329 l 186 81 "},"г":{"ha":590,"x_min":0,"x_max":0,"o":"m 544 714 b 569 689 563 714 569 707 l 569 653 b 544 628 569 636 561 628 l 186 628 l 186 25 b 161 0 186 8 178 0 l 117 0 b 92 25 100 0 92 8 l 92 689 b 117 714 92 706 100 714 "},"д":{"ha":825,"x_min":0,"x_max":0,"o":"m 774 86 b 799 61 794 86 799 79 l 799 -168 b 774 -193 799 -189 794 -193 l 733 -193 b 708 -168 717 -193 708 -185 l 708 0 l 114 0 l 114 -168 b 88 -193 114 -185 106 -193 l 47 -193 b 22 -168 31 -193 22 -185 l 22 61 b 47 86 22 78 31 86 l 89 86 b 163 206 121 113 144 151 b 188 474 179 258 188 347 l 188 689 b 213 714 188 707 192 714 l 672 714 b 697 689 689 714 697 706 l 697 86 m 278 468 b 199 86 278 279 251 151 l 603 86 l 603 628 l 278 628 "},"е":{"ha":736,"x_min":0,"x_max":0,"o":"m 65 442 b 372 735 65 626 172 735 b 681 447 574 735 681 621 l 681 371 b 639 332 681 344 667 332 l 158 332 l 158 251 b 367 61 158 131 232 61 b 585 176 469 61 542 100 b 625 186 596 192 610 194 l 654 171 b 664 131 672 161 675 149 b 367 -19 608 31 510 -19 b 65 261 165 -19 65 88 m 588 453 b 372 654 588 579 513 654 b 158 453 233 654 158 579 l 158 404 l 588 404 "},"ж":{"ha":1035,"x_min":0,"x_max":0,"o":"m 540 714 b 567 689 561 714 567 710 l 567 410 l 663 410 b 689 408 675 410 683 410 l 886 694 b 936 714 897 711 904 714 l 975 714 b 990 685 999 714 1004 704 l 776 383 b 876 279 815 368 849 333 l 1001 29 b 986 0 1013 8 1010 0 l 944 0 b 903 22 917 0 910 4 l 797 239 b 661 324 769 299 732 324 l 567 324 l 567 26 b 540 0 567 6 561 0 l 500 0 b 474 26 479 0 474 6 l 474 324 l 379 324 b 243 239 308 324 271 299 l 138 22 b 96 0 131 4 124 0 l 54 0 b 39 29 31 0 28 8 l 164 279 b 264 383 192 333 225 368 l 50 685 b 65 714 38 704 42 714 l 104 714 b 154 694 136 714 143 711 l 351 408 b 378 410 357 410 365 410 l 474 410 l 474 689 b 500 714 474 710 479 714 "},"з":{"ha":713,"x_min":0,"x_max":0,"o":"m 67 553 b 368 735 81 596 158 735 b 649 528 558 735 649 651 b 549 372 649 449 615 396 l 549 367 b 663 192 625 343 663 285 b 374 -19 663 63 572 -19 b 138 58 269 -19 186 13 b 56 171 89 104 71 136 b 74 206 49 189 56 200 l 110 218 b 146 200 128 222 139 217 b 374 63 185 108 261 63 b 567 200 506 63 567 115 b 426 325 567 283 519 325 l 275 325 b 250 351 258 325 250 333 l 250 378 b 275 404 250 396 258 404 l 419 404 b 553 519 504 404 553 447 b 369 651 553 599 496 651 b 204 594 296 651 236 628 b 156 522 172 560 163 543 b 119 504 149 504 138 499 l 83 517 b 67 553 65 522 60 535 "},"и":{"ha":781,"x_min":0,"x_max":0,"o":"m 161 714 b 186 689 178 714 186 706 l 186 288 b 171 125 186 236 181 182 l 174 125 b 246 239 194 164 218 201 l 596 701 b 619 714 601 710 610 714 l 664 714 b 689 689 681 714 689 706 l 689 25 b 664 0 689 8 681 0 l 619 0 b 594 25 603 0 594 8 l 594 418 b 611 588 594 463 600 519 l 607 588 b 531 469 594 563 568 524 l 186 14 b 161 0 181 4 172 0 l 117 0 b 92 25 100 0 92 8 l 92 689 b 117 714 92 706 100 714 "},"й":{"ha":781,"x_min":0,"x_max":0,"o":"m 606 969 b 394 818 575 868 504 818 b 185 969 283 818 214 868 b 196 993 181 981 185 989 l 229 1006 b 256 996 242 1010 251 1006 b 394 888 275 924 321 888 b 535 996 468 888 514 924 b 557 1006 539 1006 547 1010 l 594 993 b 606 969 606 989 610 981 m 161 714 b 186 689 178 714 186 706 l 186 288 b 171 125 186 236 181 182 l 174 125 b 246 239 194 164 218 201 l 596 701 b 619 714 601 710 610 714 l 664 714 b 689 689 681 714 689 706 l 689 25 b 664 0 689 8 681 0 l 619 0 b 594 25 603 0 594 8 l 594 418 b 611 588 594 463 600 519 l 607 588 b 531 469 594 563 568 524 l 186 14 b 161 0 181 4 172 0 l 117 0 b 92 25 100 0 92 8 l 92 689 b 117 714 92 706 100 714 "},"к":{"ha":718,"x_min":0,"x_max":0,"o":"m 686 29 b 671 0 697 8 693 0 l 629 0 b 586 22 601 0 596 4 l 481 239 b 346 324 453 299 414 324 l 186 324 l 186 26 b 160 0 186 6 181 0 l 118 0 b 92 26 97 0 92 6 l 92 689 b 118 714 92 706 100 714 l 160 714 b 186 689 178 714 186 706 l 186 410 l 333 410 l 347 410 l 569 694 b 619 714 582 713 590 714 l 658 714 b 675 685 683 714 689 704 l 440 392 b 561 279 490 379 531 342 "},"л":{"ha":746,"x_min":0,"x_max":0,"o":"m 639 714 b 664 689 656 714 664 706 l 664 25 b 639 0 664 8 656 0 l 594 0 b 569 25 578 0 569 8 l 569 626 l 256 626 l 256 456 b 197 100 256 285 236 167 b 67 -18 157 33 124 8 b 36 -6 53 -24 43 -19 l 15 38 b 25 65 8 50 13 58 b 101 125 60 82 72 88 b 136 192 117 143 128 165 b 165 461 151 242 165 338 l 165 689 b 190 714 165 707 172 714 "},"м":{"ha":886,"x_min":0,"x_max":0,"o":"m 767 714 b 794 688 789 714 794 708 l 794 26 b 768 0 794 6 789 0 l 733 0 b 707 26 711 0 707 6 l 707 404 b 722 581 707 447 713 506 l 718 581 b 650 443 703 539 679 493 l 488 156 b 456 136 481 143 469 136 l 433 136 b 400 157 418 136 407 143 l 239 438 b 168 581 214 481 190 529 l 164 581 b 179 396 174 501 179 439 l 179 26 b 154 0 179 6 175 0 l 118 0 b 92 26 97 0 92 6 l 92 688 b 121 714 92 708 99 714 l 151 714 b 189 693 168 714 181 707 l 444 240 l 697 692 b 732 714 704 707 717 714 "},"н":{"ha":774,"x_min":0,"x_max":0,"o":"m 657 714 b 682 689 674 714 682 706 l 682 25 b 657 0 682 8 674 0 l 613 0 b 588 25 596 0 588 8 l 588 324 l 186 324 l 186 25 b 161 0 186 8 178 0 l 117 0 b 92 25 100 0 92 8 l 92 689 b 117 714 92 706 100 714 l 161 714 b 186 689 178 714 186 706 l 186 410 l 588 410 l 588 689 b 613 714 588 706 596 714 "},"о":{"ha":749,"x_min":0,"x_max":0,"o":"m 69 479 b 374 735 69 639 185 735 b 681 479 564 735 681 639 l 681 235 b 374 -19 681 75 564 -19 b 69 235 185 -19 69 78 m 586 479 b 374 650 586 585 506 650 b 163 479 244 650 163 585 l 163 235 b 374 65 163 129 246 65 b 586 235 506 65 586 129 "},"п":{"ha":767,"x_min":0,"x_max":0,"o":"m 650 714 b 675 689 668 714 675 707 l 675 25 b 650 0 675 7 668 0 l 607 0 b 582 25 586 0 582 7 l 582 628 l 186 628 l 186 25 b 161 0 186 8 178 0 l 117 0 b 92 25 100 0 92 8 l 92 689 b 117 714 92 706 100 714 "},"р":{"ha":746,"x_min":0,"x_max":0,"o":"m 144 694 b 388 735 213 721 293 735 b 676 457 581 735 676 642 l 676 257 b 392 -19 676 72 582 -19 b 183 28 332 -19 263 -4 l 183 -281 b 158 -306 183 -297 175 -306 l 114 -306 b 89 -281 97 -306 89 -297 l 89 617 b 144 694 89 661 100 676 m 583 454 b 376 649 583 583 514 649 b 210 622 314 649 258 640 b 183 585 186 613 183 607 l 183 114 b 385 65 251 82 318 65 b 583 260 517 65 583 131 "},"с":{"ha":715,"x_min":0,"x_max":0,"o":"m 68 461 b 371 735 68 633 171 735 b 661 547 526 735 624 672 b 644 511 667 529 661 518 l 608 499 b 574 515 592 493 581 499 b 368 651 544 610 485 651 b 161 464 233 651 161 582 l 161 251 b 368 63 161 133 235 63 b 575 206 476 63 546 110 b 611 222 582 221 593 226 l 647 211 b 664 175 665 204 671 193 b 365 -19 621 46 522 -19 b 68 254 171 -19 68 82 "},"т":{"ha":624,"x_min":0,"x_max":0,"o":"m 579 714 b 604 689 600 714 604 707 l 604 653 b 579 628 604 636 596 628 l 360 628 l 360 25 b 335 0 360 8 351 0 l 292 0 b 267 25 275 0 267 8 l 267 628 l 44 628 b 19 653 28 628 19 636 l 19 689 b 44 714 19 706 28 714 "},"у":{"ha":765,"x_min":0,"x_max":0,"o":"m 650 714 b 675 689 667 714 675 706 l 675 -43 b 379 -343 675 -243 576 -343 b 103 -194 249 -343 157 -293 b 113 -153 92 -176 94 -162 l 143 -137 b 183 -147 160 -128 174 -132 b 378 -258 224 -221 288 -258 b 581 -47 513 -258 581 -187 l 581 35 b 363 -1 499 11 426 -1 b 88 269 179 -1 88 89 l 88 689 b 113 714 88 707 94 714 l 156 714 b 181 689 176 714 181 707 l 181 274 b 375 83 181 147 246 83 b 581 121 435 83 503 96 l 581 689 b 606 714 581 706 589 714 "},"ф":{"ha":1026,"x_min":0,"x_max":0,"o":"m 560 728 b 661 735 583 731 618 733 b 878 668 750 735 822 713 b 960 446 932 624 960 550 l 960 268 b 661 -19 960 76 860 -19 b 560 -12 632 -19 599 -17 l 560 -281 b 536 -306 560 -299 554 -306 l 492 -306 b 467 -281 475 -306 467 -297 l 467 -12 b 364 -19 429 -17 396 -19 b 67 268 165 -19 67 76 l 67 439 b 364 735 67 646 188 735 b 467 728 408 733 443 731 l 467 1003 b 492 1028 467 1019 475 1028 l 536 1028 b 560 1003 551 1028 560 1019 m 161 271 b 369 67 161 135 231 67 b 469 72 407 67 440 68 l 469 643 b 369 649 425 647 392 649 b 161 436 274 649 161 607 m 865 444 b 656 649 865 581 796 649 b 558 643 635 649 603 647 l 558 72 b 656 67 588 68 621 67 b 865 271 796 67 865 135 "},"х":{"ha":676,"x_min":0,"x_max":0,"o":"m 639 714 b 656 686 663 714 668 704 l 418 367 l 671 28 b 653 0 683 10 678 0 l 611 0 b 567 21 590 0 576 7 l 358 300 l 151 21 b 107 0 143 7 128 0 l 68 0 b 50 28 42 0 36 10 l 303 367 l 61 686 b 81 714 49 704 56 714 l 119 714 b 165 693 140 714 156 707 l 360 435 l 554 693 b 597 714 567 711 571 714 "},"ц":{"ha":794,"x_min":0,"x_max":0,"o":"m 743 86 b 768 61 764 86 768 79 l 768 -168 b 743 -193 768 -189 764 -193 l 703 -193 b 678 -168 686 -193 678 -185 l 678 0 l 117 0 b 92 25 100 0 92 8 l 92 689 b 117 714 92 706 100 714 l 161 714 b 186 689 178 714 186 706 l 186 86 l 574 86 l 574 689 b 599 714 574 707 578 714 l 642 714 b 667 689 658 714 667 706 l 667 86 "},"ч":{"ha":707,"x_min":0,"x_max":0,"o":"m 47 689 b 72 714 47 706 56 714 l 117 714 b 142 689 133 714 142 706 l 142 517 b 339 344 142 399 201 344 b 522 374 383 344 444 354 l 522 689 b 546 714 522 707 528 714 l 590 714 b 615 689 607 714 615 706 l 615 25 b 590 0 615 8 607 0 l 546 0 b 522 25 528 0 522 7 l 522 286 b 326 260 451 268 386 260 b 47 514 136 260 47 343 "},"ш":{"ha":1060,"x_min":0,"x_max":0,"o":"m 942 714 b 967 689 960 714 967 707 l 967 25 b 942 0 967 7 960 0 l 117 0 b 92 25 100 0 92 8 l 92 689 b 117 714 92 706 100 714 l 161 714 b 186 689 178 714 186 706 l 186 86 l 483 86 l 483 689 b 508 714 483 707 490 714 l 551 714 b 576 689 568 714 576 706 l 576 86 l 874 86 l 874 689 b 899 714 874 706 882 714 "},"щ":{"ha":1094,"x_min":0,"x_max":0,"o":"m 1043 86 b 1068 61 1060 86 1068 78 l 1068 -168 b 1043 -193 1068 -185 1060 -193 l 1003 -193 b 976 -168 985 -193 976 -185 l 976 0 l 117 0 b 92 25 100 0 92 8 l 92 689 b 117 714 92 706 100 714 l 161 714 b 186 689 178 714 186 706 l 186 86 l 483 86 l 483 689 b 508 714 483 707 490 714 l 551 714 b 576 689 568 714 576 706 l 576 86 l 874 86 l 874 689 b 899 714 874 706 882 714 l 942 714 b 967 689 960 714 967 707 l 967 86 "},"ъ":{"ha":847,"x_min":0,"x_max":0,"o":"m 558 489 b 807 246 714 489 807 400 b 558 0 807 90 714 0 l 249 0 b 224 25 228 0 224 7 l 224 628 l 44 628 b 19 653 28 628 19 636 l 19 689 b 44 714 19 707 26 714 l 292 714 b 317 689 310 714 317 707 l 317 489 m 547 85 b 710 246 649 85 710 144 b 547 404 710 347 651 404 l 317 404 l 317 85 "},"ы":{"ha":974,"x_min":0,"x_max":0,"o":"m 426 489 b 676 246 582 489 676 400 b 426 0 676 90 583 0 l 117 0 b 92 25 100 0 92 8 l 92 689 b 117 714 92 706 100 714 l 161 714 b 186 689 178 714 186 706 l 186 489 m 857 714 b 882 689 874 714 882 706 l 882 25 b 857 0 882 8 874 0 l 813 0 b 788 25 796 0 788 8 l 788 689 b 813 714 788 706 796 714 m 415 85 b 579 246 519 85 579 144 b 415 404 579 346 519 404 l 186 404 l 186 85 "},"ь":{"ha":717,"x_min":0,"x_max":0,"o":"m 426 489 b 676 246 582 489 676 400 b 426 0 676 90 583 0 l 117 0 b 92 25 100 0 92 8 l 92 689 b 117 714 92 706 100 714 l 161 714 b 186 689 178 714 186 706 l 186 489 m 415 85 b 579 246 519 85 579 144 b 415 404 579 346 519 404 l 186 404 l 186 85 "},"э":{"ha":711,"x_min":0,"x_max":0,"o":"m 61 547 b 350 735 99 672 196 735 b 653 461 550 735 653 633 l 653 256 b 357 -19 653 82 551 -19 b 58 176 200 -19 101 46 b 75 211 51 192 57 204 l 113 222 b 147 206 129 229 140 224 b 354 64 176 111 244 64 b 558 251 488 64 558 133 l 558 322 l 276 322 b 251 347 260 322 251 331 l 251 381 b 276 406 251 397 260 406 l 558 406 l 558 464 b 354 651 558 582 489 651 b 150 515 239 651 179 610 b 115 499 143 497 132 492 l 78 511 b 61 547 63 518 57 529 "},"ю":{"ha":1036,"x_min":0,"x_max":0,"o":"m 368 482 b 665 735 368 639 481 735 b 965 482 854 735 965 639 l 965 232 b 665 -19 965 75 854 -19 b 368 232 481 -19 368 75 l 368 319 l 186 319 l 186 25 b 161 0 186 8 178 0 l 117 0 b 92 25 100 0 92 8 l 92 689 b 117 714 92 706 100 714 l 161 714 b 186 689 178 714 186 706 l 186 406 l 368 406 m 871 482 b 665 650 871 588 793 650 b 463 482 542 650 463 588 l 463 232 b 665 65 463 128 542 65 b 871 232 793 65 871 128 "},"я":{"ha":731,"x_min":0,"x_max":0,"o":"m 617 714 b 642 689 633 714 642 706 l 642 25 b 617 0 642 7 635 0 l 574 0 b 549 25 553 0 549 7 l 549 257 l 322 257 l 168 22 b 122 0 157 1 150 0 l 82 0 b 64 31 53 0 49 10 l 226 269 b 63 485 125 290 63 369 b 296 714 63 628 151 714 m 307 631 b 160 485 217 631 160 574 b 307 342 160 397 217 342 l 549 342 l 549 631 "},"ё":{"ha":736,"x_min":0,"x_max":0,"o":"m 242 956 b 288 910 276 956 288 943 l 288 899 b 242 854 288 865 276 854 l 233 854 b 189 899 199 854 189 865 l 189 910 b 233 956 189 943 200 956 m 511 956 b 557 910 546 956 557 943 l 557 899 b 511 854 557 865 546 854 l 504 854 b 457 899 469 854 457 865 l 457 910 b 504 956 457 943 469 956 m 65 442 b 372 735 65 626 172 735 b 681 447 574 735 681 621 l 681 371 b 639 332 681 344 667 332 l 158 332 l 158 251 b 367 61 158 131 232 61 b 585 176 469 61 542 100 b 625 186 596 192 610 194 l 654 171 b 664 131 672 161 675 149 b 367 -19 608 31 510 -19 b 65 261 165 -19 65 88 m 588 453 b 372 654 588 579 513 654 b 158 453 233 654 158 579 l 158 404 l 588 404 "},"Ẁ":{"ha":1224,"x_min":0,"x_max":0,"o":"m 496 1238 b 543 1239 506 1250 522 1250 l 771 1104 b 772 1076 782 1097 782 1089 l 760 1061 b 726 1060 753 1054 742 1053 l 479 1183 b 475 1213 461 1189 463 1197 m 1178 986 b 1196 960 1196 986 1201 978 l 949 24 b 913 0 944 8 932 0 l 869 0 b 833 22 849 0 838 7 l 649 694 b 621 831 639 733 629 779 l 615 831 b 588 696 611 793 601 747 l 400 24 b 365 0 396 8 383 0 l 321 0 b 286 22 301 0 290 7 l 38 960 b 56 986 33 978 40 986 l 111 986 b 149 961 135 986 143 982 l 318 290 b 333 207 322 274 326 246 b 343 142 339 168 342 146 l 349 142 b 378 290 361 218 371 268 l 563 946 b 600 971 567 963 579 971 l 643 971 b 681 946 664 971 676 963 l 863 289 b 893 142 869 267 879 218 l 899 142 b 924 288 908 208 917 257 l 1093 961 b 1129 986 1097 982 1106 986 "},"ẁ":{"ha":1015,"x_min":0,"x_max":0,"o":"m 389 997 b 436 1000 399 1010 415 1010 l 661 860 b 663 832 672 853 672 844 l 650 817 b 617 814 643 810 632 808 l 372 943 b 368 972 358 949 357 958 m 965 714 b 986 685 989 714 993 707 l 781 18 b 747 -4 776 3 765 -4 l 718 -4 b 683 18 700 -4 688 3 l 540 472 b 524 543 535 492 529 515 b 513 590 517 571 514 586 l 508 590 b 497 542 507 586 503 569 b 481 472 492 514 486 490 l 338 18 b 304 -4 333 3 322 -4 l 275 -4 b 242 18 257 -4 246 3 l 38 685 b 58 714 31 707 35 714 l 90 714 b 133 689 119 714 129 710 l 260 258 b 278 178 264 240 271 213 b 290 114 285 142 289 121 l 294 114 b 310 176 296 119 301 140 b 329 260 317 213 324 240 l 463 674 b 503 699 468 694 474 699 l 524 699 b 564 674 551 699 557 694 l 696 264 b 718 178 703 243 710 214 b 732 114 725 142 731 121 l 736 114 b 749 175 738 119 742 140 b 768 261 756 210 761 239 l 893 689 b 938 714 899 711 906 714 "}}}
